<?xml version="1.0" encoding="UTF-8" ?>
<svg version="1.1" width="350" height="250" xmlns="http://www.w3.org/2000/svg" shape-rendering="crispEdges">
<rect x="0" y="0" width="10" height="10" fill="#FFFFFF" />
<rect x="0" y="10" width="10" height="10" fill="#FFFFFF" />
<rect x="0" y="20" width="10" height="10" fill="#FFFFFF" />
<rect x="0" y="30" width="10" height="10" fill="#FFFFFF" />
<rect x="10" y="30" width="10" height="10" fill="#FEFAF7" />
<rect x="20" y="30" width="10" height="10" fill="#FEFAF7" />
<rect x="30" y="30" width="10" height="10" fill="#FEFAF7" />
<rect x="40" y="30" width="10" height="10" fill="#FEFAF7" />
<rect x="50" y="30" width="10" height="10" fill="#FEFAF7" />
<rect x="60" y="30" width="10" height="10" fill="#FEF1E9" />
<rect x="70" y="30" width="10" height="10" fill="#FCD7BE" />
<rect x="80" y="30" width="10" height="10" fill="#FCD7BE" />
<rect x="90" y="30" width="10" height="10" fill="#FCD7BE" />
<rect x="100" y="30" width="10" height="10" fill="#FFB27C" />
<rect x="110" y="30" width="10" height="10" fill="#FFB27C" />
<rect x="120" y="30" width="10" height="10" fill="#FFB27C" />
<rect x="130" y="30" width="10" height="10" fill="#FFB27C" />
<rect x="140" y="30" width="10" height="10" fill="#FFB27C" />
<rect x="150" y="30" width="10" height="10" fill="#F6883C" />
<rect x="160" y="30" width="10" height="10" fill="#F6883C" />
<rect x="170" y="30" width="10" height="10" fill="#F6883C" />
<rect x="180" y="30" width="10" height="10" fill="#F6883C" />
<rect x="190" y="30" width="10" height="10" fill="#F6883C" />
<rect x="200" y="30" width="10" height="10" fill="#F6883C" />
<rect x="210" y="30" width="10" height="10" fill="#CD6A24" />
<rect x="220" y="30" width="10" height="10" fill="#CD6A24" />
<rect x="230" y="30" width="10" height="10" fill="#CD6A24" />
<rect x="240" y="30" width="10" height="10" fill="#CD6A24" />
<rect x="250" y="30" width="10" height="10" fill="#CD6A24" />
<rect x="260" y="30" width="10" height="10" fill="#8E531F" />
<rect x="270" y="30" width="10" height="10" fill="#8E531F" />
<rect x="280" y="30" width="10" height="10" fill="#8E531F" />
<rect x="290" y="30" width="10" height="10" fill="#8E531F" />
<rect x="300" y="30" width="10" height="10" fill="#8E531F" />
<rect x="310" y="30" width="10" height="10" fill="#8E531F" />
<rect x="320" y="30" width="10" height="10" fill="#8E531F" />
<rect x="330" y="30" width="10" height="10" fill="#8E531F" />
<rect x="340" y="30" width="10" height="10" fill="#8E531F" />
<rect x="0" y="40" width="10" height="10" fill="#FFFFFF" />
<rect x="0" y="50" width="10" height="10" fill="#FFFFFF" />
<rect x="0" y="60" width="10" height="10" fill="#FFFFFF" />
<rect x="0" y="70" width="10" height="10" fill="#FFFFFF" />
<rect x="0" y="80" width="10" height="10" fill="#FFFFFF" />
<rect x="0" y="90" width="10" height="10" fill="#FFFFFF" />
<rect x="0" y="100" width="10" height="10" fill="#FFFFFF" />
<rect x="0" y="110" width="10" height="10" fill="#FFFFFF" />
<rect x="0" y="120" width="10" height="10" fill="#FFFFFF" />
<rect x="10" y="120" width="10" height="10" fill="#FEFAF7" />
<rect x="20" y="120" width="10" height="10" fill="#FEFAF7" />
<rect x="30" y="120" width="10" height="10" fill="#FEFAF7" />
<rect x="40" y="120" width="10" height="10" fill="#FEFAF7" />
<rect x="50" y="120" width="10" height="10" fill="#FEFAF7" />
<rect x="60" y="120" width="10" height="10" fill="#FEF1E9" />
<rect x="70" y="120" width="10" height="10" fill="#FEF1E9" />
<rect x="80" y="120" width="10" height="10" fill="#FCD7BE" />
<rect x="90" y="120" width="10" height="10" fill="#FCD7BE" />
<rect x="100" y="120" width="10" height="10" fill="#FFB27C" />
<rect x="110" y="120" width="10" height="10" fill="#FFB27C" />
<rect x="120" y="120" width="10" height="10" fill="#FFB27C" />
<rect x="130" y="120" width="10" height="10" fill="#FFB27C" />
<rect x="140" y="120" width="10" height="10" fill="#FFB27C" />
<rect x="150" y="120" width="10" height="10" fill="#F6883C" />
<rect x="160" y="120" width="10" height="10" fill="#F6883C" />
<rect x="170" y="120" width="10" height="10" fill="#F6883C" />
<rect x="180" y="120" width="10" height="10" fill="#F6883C" />
<rect x="190" y="120" width="10" height="10" fill="#F6883C" />
<rect x="200" y="120" width="10" height="10" fill="#F6883C" />
<rect x="210" y="120" width="10" height="10" fill="#CD6A24" />
<rect x="220" y="120" width="10" height="10" fill="#CD6A24" />
<rect x="230" y="120" width="10" height="10" fill="#CD6A24" />
<rect x="240" y="120" width="10" height="10" fill="#CD6A24" />
<rect x="250" y="120" width="10" height="10" fill="#8E531F" />
<rect x="260" y="120" width="10" height="10" fill="#8E531F" />
<rect x="270" y="120" width="10" height="10" fill="#8E531F" />
<rect x="280" y="120" width="10" height="10" fill="#8E531F" />
<rect x="290" y="120" width="10" height="10" fill="#8E531F" />
<rect x="300" y="120" width="10" height="10" fill="#8E531F" />
<rect x="310" y="120" width="10" height="10" fill="#8E531F" />
<rect x="320" y="120" width="10" height="10" fill="#8E531F" />
<rect x="330" y="120" width="10" height="10" fill="#8E531F" />
<rect x="340" y="120" width="10" height="10" fill="#8E531F" />
<rect x="0" y="130" width="10" height="10" fill="#FFFFFF" />
<rect x="0" y="140" width="10" height="10" fill="#FFFFFF" />
<rect x="0" y="150" width="10" height="10" fill="#FFFFFF" />
<rect x="0" y="160" width="10" height="10" fill="#FFFFFF" />
<rect x="0" y="170" width="10" height="10" fill="#FFFFFF" />
<rect x="0" y="180" width="10" height="10" fill="#FFFFFF" />
<rect x="0" y="190" width="10" height="10" fill="#FFFFFF" />
<rect x="0" y="200" width="10" height="10" fill="#FFFFFF" />
<rect x="0" y="210" width="10" height="10" fill="#FFFFFF" />
<rect x="10" y="210" width="10" height="10" fill="#FEF1E9" />
<rect x="20" y="210" width="10" height="10" fill="#FEF1E9" />
<rect x="30" y="210" width="10" height="10" fill="#FEF1E9" />
<rect x="40" y="210" width="10" height="10" fill="#FEF1E9" />
<rect x="50" y="210" width="10" height="10" fill="#FEF1E9" />
<rect x="60" y="210" width="10" height="10" fill="#FEF1E9" />
<rect x="70" y="210" width="10" height="10" fill="#FEF1E9" />
<rect x="80" y="210" width="10" height="10" fill="#FCD7BE" />
<rect x="90" y="210" width="10" height="10" fill="#FCD7BE" />
<rect x="100" y="210" width="10" height="10" fill="#FFB27C" />
<rect x="110" y="210" width="10" height="10" fill="#FFB27C" />
<rect x="120" y="210" width="10" height="10" fill="#FFB27C" />
<rect x="130" y="210" width="10" height="10" fill="#FFB27C" />
<rect x="140" y="210" width="10" height="10" fill="#FFB27C" />
<rect x="150" y="210" width="10" height="10" fill="#F6883C" />
<rect x="160" y="210" width="10" height="10" fill="#F6883C" />
<rect x="170" y="210" width="10" height="10" fill="#F6883C" />
<rect x="180" y="210" width="10" height="10" fill="#F6883C" />
<rect x="190" y="210" width="10" height="10" fill="#F6883C" />
<rect x="200" y="210" width="10" height="10" fill="#F6883C" />
<rect x="210" y="210" width="10" height="10" fill="#CD6A24" />
<rect x="220" y="210" width="10" height="10" fill="#CD6A24" />
<rect x="230" y="210" width="10" height="10" fill="#CD6A24" />
<rect x="240" y="210" width="10" height="10" fill="#CD6A24" />
<rect x="250" y="210" width="10" height="10" fill="#CD6A24" />
<rect x="260" y="210" width="10" height="10" fill="#8E531F" />
<rect x="270" y="210" width="10" height="10" fill="#8E531F" />
<rect x="280" y="210" width="10" height="10" fill="#8E531F" />
<rect x="290" y="210" width="10" height="10" fill="#8E531F" />
<rect x="300" y="210" width="10" height="10" fill="#8E531F" />
<rect x="310" y="210" width="10" height="10" fill="#8E531F" />
<rect x="320" y="210" width="10" height="10" fill="#8E531F" />
<rect x="330" y="210" width="10" height="10" fill="#8E531F" />
<rect x="340" y="210" width="10" height="10" fill="#8E531F" />
<rect x="0" y="220" width="10" height="10" fill="#FFFFFF" />
<rect x="0" y="230" width="10" height="10" fill="#FFFFFF" />
<rect x="0" y="240" width="10" height="10" fill="#FFFFFF" />
</svg>