<?xml version="1.0" encoding="UTF-8" ?>
<svg version="1.1" width="70" height="70" xmlns="http://www.w3.org/2000/svg" shape-rendering="crispEdges">
<rect x="20" y="0" width="10" height="10" fill="#FF9A00" />
<rect x="30" y="0" width="10" height="10" fill="#FF9A00" />
<rect x="40" y="0" width="10" height="10" fill="#FF9A00" />
<rect x="10" y="10" width="10" height="10" fill="#FF9A00" />
<rect x="20" y="10" width="10" height="10" fill="#FF9A00" />
<rect x="30" y="10" width="10" height="10" fill="#FEFAF7" />
<rect x="40" y="10" width="10" height="10" fill="#FF9A00" />
<rect x="50" y="10" width="10" height="10" fill="#FF9A00" />
<rect x="0" y="20" width="10" height="10" fill="#FF9A00" />
<rect x="10" y="20" width="10" height="10" fill="#FF9A00" />
<rect x="20" y="20" width="10" height="10" fill="#FEFAF7" />
<rect x="30" y="20" width="10" height="10" fill="#FF7700" />
<rect x="40" y="20" width="10" height="10" fill="#FEFAF7" />
<rect x="50" y="20" width="10" height="10" fill="#FF9A00" />
<rect x="60" y="20" width="10" height="10" fill="#FF9A00" />
<rect x="0" y="30" width="10" height="10" fill="#FF9A00" />
<rect x="10" y="30" width="10" height="10" fill="#FEFAF7" />
<rect x="20" y="30" width="10" height="10" fill="#FF7700" />
<rect x="30" y="30" width="10" height="10" fill="#FF7700" />
<rect x="40" y="30" width="10" height="10" fill="#FF7700" />
<rect x="50" y="30" width="10" height="10" fill="#FEFAF7" />
<rect x="60" y="30" width="10" height="10" fill="#FF9A00" />
<rect x="0" y="40" width="10" height="10" fill="#FF9A00" />
<rect x="10" y="40" width="10" height="10" fill="#FF9A00" />
<rect x="20" y="40" width="10" height="10" fill="#FEFAF7" />
<rect x="30" y="40" width="10" height="10" fill="#FF7700" />
<rect x="40" y="40" width="10" height="10" fill="#FEFAF7" />
<rect x="50" y="40" width="10" height="10" fill="#FF9A00" />
<rect x="60" y="40" width="10" height="10" fill="#FF9A00" />
<rect x="10" y="50" width="10" height="10" fill="#FF9A00" />
<rect x="20" y="50" width="10" height="10" fill="#FF9A00" />
<rect x="30" y="50" width="10" height="10" fill="#FEFAF7" />
<rect x="40" y="50" width="10" height="10" fill="#FF9A00" />
<rect x="50" y="50" width="10" height="10" fill="#FF9A00" />
<rect x="20" y="60" width="10" height="10" fill="#FF9A00" />
<rect x="30" y="60" width="10" height="10" fill="#FF9A00" />
<rect x="40" y="60" width="10" height="10" fill="#FF9A00" />
</svg>