<?xml version="1.0" encoding="UTF-8" ?>
<svg version="1.1" width="290" height="20" xmlns="http://www.w3.org/2000/svg" shape-rendering="crispEdges">
<rect x="0" y="0" width="10" height="10" fill="#DF7126" />
<rect x="10" y="0" width="10" height="10" fill="#DF7126" />
<rect x="20" y="0" width="10" height="10" fill="#DF7126" />
<rect x="30" y="0" width="10" height="10" fill="#DF7126" />
<rect x="40" y="0" width="10" height="10" fill="#DF7126" />
<rect x="50" y="0" width="10" height="10" fill="#DF7126" />
<rect x="60" y="0" width="10" height="10" fill="#DF7126" />
<rect x="70" y="0" width="10" height="10" fill="#DF7126" />
<rect x="80" y="0" width="10" height="10" fill="#DF7126" />
<rect x="90" y="0" width="10" height="10" fill="#DF7126" />
<rect x="100" y="0" width="10" height="10" fill="#DF7126" />
<rect x="110" y="0" width="10" height="10" fill="#DF7126" />
<rect x="120" y="0" width="10" height="10" fill="#DF7126" />
<rect x="130" y="0" width="10" height="10" fill="#DF7126" />
<rect x="140" y="0" width="10" height="10" fill="#DF7126" />
<rect x="150" y="0" width="10" height="10" fill="#DF7126" />
<rect x="160" y="0" width="10" height="10" fill="#DF7126" />
<rect x="170" y="0" width="10" height="10" fill="#DF7126" />
<rect x="180" y="0" width="10" height="10" fill="#DF7126" />
<rect x="190" y="0" width="10" height="10" fill="#DF7126" />
<rect x="200" y="0" width="10" height="10" fill="#DF7126" />
<rect x="210" y="0" width="10" height="10" fill="#DF7126" />
<rect x="220" y="0" width="10" height="10" fill="#DF7126" />
<rect x="230" y="0" width="10" height="10" fill="#DF7126" />
<rect x="240" y="0" width="10" height="10" fill="#DF7126" />
<rect x="250" y="0" width="10" height="10" fill="#DF7126" />
<rect x="260" y="0" width="10" height="10" fill="#DF7126" />
<rect x="270" y="0" width="10" height="10" fill="#DF7126" />
<rect x="280" y="0" width="10" height="10" fill="#DF7126" />
<rect x="0" y="10" width="10" height="10" fill="#A75935" />
<rect x="10" y="10" width="10" height="10" fill="#A75935" />
<rect x="20" y="10" width="10" height="10" fill="#A75935" />
<rect x="30" y="10" width="10" height="10" fill="#A75935" />
<rect x="40" y="10" width="10" height="10" fill="#A75935" />
<rect x="50" y="10" width="10" height="10" fill="#A75935" />
<rect x="60" y="10" width="10" height="10" fill="#A75935" />
<rect x="70" y="10" width="10" height="10" fill="#A75935" />
<rect x="80" y="10" width="10" height="10" fill="#A75935" />
<rect x="90" y="10" width="10" height="10" fill="#A75935" />
<rect x="100" y="10" width="10" height="10" fill="#A75935" />
<rect x="110" y="10" width="10" height="10" fill="#A75935" />
<rect x="120" y="10" width="10" height="10" fill="#A75935" />
<rect x="130" y="10" width="10" height="10" fill="#A75935" />
<rect x="140" y="10" width="10" height="10" fill="#A75935" />
<rect x="150" y="10" width="10" height="10" fill="#A75935" />
<rect x="160" y="10" width="10" height="10" fill="#A75935" />
<rect x="170" y="10" width="10" height="10" fill="#A75935" />
<rect x="180" y="10" width="10" height="10" fill="#A75935" />
<rect x="190" y="10" width="10" height="10" fill="#A75935" />
<rect x="200" y="10" width="10" height="10" fill="#A75935" />
<rect x="210" y="10" width="10" height="10" fill="#A75935" />
<rect x="220" y="10" width="10" height="10" fill="#A75935" />
<rect x="230" y="10" width="10" height="10" fill="#A75935" />
<rect x="240" y="10" width="10" height="10" fill="#A75935" />
<rect x="250" y="10" width="10" height="10" fill="#A75935" />
<rect x="260" y="10" width="10" height="10" fill="#A75935" />
<rect x="270" y="10" width="10" height="10" fill="#A75935" />
<rect x="280" y="10" width="10" height="10" fill="#A75935" />
</svg>