<?xml version="1.0" encoding="UTF-8" ?>
<svg version="1.1" width="330" height="40" xmlns="http://www.w3.org/2000/svg" shape-rendering="crispEdges">
<rect x="0" y="0" width="10" height="10" fill="#354279" />
<rect x="10" y="0" width="10" height="10" fill="#121E4C" />
<rect x="20" y="0" width="10" height="10" fill="#000234" />
<rect x="30" y="0" width="10" height="10" fill="#000234" />
<rect x="40" y="0" width="10" height="10" fill="#000234" />
<rect x="50" y="0" width="10" height="10" fill="#000234" />
<rect x="60" y="0" width="10" height="10" fill="#000234" />
<rect x="70" y="0" width="10" height="10" fill="#000234" />
<rect x="80" y="0" width="10" height="10" fill="#000234" />
<rect x="90" y="0" width="10" height="10" fill="#000234" />
<rect x="100" y="0" width="10" height="10" fill="#000234" />
<rect x="110" y="0" width="10" height="10" fill="#000234" />
<rect x="120" y="0" width="10" height="10" fill="#000234" />
<rect x="130" y="0" width="10" height="10" fill="#000234" />
<rect x="140" y="0" width="10" height="10" fill="#000234" />
<rect x="150" y="0" width="10" height="10" fill="#000234" />
<rect x="160" y="0" width="10" height="10" fill="#000234" />
<rect x="170" y="0" width="10" height="10" fill="#000234" />
<rect x="180" y="0" width="10" height="10" fill="#000234" />
<rect x="190" y="0" width="10" height="10" fill="#000234" />
<rect x="200" y="0" width="10" height="10" fill="#000234" />
<rect x="210" y="0" width="10" height="10" fill="#000234" />
<rect x="220" y="0" width="10" height="10" fill="#000234" />
<rect x="230" y="0" width="10" height="10" fill="#000234" />
<rect x="240" y="0" width="10" height="10" fill="#000234" />
<rect x="250" y="0" width="10" height="10" fill="#000234" />
<rect x="260" y="0" width="10" height="10" fill="#000234" />
<rect x="270" y="0" width="10" height="10" fill="#000234" />
<rect x="280" y="0" width="10" height="10" fill="#000234" />
<rect x="290" y="0" width="10" height="10" fill="#000234" />
<rect x="300" y="0" width="10" height="10" fill="#000234" />
<rect x="310" y="0" width="10" height="10" fill="#354279" />
<rect x="320" y="0" width="10" height="10" fill="#121E4C" />
<rect x="0" y="10" width="10" height="10" fill="#354279" />
<rect x="10" y="10" width="10" height="10" fill="#121E4C" />
<rect x="20" y="10" width="10" height="10" fill="#000234" />
<rect x="30" y="10" width="10" height="10" fill="#000234" />
<rect x="40" y="10" width="10" height="10" fill="#000234" />
<rect x="50" y="10" width="10" height="10" fill="#000234" />
<rect x="60" y="10" width="10" height="10" fill="#000234" />
<rect x="70" y="10" width="10" height="10" fill="#000234" />
<rect x="80" y="10" width="10" height="10" fill="#000234" />
<rect x="90" y="10" width="10" height="10" fill="#000234" />
<rect x="100" y="10" width="10" height="10" fill="#000234" />
<rect x="110" y="10" width="10" height="10" fill="#000234" />
<rect x="120" y="10" width="10" height="10" fill="#000234" />
<rect x="130" y="10" width="10" height="10" fill="#000234" />
<rect x="140" y="10" width="10" height="10" fill="#000234" />
<rect x="150" y="10" width="10" height="10" fill="#000234" />
<rect x="160" y="10" width="10" height="10" fill="#000234" />
<rect x="170" y="10" width="10" height="10" fill="#000234" />
<rect x="180" y="10" width="10" height="10" fill="#000234" />
<rect x="190" y="10" width="10" height="10" fill="#000234" />
<rect x="200" y="10" width="10" height="10" fill="#000234" />
<rect x="210" y="10" width="10" height="10" fill="#000234" />
<rect x="220" y="10" width="10" height="10" fill="#000234" />
<rect x="230" y="10" width="10" height="10" fill="#000234" />
<rect x="240" y="10" width="10" height="10" fill="#000234" />
<rect x="250" y="10" width="10" height="10" fill="#000234" />
<rect x="260" y="10" width="10" height="10" fill="#000234" />
<rect x="270" y="10" width="10" height="10" fill="#000234" />
<rect x="280" y="10" width="10" height="10" fill="#000234" />
<rect x="290" y="10" width="10" height="10" fill="#000234" />
<rect x="300" y="10" width="10" height="10" fill="#000234" />
<rect x="310" y="10" width="10" height="10" fill="#354279" />
<rect x="320" y="10" width="10" height="10" fill="#121E4C" />
<rect x="0" y="20" width="10" height="10" fill="#354279" />
<rect x="10" y="20" width="10" height="10" fill="#121E4C" />
<rect x="20" y="20" width="10" height="10" fill="#5B6EE1" />
<rect x="30" y="20" width="10" height="10" fill="#5B6EE1" />
<rect x="40" y="20" width="10" height="10" fill="#5B6EE1" />
<rect x="50" y="20" width="10" height="10" fill="#5B6EE1" />
<rect x="60" y="20" width="10" height="10" fill="#5B6EE1" />
<rect x="70" y="20" width="10" height="10" fill="#354279" />
<rect x="80" y="20" width="10" height="10" fill="#354279" />
<rect x="90" y="20" width="10" height="10" fill="#5B6EE1" />
<rect x="100" y="20" width="10" height="10" fill="#5B6EE1" />
<rect x="110" y="20" width="10" height="10" fill="#5B6EE1" />
<rect x="120" y="20" width="10" height="10" fill="#354279" />
<rect x="130" y="20" width="10" height="10" fill="#354279" />
<rect x="140" y="20" width="10" height="10" fill="#5B6EE1" />
<rect x="150" y="20" width="10" height="10" fill="#354279" />
<rect x="160" y="20" width="10" height="10" fill="#354279" />
<rect x="170" y="20" width="10" height="10" fill="#354279" />
<rect x="180" y="20" width="10" height="10" fill="#354279" />
<rect x="190" y="20" width="10" height="10" fill="#354279" />
<rect x="200" y="20" width="10" height="10" fill="#354279" />
<rect x="210" y="20" width="10" height="10" fill="#354279" />
<rect x="220" y="20" width="10" height="10" fill="#354279" />
<rect x="230" y="20" width="10" height="10" fill="#354279" />
<rect x="240" y="20" width="10" height="10" fill="#354279" />
<rect x="250" y="20" width="10" height="10" fill="#354279" />
<rect x="260" y="20" width="10" height="10" fill="#354279" />
<rect x="270" y="20" width="10" height="10" fill="#354279" />
<rect x="280" y="20" width="10" height="10" fill="#354279" />
<rect x="290" y="20" width="10" height="10" fill="#354279" />
<rect x="300" y="20" width="10" height="10" fill="#354279" />
<rect x="310" y="20" width="10" height="10" fill="#354279" />
<rect x="320" y="20" width="10" height="10" fill="#121E4C" />
<rect x="0" y="30" width="10" height="10" fill="#121E4C" />
<rect x="10" y="30" width="10" height="10" fill="#121E4C" />
<rect x="20" y="30" width="10" height="10" fill="#121E4C" />
<rect x="30" y="30" width="10" height="10" fill="#121E4C" />
<rect x="40" y="30" width="10" height="10" fill="#121E4C" />
<rect x="50" y="30" width="10" height="10" fill="#121E4C" />
<rect x="60" y="30" width="10" height="10" fill="#121E4C" />
<rect x="70" y="30" width="10" height="10" fill="#121E4C" />
<rect x="80" y="30" width="10" height="10" fill="#121E4C" />
<rect x="90" y="30" width="10" height="10" fill="#121E4C" />
<rect x="100" y="30" width="10" height="10" fill="#121E4C" />
<rect x="110" y="30" width="10" height="10" fill="#121E4C" />
<rect x="120" y="30" width="10" height="10" fill="#121E4C" />
<rect x="130" y="30" width="10" height="10" fill="#121E4C" />
<rect x="140" y="30" width="10" height="10" fill="#121E4C" />
<rect x="150" y="30" width="10" height="10" fill="#121E4C" />
<rect x="160" y="30" width="10" height="10" fill="#121E4C" />
<rect x="170" y="30" width="10" height="10" fill="#121E4C" />
<rect x="180" y="30" width="10" height="10" fill="#121E4C" />
<rect x="190" y="30" width="10" height="10" fill="#121E4C" />
<rect x="200" y="30" width="10" height="10" fill="#121E4C" />
<rect x="210" y="30" width="10" height="10" fill="#121E4C" />
<rect x="220" y="30" width="10" height="10" fill="#121E4C" />
<rect x="230" y="30" width="10" height="10" fill="#121E4C" />
<rect x="240" y="30" width="10" height="10" fill="#121E4C" />
<rect x="250" y="30" width="10" height="10" fill="#121E4C" />
<rect x="260" y="30" width="10" height="10" fill="#121E4C" />
<rect x="270" y="30" width="10" height="10" fill="#121E4C" />
<rect x="280" y="30" width="10" height="10" fill="#121E4C" />
<rect x="290" y="30" width="10" height="10" fill="#121E4C" />
<rect x="300" y="30" width="10" height="10" fill="#121E4C" />
<rect x="310" y="30" width="10" height="10" fill="#121E4C" />
<rect x="320" y="30" width="10" height="10" fill="#121E4C" />
</svg>