<?xml version="1.0" encoding="UTF-8" ?>
<svg version="1.1" width="590" height="110" xmlns="http://www.w3.org/2000/svg" shape-rendering="crispEdges">
<rect x="0" y="0" width="10" height="10" fill="#5B6EE1" />
<rect x="10" y="0" width="10" height="10" fill="#5B6EE1" />
<rect x="20" y="0" width="10" height="10" fill="#5B6EE1" />
<rect x="30" y="0" width="10" height="10" fill="#5B6EE1" />
<rect x="40" y="0" width="10" height="10" fill="#5B6EE1" />
<rect x="50" y="0" width="10" height="10" fill="#5B6EE1" />
<rect x="60" y="0" width="10" height="10" fill="#5B6EE1" />
<rect x="70" y="0" width="10" height="10" fill="#5B6EE1" />
<rect x="80" y="0" width="10" height="10" fill="#5B6EE1" />
<rect x="90" y="0" width="10" height="10" fill="#354279" />
<rect x="100" y="0" width="10" height="10" fill="#354279" />
<rect x="110" y="0" width="10" height="10" fill="#5B6EE1" />
<rect x="120" y="0" width="10" height="10" fill="#5B6EE1" />
<rect x="130" y="0" width="10" height="10" fill="#5B6EE1" />
<rect x="140" y="0" width="10" height="10" fill="#354279" />
<rect x="150" y="0" width="10" height="10" fill="#354279" />
<rect x="160" y="0" width="10" height="10" fill="#5B6EE1" />
<rect x="170" y="0" width="10" height="10" fill="#354279" />
<rect x="180" y="0" width="10" height="10" fill="#354279" />
<rect x="190" y="0" width="10" height="10" fill="#354279" />
<rect x="200" y="0" width="10" height="10" fill="#354279" />
<rect x="210" y="0" width="10" height="10" fill="#354279" />
<rect x="220" y="0" width="10" height="10" fill="#354279" />
<rect x="230" y="0" width="10" height="10" fill="#354279" />
<rect x="240" y="0" width="10" height="10" fill="#354279" />
<rect x="250" y="0" width="10" height="10" fill="#354279" />
<rect x="260" y="0" width="10" height="10" fill="#354279" />
<rect x="270" y="0" width="10" height="10" fill="#354279" />
<rect x="280" y="0" width="10" height="10" fill="#354279" />
<rect x="290" y="0" width="10" height="10" fill="#354279" />
<rect x="300" y="0" width="10" height="10" fill="#354279" />
<rect x="310" y="0" width="10" height="10" fill="#354279" />
<rect x="320" y="0" width="10" height="10" fill="#354279" />
<rect x="330" y="0" width="10" height="10" fill="#354279" />
<rect x="340" y="0" width="10" height="10" fill="#354279" />
<rect x="350" y="0" width="10" height="10" fill="#354279" />
<rect x="360" y="0" width="10" height="10" fill="#354279" />
<rect x="370" y="0" width="10" height="10" fill="#354279" />
<rect x="380" y="0" width="10" height="10" fill="#354279" />
<rect x="390" y="0" width="10" height="10" fill="#354279" />
<rect x="400" y="0" width="10" height="10" fill="#354279" />
<rect x="410" y="0" width="10" height="10" fill="#354279" />
<rect x="420" y="0" width="10" height="10" fill="#354279" />
<rect x="430" y="0" width="10" height="10" fill="#354279" />
<rect x="440" y="0" width="10" height="10" fill="#354279" />
<rect x="450" y="0" width="10" height="10" fill="#354279" />
<rect x="460" y="0" width="10" height="10" fill="#354279" />
<rect x="470" y="0" width="10" height="10" fill="#354279" />
<rect x="480" y="0" width="10" height="10" fill="#354279" />
<rect x="490" y="0" width="10" height="10" fill="#354279" />
<rect x="500" y="0" width="10" height="10" fill="#354279" />
<rect x="510" y="0" width="10" height="10" fill="#354279" />
<rect x="520" y="0" width="10" height="10" fill="#354279" />
<rect x="530" y="0" width="10" height="10" fill="#354279" />
<rect x="540" y="0" width="10" height="10" fill="#354279" />
<rect x="550" y="0" width="10" height="10" fill="#354279" />
<rect x="560" y="0" width="10" height="10" fill="#354279" />
<rect x="570" y="0" width="10" height="10" fill="#354279" />
<rect x="580" y="0" width="10" height="10" fill="#354279" />
<rect x="0" y="10" width="10" height="10" fill="#121E4C" />
<rect x="10" y="10" width="10" height="10" fill="#121E4C" />
<rect x="20" y="10" width="10" height="10" fill="#121E4C" />
<rect x="30" y="10" width="10" height="10" fill="#121E4C" />
<rect x="40" y="10" width="10" height="10" fill="#121E4C" />
<rect x="50" y="10" width="10" height="10" fill="#121E4C" />
<rect x="60" y="10" width="10" height="10" fill="#121E4C" />
<rect x="70" y="10" width="10" height="10" fill="#121E4C" />
<rect x="80" y="10" width="10" height="10" fill="#121E4C" />
<rect x="90" y="10" width="10" height="10" fill="#121E4C" />
<rect x="100" y="10" width="10" height="10" fill="#121E4C" />
<rect x="110" y="10" width="10" height="10" fill="#121E4C" />
<rect x="120" y="10" width="10" height="10" fill="#121E4C" />
<rect x="130" y="10" width="10" height="10" fill="#121E4C" />
<rect x="140" y="10" width="10" height="10" fill="#121E4C" />
<rect x="150" y="10" width="10" height="10" fill="#121E4C" />
<rect x="160" y="10" width="10" height="10" fill="#121E4C" />
<rect x="170" y="10" width="10" height="10" fill="#121E4C" />
<rect x="180" y="10" width="10" height="10" fill="#121E4C" />
<rect x="190" y="10" width="10" height="10" fill="#121E4C" />
<rect x="200" y="10" width="10" height="10" fill="#121E4C" />
<rect x="210" y="10" width="10" height="10" fill="#121E4C" />
<rect x="220" y="10" width="10" height="10" fill="#121E4C" />
<rect x="230" y="10" width="10" height="10" fill="#121E4C" />
<rect x="240" y="10" width="10" height="10" fill="#121E4C" />
<rect x="250" y="10" width="10" height="10" fill="#121E4C" />
<rect x="260" y="10" width="10" height="10" fill="#121E4C" />
<rect x="270" y="10" width="10" height="10" fill="#121E4C" />
<rect x="280" y="10" width="10" height="10" fill="#121E4C" />
<rect x="290" y="10" width="10" height="10" fill="#121E4C" />
<rect x="300" y="10" width="10" height="10" fill="#121E4C" />
<rect x="310" y="10" width="10" height="10" fill="#121E4C" />
<rect x="320" y="10" width="10" height="10" fill="#121E4C" />
<rect x="330" y="10" width="10" height="10" fill="#121E4C" />
<rect x="340" y="10" width="10" height="10" fill="#121E4C" />
<rect x="350" y="10" width="10" height="10" fill="#121E4C" />
<rect x="360" y="10" width="10" height="10" fill="#121E4C" />
<rect x="370" y="10" width="10" height="10" fill="#121E4C" />
<rect x="380" y="10" width="10" height="10" fill="#121E4C" />
<rect x="390" y="10" width="10" height="10" fill="#121E4C" />
<rect x="400" y="10" width="10" height="10" fill="#121E4C" />
<rect x="410" y="10" width="10" height="10" fill="#121E4C" />
<rect x="420" y="10" width="10" height="10" fill="#121E4C" />
<rect x="430" y="10" width="10" height="10" fill="#121E4C" />
<rect x="440" y="10" width="10" height="10" fill="#121E4C" />
<rect x="450" y="10" width="10" height="10" fill="#121E4C" />
<rect x="460" y="10" width="10" height="10" fill="#121E4C" />
<rect x="470" y="10" width="10" height="10" fill="#121E4C" />
<rect x="480" y="10" width="10" height="10" fill="#121E4C" />
<rect x="490" y="10" width="10" height="10" fill="#121E4C" />
<rect x="500" y="10" width="10" height="10" fill="#121E4C" />
<rect x="510" y="10" width="10" height="10" fill="#121E4C" />
<rect x="520" y="10" width="10" height="10" fill="#121E4C" />
<rect x="530" y="10" width="10" height="10" fill="#121E4C" />
<rect x="540" y="10" width="10" height="10" fill="#121E4C" />
<rect x="550" y="10" width="10" height="10" fill="#121E4C" />
<rect x="560" y="10" width="10" height="10" fill="#121E4C" />
<rect x="570" y="10" width="10" height="10" fill="#121E4C" />
<rect x="580" y="10" width="10" height="10" fill="#121E4C" />
<rect x="0" y="20" width="10" height="10" fill="#000234" />
<rect x="10" y="20" width="10" height="10" fill="#000234" />
<rect x="20" y="20" width="10" height="10" fill="#000234" />
<rect x="30" y="20" width="10" height="10" fill="#000234" />
<rect x="40" y="20" width="10" height="10" fill="#000234" />
<rect x="50" y="20" width="10" height="10" fill="#000234" />
<rect x="60" y="20" width="10" height="10" fill="#000234" />
<rect x="70" y="20" width="10" height="10" fill="#000234" />
<rect x="80" y="20" width="10" height="10" fill="#000234" />
<rect x="90" y="20" width="10" height="10" fill="#000234" />
<rect x="100" y="20" width="10" height="10" fill="#000234" />
<rect x="110" y="20" width="10" height="10" fill="#000234" />
<rect x="120" y="20" width="10" height="10" fill="#000234" />
<rect x="130" y="20" width="10" height="10" fill="#000234" />
<rect x="140" y="20" width="10" height="10" fill="#000234" />
<rect x="150" y="20" width="10" height="10" fill="#000234" />
<rect x="160" y="20" width="10" height="10" fill="#000234" />
<rect x="170" y="20" width="10" height="10" fill="#000234" />
<rect x="180" y="20" width="10" height="10" fill="#000234" />
<rect x="190" y="20" width="10" height="10" fill="#000234" />
<rect x="200" y="20" width="10" height="10" fill="#000234" />
<rect x="210" y="20" width="10" height="10" fill="#000234" />
<rect x="220" y="20" width="10" height="10" fill="#000234" />
<rect x="230" y="20" width="10" height="10" fill="#000234" />
<rect x="240" y="20" width="10" height="10" fill="#000234" />
<rect x="250" y="20" width="10" height="10" fill="#000234" />
<rect x="260" y="20" width="10" height="10" fill="#000234" />
<rect x="270" y="20" width="10" height="10" fill="#000234" />
<rect x="280" y="20" width="10" height="10" fill="#000234" />
<rect x="290" y="20" width="10" height="10" fill="#000234" />
<rect x="300" y="20" width="10" height="10" fill="#000234" />
<rect x="310" y="20" width="10" height="10" fill="#000234" />
<rect x="320" y="20" width="10" height="10" fill="#000234" />
<rect x="330" y="20" width="10" height="10" fill="#000234" />
<rect x="340" y="20" width="10" height="10" fill="#000234" />
<rect x="350" y="20" width="10" height="10" fill="#000234" />
<rect x="360" y="20" width="10" height="10" fill="#000234" />
<rect x="370" y="20" width="10" height="10" fill="#000234" />
<rect x="380" y="20" width="10" height="10" fill="#000234" />
<rect x="390" y="20" width="10" height="10" fill="#000234" />
<rect x="400" y="20" width="10" height="10" fill="#000234" />
<rect x="410" y="20" width="10" height="10" fill="#000234" />
<rect x="420" y="20" width="10" height="10" fill="#000234" />
<rect x="430" y="20" width="10" height="10" fill="#000234" />
<rect x="440" y="20" width="10" height="10" fill="#000234" />
<rect x="450" y="20" width="10" height="10" fill="#000234" />
<rect x="460" y="20" width="10" height="10" fill="#000234" />
<rect x="470" y="20" width="10" height="10" fill="#000234" />
<rect x="480" y="20" width="10" height="10" fill="#000234" />
<rect x="490" y="20" width="10" height="10" fill="#000234" />
<rect x="500" y="20" width="10" height="10" fill="#000234" />
<rect x="510" y="20" width="10" height="10" fill="#000234" />
<rect x="520" y="20" width="10" height="10" fill="#000234" />
<rect x="530" y="20" width="10" height="10" fill="#000234" />
<rect x="540" y="20" width="10" height="10" fill="#000234" />
<rect x="550" y="20" width="10" height="10" fill="#000234" />
<rect x="560" y="20" width="10" height="10" fill="#000234" />
<rect x="570" y="20" width="10" height="10" fill="#354279" />
<rect x="580" y="20" width="10" height="10" fill="#121E4C" />
<rect x="0" y="30" width="10" height="10" fill="#000234" />
<rect x="10" y="30" width="10" height="10" fill="#000234" />
<rect x="20" y="30" width="10" height="10" fill="#000234" />
<rect x="30" y="30" width="10" height="10" fill="#000234" />
<rect x="40" y="30" width="10" height="10" fill="#000234" />
<rect x="50" y="30" width="10" height="10" fill="#000234" />
<rect x="60" y="30" width="10" height="10" fill="#000234" />
<rect x="70" y="30" width="10" height="10" fill="#000234" />
<rect x="80" y="30" width="10" height="10" fill="#000234" />
<rect x="90" y="30" width="10" height="10" fill="#000234" />
<rect x="100" y="30" width="10" height="10" fill="#000234" />
<rect x="110" y="30" width="10" height="10" fill="#000234" />
<rect x="120" y="30" width="10" height="10" fill="#000234" />
<rect x="130" y="30" width="10" height="10" fill="#000234" />
<rect x="140" y="30" width="10" height="10" fill="#000234" />
<rect x="150" y="30" width="10" height="10" fill="#000234" />
<rect x="160" y="30" width="10" height="10" fill="#000234" />
<rect x="170" y="30" width="10" height="10" fill="#000234" />
<rect x="180" y="30" width="10" height="10" fill="#000234" />
<rect x="190" y="30" width="10" height="10" fill="#000234" />
<rect x="200" y="30" width="10" height="10" fill="#000234" />
<rect x="210" y="30" width="10" height="10" fill="#000234" />
<rect x="220" y="30" width="10" height="10" fill="#000234" />
<rect x="230" y="30" width="10" height="10" fill="#000234" />
<rect x="240" y="30" width="10" height="10" fill="#000234" />
<rect x="250" y="30" width="10" height="10" fill="#000234" />
<rect x="260" y="30" width="10" height="10" fill="#000234" />
<rect x="270" y="30" width="10" height="10" fill="#000234" />
<rect x="280" y="30" width="10" height="10" fill="#000234" />
<rect x="290" y="30" width="10" height="10" fill="#000234" />
<rect x="300" y="30" width="10" height="10" fill="#000234" />
<rect x="310" y="30" width="10" height="10" fill="#000234" />
<rect x="320" y="30" width="10" height="10" fill="#000234" />
<rect x="330" y="30" width="10" height="10" fill="#000234" />
<rect x="340" y="30" width="10" height="10" fill="#000234" />
<rect x="350" y="30" width="10" height="10" fill="#000234" />
<rect x="360" y="30" width="10" height="10" fill="#000234" />
<rect x="370" y="30" width="10" height="10" fill="#000234" />
<rect x="380" y="30" width="10" height="10" fill="#000234" />
<rect x="390" y="30" width="10" height="10" fill="#000234" />
<rect x="400" y="30" width="10" height="10" fill="#000234" />
<rect x="410" y="30" width="10" height="10" fill="#000234" />
<rect x="420" y="30" width="10" height="10" fill="#000234" />
<rect x="430" y="30" width="10" height="10" fill="#000234" />
<rect x="440" y="30" width="10" height="10" fill="#000234" />
<rect x="450" y="30" width="10" height="10" fill="#000234" />
<rect x="460" y="30" width="10" height="10" fill="#000234" />
<rect x="470" y="30" width="10" height="10" fill="#000234" />
<rect x="480" y="30" width="10" height="10" fill="#000234" />
<rect x="490" y="30" width="10" height="10" fill="#000234" />
<rect x="500" y="30" width="10" height="10" fill="#000234" />
<rect x="510" y="30" width="10" height="10" fill="#000234" />
<rect x="520" y="30" width="10" height="10" fill="#000234" />
<rect x="530" y="30" width="10" height="10" fill="#000234" />
<rect x="540" y="30" width="10" height="10" fill="#000234" />
<rect x="550" y="30" width="10" height="10" fill="#000234" />
<rect x="560" y="30" width="10" height="10" fill="#000234" />
<rect x="570" y="30" width="10" height="10" fill="#354279" />
<rect x="580" y="30" width="10" height="10" fill="#121E4C" />
<rect x="0" y="40" width="10" height="10" fill="#000234" />
<rect x="10" y="40" width="10" height="10" fill="#000234" />
<rect x="20" y="40" width="10" height="10" fill="#000234" />
<rect x="30" y="40" width="10" height="10" fill="#000234" />
<rect x="40" y="40" width="10" height="10" fill="#000234" />
<rect x="50" y="40" width="10" height="10" fill="#000234" />
<rect x="60" y="40" width="10" height="10" fill="#000234" />
<rect x="70" y="40" width="10" height="10" fill="#000234" />
<rect x="80" y="40" width="10" height="10" fill="#000234" />
<rect x="90" y="40" width="10" height="10" fill="#000234" />
<rect x="100" y="40" width="10" height="10" fill="#000234" />
<rect x="110" y="40" width="10" height="10" fill="#000234" />
<rect x="120" y="40" width="10" height="10" fill="#000234" />
<rect x="130" y="40" width="10" height="10" fill="#000234" />
<rect x="140" y="40" width="10" height="10" fill="#000234" />
<rect x="150" y="40" width="10" height="10" fill="#000234" />
<rect x="160" y="40" width="10" height="10" fill="#000234" />
<rect x="170" y="40" width="10" height="10" fill="#000234" />
<rect x="180" y="40" width="10" height="10" fill="#000234" />
<rect x="190" y="40" width="10" height="10" fill="#000234" />
<rect x="200" y="40" width="10" height="10" fill="#000234" />
<rect x="210" y="40" width="10" height="10" fill="#000234" />
<rect x="220" y="40" width="10" height="10" fill="#000234" />
<rect x="230" y="40" width="10" height="10" fill="#000234" />
<rect x="240" y="40" width="10" height="10" fill="#000234" />
<rect x="250" y="40" width="10" height="10" fill="#000234" />
<rect x="260" y="40" width="10" height="10" fill="#000234" />
<rect x="270" y="40" width="10" height="10" fill="#000234" />
<rect x="280" y="40" width="10" height="10" fill="#000234" />
<rect x="290" y="40" width="10" height="10" fill="#000234" />
<rect x="300" y="40" width="10" height="10" fill="#000234" />
<rect x="310" y="40" width="10" height="10" fill="#000234" />
<rect x="320" y="40" width="10" height="10" fill="#000234" />
<rect x="330" y="40" width="10" height="10" fill="#000234" />
<rect x="340" y="40" width="10" height="10" fill="#000234" />
<rect x="350" y="40" width="10" height="10" fill="#000234" />
<rect x="360" y="40" width="10" height="10" fill="#000234" />
<rect x="370" y="40" width="10" height="10" fill="#000234" />
<rect x="380" y="40" width="10" height="10" fill="#000234" />
<rect x="390" y="40" width="10" height="10" fill="#000234" />
<rect x="400" y="40" width="10" height="10" fill="#000234" />
<rect x="410" y="40" width="10" height="10" fill="#000234" />
<rect x="420" y="40" width="10" height="10" fill="#000234" />
<rect x="430" y="40" width="10" height="10" fill="#000234" />
<rect x="440" y="40" width="10" height="10" fill="#000234" />
<rect x="450" y="40" width="10" height="10" fill="#000234" />
<rect x="460" y="40" width="10" height="10" fill="#000234" />
<rect x="470" y="40" width="10" height="10" fill="#000234" />
<rect x="480" y="40" width="10" height="10" fill="#000234" />
<rect x="490" y="40" width="10" height="10" fill="#000234" />
<rect x="500" y="40" width="10" height="10" fill="#000234" />
<rect x="510" y="40" width="10" height="10" fill="#000234" />
<rect x="520" y="40" width="10" height="10" fill="#000234" />
<rect x="530" y="40" width="10" height="10" fill="#000234" />
<rect x="540" y="40" width="10" height="10" fill="#000234" />
<rect x="550" y="40" width="10" height="10" fill="#000234" />
<rect x="560" y="40" width="10" height="10" fill="#000234" />
<rect x="570" y="40" width="10" height="10" fill="#354279" />
<rect x="580" y="40" width="10" height="10" fill="#121E4C" />
<rect x="0" y="50" width="10" height="10" fill="#000234" />
<rect x="10" y="50" width="10" height="10" fill="#000234" />
<rect x="20" y="50" width="10" height="10" fill="#000234" />
<rect x="30" y="50" width="10" height="10" fill="#000234" />
<rect x="40" y="50" width="10" height="10" fill="#000234" />
<rect x="50" y="50" width="10" height="10" fill="#000234" />
<rect x="60" y="50" width="10" height="10" fill="#000234" />
<rect x="70" y="50" width="10" height="10" fill="#000234" />
<rect x="80" y="50" width="10" height="10" fill="#000234" />
<rect x="90" y="50" width="10" height="10" fill="#000234" />
<rect x="100" y="50" width="10" height="10" fill="#000234" />
<rect x="110" y="50" width="10" height="10" fill="#000234" />
<rect x="120" y="50" width="10" height="10" fill="#000234" />
<rect x="130" y="50" width="10" height="10" fill="#000234" />
<rect x="140" y="50" width="10" height="10" fill="#000234" />
<rect x="150" y="50" width="10" height="10" fill="#000234" />
<rect x="160" y="50" width="10" height="10" fill="#000234" />
<rect x="170" y="50" width="10" height="10" fill="#000234" />
<rect x="180" y="50" width="10" height="10" fill="#000234" />
<rect x="190" y="50" width="10" height="10" fill="#000234" />
<rect x="200" y="50" width="10" height="10" fill="#000234" />
<rect x="210" y="50" width="10" height="10" fill="#000234" />
<rect x="220" y="50" width="10" height="10" fill="#000234" />
<rect x="230" y="50" width="10" height="10" fill="#000234" />
<rect x="240" y="50" width="10" height="10" fill="#000234" />
<rect x="250" y="50" width="10" height="10" fill="#000234" />
<rect x="260" y="50" width="10" height="10" fill="#000234" />
<rect x="270" y="50" width="10" height="10" fill="#000234" />
<rect x="280" y="50" width="10" height="10" fill="#000234" />
<rect x="290" y="50" width="10" height="10" fill="#000234" />
<rect x="300" y="50" width="10" height="10" fill="#000234" />
<rect x="310" y="50" width="10" height="10" fill="#000234" />
<rect x="320" y="50" width="10" height="10" fill="#000234" />
<rect x="330" y="50" width="10" height="10" fill="#000234" />
<rect x="340" y="50" width="10" height="10" fill="#000234" />
<rect x="350" y="50" width="10" height="10" fill="#000234" />
<rect x="360" y="50" width="10" height="10" fill="#000234" />
<rect x="370" y="50" width="10" height="10" fill="#000234" />
<rect x="380" y="50" width="10" height="10" fill="#000234" />
<rect x="390" y="50" width="10" height="10" fill="#000234" />
<rect x="400" y="50" width="10" height="10" fill="#000234" />
<rect x="410" y="50" width="10" height="10" fill="#000234" />
<rect x="420" y="50" width="10" height="10" fill="#000234" />
<rect x="430" y="50" width="10" height="10" fill="#000234" />
<rect x="440" y="50" width="10" height="10" fill="#000234" />
<rect x="450" y="50" width="10" height="10" fill="#000234" />
<rect x="460" y="50" width="10" height="10" fill="#000234" />
<rect x="470" y="50" width="10" height="10" fill="#000234" />
<rect x="480" y="50" width="10" height="10" fill="#000234" />
<rect x="490" y="50" width="10" height="10" fill="#000234" />
<rect x="500" y="50" width="10" height="10" fill="#000234" />
<rect x="510" y="50" width="10" height="10" fill="#000234" />
<rect x="520" y="50" width="10" height="10" fill="#000234" />
<rect x="530" y="50" width="10" height="10" fill="#000234" />
<rect x="540" y="50" width="10" height="10" fill="#000234" />
<rect x="550" y="50" width="10" height="10" fill="#000234" />
<rect x="560" y="50" width="10" height="10" fill="#000234" />
<rect x="570" y="50" width="10" height="10" fill="#354279" />
<rect x="580" y="50" width="10" height="10" fill="#121E4C" />
<rect x="0" y="60" width="10" height="10" fill="#000234" />
<rect x="10" y="60" width="10" height="10" fill="#000234" />
<rect x="20" y="60" width="10" height="10" fill="#000234" />
<rect x="30" y="60" width="10" height="10" fill="#000234" />
<rect x="40" y="60" width="10" height="10" fill="#000234" />
<rect x="50" y="60" width="10" height="10" fill="#000234" />
<rect x="60" y="60" width="10" height="10" fill="#000234" />
<rect x="70" y="60" width="10" height="10" fill="#000234" />
<rect x="80" y="60" width="10" height="10" fill="#000234" />
<rect x="90" y="60" width="10" height="10" fill="#000234" />
<rect x="100" y="60" width="10" height="10" fill="#000234" />
<rect x="110" y="60" width="10" height="10" fill="#000234" />
<rect x="120" y="60" width="10" height="10" fill="#000234" />
<rect x="130" y="60" width="10" height="10" fill="#000234" />
<rect x="140" y="60" width="10" height="10" fill="#000234" />
<rect x="150" y="60" width="10" height="10" fill="#000234" />
<rect x="160" y="60" width="10" height="10" fill="#000234" />
<rect x="170" y="60" width="10" height="10" fill="#000234" />
<rect x="180" y="60" width="10" height="10" fill="#000234" />
<rect x="190" y="60" width="10" height="10" fill="#000234" />
<rect x="200" y="60" width="10" height="10" fill="#000234" />
<rect x="210" y="60" width="10" height="10" fill="#000234" />
<rect x="220" y="60" width="10" height="10" fill="#000234" />
<rect x="230" y="60" width="10" height="10" fill="#000234" />
<rect x="240" y="60" width="10" height="10" fill="#000234" />
<rect x="250" y="60" width="10" height="10" fill="#000234" />
<rect x="260" y="60" width="10" height="10" fill="#000234" />
<rect x="270" y="60" width="10" height="10" fill="#000234" />
<rect x="280" y="60" width="10" height="10" fill="#000234" />
<rect x="290" y="60" width="10" height="10" fill="#000234" />
<rect x="300" y="60" width="10" height="10" fill="#000234" />
<rect x="310" y="60" width="10" height="10" fill="#000234" />
<rect x="320" y="60" width="10" height="10" fill="#000234" />
<rect x="330" y="60" width="10" height="10" fill="#000234" />
<rect x="340" y="60" width="10" height="10" fill="#000234" />
<rect x="350" y="60" width="10" height="10" fill="#000234" />
<rect x="360" y="60" width="10" height="10" fill="#000234" />
<rect x="370" y="60" width="10" height="10" fill="#000234" />
<rect x="380" y="60" width="10" height="10" fill="#000234" />
<rect x="390" y="60" width="10" height="10" fill="#000234" />
<rect x="400" y="60" width="10" height="10" fill="#000234" />
<rect x="410" y="60" width="10" height="10" fill="#000234" />
<rect x="420" y="60" width="10" height="10" fill="#000234" />
<rect x="430" y="60" width="10" height="10" fill="#000234" />
<rect x="440" y="60" width="10" height="10" fill="#000234" />
<rect x="450" y="60" width="10" height="10" fill="#000234" />
<rect x="460" y="60" width="10" height="10" fill="#000234" />
<rect x="470" y="60" width="10" height="10" fill="#000234" />
<rect x="480" y="60" width="10" height="10" fill="#000234" />
<rect x="490" y="60" width="10" height="10" fill="#000234" />
<rect x="500" y="60" width="10" height="10" fill="#000234" />
<rect x="510" y="60" width="10" height="10" fill="#000234" />
<rect x="520" y="60" width="10" height="10" fill="#000234" />
<rect x="530" y="60" width="10" height="10" fill="#000234" />
<rect x="540" y="60" width="10" height="10" fill="#000234" />
<rect x="550" y="60" width="10" height="10" fill="#000234" />
<rect x="560" y="60" width="10" height="10" fill="#000234" />
<rect x="570" y="60" width="10" height="10" fill="#354279" />
<rect x="580" y="60" width="10" height="10" fill="#121E4C" />
<rect x="0" y="70" width="10" height="10" fill="#000234" />
<rect x="10" y="70" width="10" height="10" fill="#000234" />
<rect x="20" y="70" width="10" height="10" fill="#000234" />
<rect x="30" y="70" width="10" height="10" fill="#000234" />
<rect x="40" y="70" width="10" height="10" fill="#000234" />
<rect x="50" y="70" width="10" height="10" fill="#000234" />
<rect x="60" y="70" width="10" height="10" fill="#000234" />
<rect x="70" y="70" width="10" height="10" fill="#000234" />
<rect x="80" y="70" width="10" height="10" fill="#000234" />
<rect x="90" y="70" width="10" height="10" fill="#000234" />
<rect x="100" y="70" width="10" height="10" fill="#000234" />
<rect x="110" y="70" width="10" height="10" fill="#000234" />
<rect x="120" y="70" width="10" height="10" fill="#000234" />
<rect x="130" y="70" width="10" height="10" fill="#000234" />
<rect x="140" y="70" width="10" height="10" fill="#000234" />
<rect x="150" y="70" width="10" height="10" fill="#000234" />
<rect x="160" y="70" width="10" height="10" fill="#000234" />
<rect x="170" y="70" width="10" height="10" fill="#000234" />
<rect x="180" y="70" width="10" height="10" fill="#000234" />
<rect x="190" y="70" width="10" height="10" fill="#000234" />
<rect x="200" y="70" width="10" height="10" fill="#000234" />
<rect x="210" y="70" width="10" height="10" fill="#000234" />
<rect x="220" y="70" width="10" height="10" fill="#000234" />
<rect x="230" y="70" width="10" height="10" fill="#000234" />
<rect x="240" y="70" width="10" height="10" fill="#000234" />
<rect x="250" y="70" width="10" height="10" fill="#000234" />
<rect x="260" y="70" width="10" height="10" fill="#000234" />
<rect x="270" y="70" width="10" height="10" fill="#000234" />
<rect x="280" y="70" width="10" height="10" fill="#000234" />
<rect x="290" y="70" width="10" height="10" fill="#000234" />
<rect x="300" y="70" width="10" height="10" fill="#000234" />
<rect x="310" y="70" width="10" height="10" fill="#000234" />
<rect x="320" y="70" width="10" height="10" fill="#000234" />
<rect x="330" y="70" width="10" height="10" fill="#000234" />
<rect x="340" y="70" width="10" height="10" fill="#000234" />
<rect x="350" y="70" width="10" height="10" fill="#000234" />
<rect x="360" y="70" width="10" height="10" fill="#000234" />
<rect x="370" y="70" width="10" height="10" fill="#000234" />
<rect x="380" y="70" width="10" height="10" fill="#000234" />
<rect x="390" y="70" width="10" height="10" fill="#000234" />
<rect x="400" y="70" width="10" height="10" fill="#000234" />
<rect x="410" y="70" width="10" height="10" fill="#000234" />
<rect x="420" y="70" width="10" height="10" fill="#000234" />
<rect x="430" y="70" width="10" height="10" fill="#000234" />
<rect x="440" y="70" width="10" height="10" fill="#000234" />
<rect x="450" y="70" width="10" height="10" fill="#000234" />
<rect x="460" y="70" width="10" height="10" fill="#000234" />
<rect x="470" y="70" width="10" height="10" fill="#000234" />
<rect x="480" y="70" width="10" height="10" fill="#000234" />
<rect x="490" y="70" width="10" height="10" fill="#000234" />
<rect x="500" y="70" width="10" height="10" fill="#000234" />
<rect x="510" y="70" width="10" height="10" fill="#000234" />
<rect x="520" y="70" width="10" height="10" fill="#000234" />
<rect x="530" y="70" width="10" height="10" fill="#000234" />
<rect x="540" y="70" width="10" height="10" fill="#000234" />
<rect x="550" y="70" width="10" height="10" fill="#000234" />
<rect x="560" y="70" width="10" height="10" fill="#000234" />
<rect x="570" y="70" width="10" height="10" fill="#354279" />
<rect x="580" y="70" width="10" height="10" fill="#121E4C" />
<rect x="0" y="80" width="10" height="10" fill="#000234" />
<rect x="10" y="80" width="10" height="10" fill="#000234" />
<rect x="20" y="80" width="10" height="10" fill="#000234" />
<rect x="30" y="80" width="10" height="10" fill="#000234" />
<rect x="40" y="80" width="10" height="10" fill="#000234" />
<rect x="50" y="80" width="10" height="10" fill="#000234" />
<rect x="60" y="80" width="10" height="10" fill="#000234" />
<rect x="70" y="80" width="10" height="10" fill="#000234" />
<rect x="80" y="80" width="10" height="10" fill="#000234" />
<rect x="90" y="80" width="10" height="10" fill="#000234" />
<rect x="100" y="80" width="10" height="10" fill="#000234" />
<rect x="110" y="80" width="10" height="10" fill="#000234" />
<rect x="120" y="80" width="10" height="10" fill="#000234" />
<rect x="130" y="80" width="10" height="10" fill="#000234" />
<rect x="140" y="80" width="10" height="10" fill="#000234" />
<rect x="150" y="80" width="10" height="10" fill="#000234" />
<rect x="160" y="80" width="10" height="10" fill="#000234" />
<rect x="170" y="80" width="10" height="10" fill="#000234" />
<rect x="180" y="80" width="10" height="10" fill="#000234" />
<rect x="190" y="80" width="10" height="10" fill="#000234" />
<rect x="200" y="80" width="10" height="10" fill="#000234" />
<rect x="210" y="80" width="10" height="10" fill="#000234" />
<rect x="220" y="80" width="10" height="10" fill="#000234" />
<rect x="230" y="80" width="10" height="10" fill="#000234" />
<rect x="240" y="80" width="10" height="10" fill="#000234" />
<rect x="250" y="80" width="10" height="10" fill="#000234" />
<rect x="260" y="80" width="10" height="10" fill="#000234" />
<rect x="270" y="80" width="10" height="10" fill="#000234" />
<rect x="280" y="80" width="10" height="10" fill="#000234" />
<rect x="290" y="80" width="10" height="10" fill="#000234" />
<rect x="300" y="80" width="10" height="10" fill="#000234" />
<rect x="310" y="80" width="10" height="10" fill="#000234" />
<rect x="320" y="80" width="10" height="10" fill="#000234" />
<rect x="330" y="80" width="10" height="10" fill="#000234" />
<rect x="340" y="80" width="10" height="10" fill="#000234" />
<rect x="350" y="80" width="10" height="10" fill="#000234" />
<rect x="360" y="80" width="10" height="10" fill="#000234" />
<rect x="370" y="80" width="10" height="10" fill="#000234" />
<rect x="380" y="80" width="10" height="10" fill="#000234" />
<rect x="390" y="80" width="10" height="10" fill="#000234" />
<rect x="400" y="80" width="10" height="10" fill="#000234" />
<rect x="410" y="80" width="10" height="10" fill="#000234" />
<rect x="420" y="80" width="10" height="10" fill="#000234" />
<rect x="430" y="80" width="10" height="10" fill="#000234" />
<rect x="440" y="80" width="10" height="10" fill="#000234" />
<rect x="450" y="80" width="10" height="10" fill="#000234" />
<rect x="460" y="80" width="10" height="10" fill="#000234" />
<rect x="470" y="80" width="10" height="10" fill="#000234" />
<rect x="480" y="80" width="10" height="10" fill="#000234" />
<rect x="490" y="80" width="10" height="10" fill="#000234" />
<rect x="500" y="80" width="10" height="10" fill="#000234" />
<rect x="510" y="80" width="10" height="10" fill="#000234" />
<rect x="520" y="80" width="10" height="10" fill="#000234" />
<rect x="530" y="80" width="10" height="10" fill="#000234" />
<rect x="540" y="80" width="10" height="10" fill="#000234" />
<rect x="550" y="80" width="10" height="10" fill="#000234" />
<rect x="560" y="80" width="10" height="10" fill="#000234" />
<rect x="570" y="80" width="10" height="10" fill="#354279" />
<rect x="580" y="80" width="10" height="10" fill="#121E4C" />
<rect x="0" y="90" width="10" height="10" fill="#354279" />
<rect x="10" y="90" width="10" height="10" fill="#354279" />
<rect x="20" y="90" width="10" height="10" fill="#354279" />
<rect x="30" y="90" width="10" height="10" fill="#354279" />
<rect x="40" y="90" width="10" height="10" fill="#354279" />
<rect x="50" y="90" width="10" height="10" fill="#354279" />
<rect x="60" y="90" width="10" height="10" fill="#354279" />
<rect x="70" y="90" width="10" height="10" fill="#354279" />
<rect x="80" y="90" width="10" height="10" fill="#354279" />
<rect x="90" y="90" width="10" height="10" fill="#354279" />
<rect x="100" y="90" width="10" height="10" fill="#354279" />
<rect x="110" y="90" width="10" height="10" fill="#354279" />
<rect x="120" y="90" width="10" height="10" fill="#354279" />
<rect x="130" y="90" width="10" height="10" fill="#354279" />
<rect x="140" y="90" width="10" height="10" fill="#354279" />
<rect x="150" y="90" width="10" height="10" fill="#354279" />
<rect x="160" y="90" width="10" height="10" fill="#354279" />
<rect x="170" y="90" width="10" height="10" fill="#354279" />
<rect x="180" y="90" width="10" height="10" fill="#354279" />
<rect x="190" y="90" width="10" height="10" fill="#354279" />
<rect x="200" y="90" width="10" height="10" fill="#354279" />
<rect x="210" y="90" width="10" height="10" fill="#354279" />
<rect x="220" y="90" width="10" height="10" fill="#354279" />
<rect x="230" y="90" width="10" height="10" fill="#354279" />
<rect x="240" y="90" width="10" height="10" fill="#354279" />
<rect x="250" y="90" width="10" height="10" fill="#354279" />
<rect x="260" y="90" width="10" height="10" fill="#354279" />
<rect x="270" y="90" width="10" height="10" fill="#354279" />
<rect x="280" y="90" width="10" height="10" fill="#354279" />
<rect x="290" y="90" width="10" height="10" fill="#354279" />
<rect x="300" y="90" width="10" height="10" fill="#354279" />
<rect x="310" y="90" width="10" height="10" fill="#354279" />
<rect x="320" y="90" width="10" height="10" fill="#354279" />
<rect x="330" y="90" width="10" height="10" fill="#354279" />
<rect x="340" y="90" width="10" height="10" fill="#354279" />
<rect x="350" y="90" width="10" height="10" fill="#354279" />
<rect x="360" y="90" width="10" height="10" fill="#354279" />
<rect x="370" y="90" width="10" height="10" fill="#354279" />
<rect x="380" y="90" width="10" height="10" fill="#354279" />
<rect x="390" y="90" width="10" height="10" fill="#354279" />
<rect x="400" y="90" width="10" height="10" fill="#354279" />
<rect x="410" y="90" width="10" height="10" fill="#354279" />
<rect x="420" y="90" width="10" height="10" fill="#354279" />
<rect x="430" y="90" width="10" height="10" fill="#354279" />
<rect x="440" y="90" width="10" height="10" fill="#354279" />
<rect x="450" y="90" width="10" height="10" fill="#354279" />
<rect x="460" y="90" width="10" height="10" fill="#354279" />
<rect x="470" y="90" width="10" height="10" fill="#354279" />
<rect x="480" y="90" width="10" height="10" fill="#354279" />
<rect x="490" y="90" width="10" height="10" fill="#354279" />
<rect x="500" y="90" width="10" height="10" fill="#354279" />
<rect x="510" y="90" width="10" height="10" fill="#354279" />
<rect x="520" y="90" width="10" height="10" fill="#354279" />
<rect x="530" y="90" width="10" height="10" fill="#354279" />
<rect x="540" y="90" width="10" height="10" fill="#354279" />
<rect x="550" y="90" width="10" height="10" fill="#354279" />
<rect x="560" y="90" width="10" height="10" fill="#354279" />
<rect x="570" y="90" width="10" height="10" fill="#354279" />
<rect x="580" y="90" width="10" height="10" fill="#121E4C" />
<rect x="0" y="100" width="10" height="10" fill="#121E4C" />
<rect x="10" y="100" width="10" height="10" fill="#121E4C" />
<rect x="20" y="100" width="10" height="10" fill="#121E4C" />
<rect x="30" y="100" width="10" height="10" fill="#121E4C" />
<rect x="40" y="100" width="10" height="10" fill="#121E4C" />
<rect x="50" y="100" width="10" height="10" fill="#121E4C" />
<rect x="60" y="100" width="10" height="10" fill="#121E4C" />
<rect x="70" y="100" width="10" height="10" fill="#121E4C" />
<rect x="80" y="100" width="10" height="10" fill="#121E4C" />
<rect x="90" y="100" width="10" height="10" fill="#121E4C" />
<rect x="100" y="100" width="10" height="10" fill="#121E4C" />
<rect x="110" y="100" width="10" height="10" fill="#121E4C" />
<rect x="120" y="100" width="10" height="10" fill="#121E4C" />
<rect x="130" y="100" width="10" height="10" fill="#121E4C" />
<rect x="140" y="100" width="10" height="10" fill="#121E4C" />
<rect x="150" y="100" width="10" height="10" fill="#121E4C" />
<rect x="160" y="100" width="10" height="10" fill="#121E4C" />
<rect x="170" y="100" width="10" height="10" fill="#121E4C" />
<rect x="180" y="100" width="10" height="10" fill="#121E4C" />
<rect x="190" y="100" width="10" height="10" fill="#121E4C" />
<rect x="200" y="100" width="10" height="10" fill="#121E4C" />
<rect x="210" y="100" width="10" height="10" fill="#121E4C" />
<rect x="220" y="100" width="10" height="10" fill="#121E4C" />
<rect x="230" y="100" width="10" height="10" fill="#121E4C" />
<rect x="240" y="100" width="10" height="10" fill="#121E4C" />
<rect x="250" y="100" width="10" height="10" fill="#121E4C" />
<rect x="260" y="100" width="10" height="10" fill="#121E4C" />
<rect x="270" y="100" width="10" height="10" fill="#121E4C" />
<rect x="280" y="100" width="10" height="10" fill="#121E4C" />
<rect x="290" y="100" width="10" height="10" fill="#121E4C" />
<rect x="300" y="100" width="10" height="10" fill="#121E4C" />
<rect x="310" y="100" width="10" height="10" fill="#121E4C" />
<rect x="320" y="100" width="10" height="10" fill="#121E4C" />
<rect x="330" y="100" width="10" height="10" fill="#121E4C" />
<rect x="340" y="100" width="10" height="10" fill="#121E4C" />
<rect x="350" y="100" width="10" height="10" fill="#121E4C" />
<rect x="360" y="100" width="10" height="10" fill="#121E4C" />
<rect x="370" y="100" width="10" height="10" fill="#121E4C" />
<rect x="380" y="100" width="10" height="10" fill="#121E4C" />
<rect x="390" y="100" width="10" height="10" fill="#121E4C" />
<rect x="400" y="100" width="10" height="10" fill="#121E4C" />
<rect x="410" y="100" width="10" height="10" fill="#121E4C" />
<rect x="420" y="100" width="10" height="10" fill="#121E4C" />
<rect x="430" y="100" width="10" height="10" fill="#121E4C" />
<rect x="440" y="100" width="10" height="10" fill="#121E4C" />
<rect x="450" y="100" width="10" height="10" fill="#121E4C" />
<rect x="460" y="100" width="10" height="10" fill="#121E4C" />
<rect x="470" y="100" width="10" height="10" fill="#121E4C" />
<rect x="480" y="100" width="10" height="10" fill="#121E4C" />
<rect x="490" y="100" width="10" height="10" fill="#121E4C" />
<rect x="500" y="100" width="10" height="10" fill="#121E4C" />
<rect x="510" y="100" width="10" height="10" fill="#121E4C" />
<rect x="520" y="100" width="10" height="10" fill="#121E4C" />
<rect x="530" y="100" width="10" height="10" fill="#121E4C" />
<rect x="540" y="100" width="10" height="10" fill="#121E4C" />
<rect x="550" y="100" width="10" height="10" fill="#121E4C" />
<rect x="560" y="100" width="10" height="10" fill="#121E4C" />
<rect x="570" y="100" width="10" height="10" fill="#354279" />
<rect x="580" y="100" width="10" height="10" fill="#121E4C" />
</svg>