<?xml version="1.0" encoding="UTF-8" ?>
<svg version="1.1" width="280" height="110" xmlns="http://www.w3.org/2000/svg" shape-rendering="crispEdges">
<rect x="100" y="0" width="10" height="10" fill="#FFFFFF" />
<rect x="110" y="0" width="10" height="10" fill="#FFFFFF" />
<rect x="120" y="0" width="10" height="10" fill="#FFFFFF" />
<rect x="130" y="0" width="10" height="10" fill="#FFFFFF" />
<rect x="140" y="0" width="10" height="10" fill="#FFFFFF" />
<rect x="150" y="0" width="10" height="10" fill="#FFFFFF" />
<rect x="190" y="0" width="10" height="10" fill="#FFFFFF" />
<rect x="200" y="0" width="10" height="10" fill="#FFFFFF" />
<rect x="210" y="0" width="10" height="10" fill="#FFFFFF" />
<rect x="220" y="0" width="10" height="10" fill="#FFFFFF" />
<rect x="230" y="0" width="10" height="10" fill="#FFFFFF" />
<rect x="240" y="0" width="10" height="10" fill="#FFFFFF" />
<rect x="80" y="10" width="10" height="10" fill="#FFFFFF" />
<rect x="90" y="10" width="10" height="10" fill="#FFFFFF" />
<rect x="100" y="10" width="10" height="10" fill="#FFFFFF" />
<rect x="110" y="10" width="10" height="10" fill="#74E7FF" />
<rect x="120" y="10" width="10" height="10" fill="#74E7FF" />
<rect x="130" y="10" width="10" height="10" fill="#74E7FF" />
<rect x="140" y="10" width="10" height="10" fill="#74E7FF" />
<rect x="150" y="10" width="10" height="10" fill="#FFFFFF" />
<rect x="160" y="10" width="10" height="10" fill="#121E4C" opacity="0.741176" />
<rect x="170" y="10" width="10" height="10" fill="#FFFFFF" />
<rect x="180" y="10" width="10" height="10" fill="#FFFFFF" />
<rect x="190" y="10" width="10" height="10" fill="#FFFFFF" />
<rect x="200" y="10" width="10" height="10" fill="#74E7FF" />
<rect x="210" y="10" width="10" height="10" fill="#74E7FF" />
<rect x="220" y="10" width="10" height="10" fill="#74E7FF" />
<rect x="230" y="10" width="10" height="10" fill="#74E7FF" />
<rect x="240" y="10" width="10" height="10" fill="#FFFFFF" />
<rect x="50" y="20" width="10" height="10" fill="#121E4C" opacity="0.741176" />
<rect x="60" y="20" width="10" height="10" fill="#FFFFFF" />
<rect x="70" y="20" width="10" height="10" fill="#FFFFFF" />
<rect x="80" y="20" width="10" height="10" fill="#FFFFFF" />
<rect x="90" y="20" width="10" height="10" fill="#74E7FF" />
<rect x="100" y="20" width="10" height="10" fill="#74E7FF" />
<rect x="110" y="20" width="10" height="10" fill="#74E7FF" />
<rect x="120" y="20" width="10" height="10" fill="#FFFFFF" />
<rect x="130" y="20" width="10" height="10" fill="#FFFFFF" />
<rect x="140" y="20" width="10" height="10" fill="#74E7FF" />
<rect x="150" y="20" width="10" height="10" fill="#FFFFFF" />
<rect x="160" y="20" width="10" height="10" fill="#FFFFFF" />
<rect x="170" y="20" width="10" height="10" fill="#FFFFFF" />
<rect x="180" y="20" width="10" height="10" fill="#74E7FF" />
<rect x="190" y="20" width="10" height="10" fill="#74E7FF" />
<rect x="200" y="20" width="10" height="10" fill="#74E7FF" />
<rect x="210" y="20" width="10" height="10" fill="#FFFFFF" />
<rect x="220" y="20" width="10" height="10" fill="#FFFFFF" />
<rect x="230" y="20" width="10" height="10" fill="#74E7FF" />
<rect x="240" y="20" width="10" height="10" fill="#FFFFFF" />
<rect x="20" y="30" width="10" height="10" fill="#121E4C" opacity="0.741176" />
<rect x="30" y="30" width="10" height="10" fill="#121E4C" opacity="0.741176" />
<rect x="40" y="30" width="10" height="10" fill="#121E4C" opacity="0.741176" />
<rect x="50" y="30" width="10" height="10" fill="#121E4C" opacity="0.741176" />
<rect x="60" y="30" width="10" height="10" fill="#FFFFFF" />
<rect x="70" y="30" width="10" height="10" fill="#74E7FF" />
<rect x="80" y="30" width="10" height="10" fill="#74E7FF" />
<rect x="90" y="30" width="10" height="10" fill="#74E7FF" />
<rect x="100" y="30" width="10" height="10" fill="#74E7FF" />
<rect x="110" y="30" width="10" height="10" fill="#74E7FF" />
<rect x="120" y="30" width="10" height="10" fill="#74E7FF" />
<rect x="130" y="30" width="10" height="10" fill="#74E7FF" />
<rect x="140" y="30" width="10" height="10" fill="#74E7FF" />
<rect x="150" y="30" width="10" height="10" fill="#74E7FF" />
<rect x="160" y="30" width="10" height="10" fill="#74E7FF" />
<rect x="170" y="30" width="10" height="10" fill="#74E7FF" />
<rect x="180" y="30" width="10" height="10" fill="#74E7FF" />
<rect x="190" y="30" width="10" height="10" fill="#FFFFFF" />
<rect x="200" y="30" width="10" height="10" fill="#FFFFFF" />
<rect x="210" y="30" width="10" height="10" fill="#FFFFFF" />
<rect x="220" y="30" width="10" height="10" fill="#FFFFFF" />
<rect x="230" y="30" width="10" height="10" fill="#FFFFFF" />
<rect x="240" y="30" width="10" height="10" fill="#FFFFFF" />
<rect x="250" y="30" width="10" height="10" fill="#121E4C" opacity="0.741176" />
<rect x="10" y="40" width="10" height="10" fill="#121E4C" opacity="0.741176" />
<rect x="20" y="40" width="10" height="10" fill="#121E4C" opacity="0.741176" />
<rect x="30" y="40" width="10" height="10" fill="#121E4C" opacity="0.741176" />
<rect x="40" y="40" width="10" height="10" fill="#121E4C" opacity="0.741176" />
<rect x="50" y="40" width="10" height="10" fill="#121E4C" opacity="0.741176" />
<rect x="60" y="40" width="10" height="10" fill="#FFFFFF" />
<rect x="70" y="40" width="10" height="10" fill="#74E7FF" />
<rect x="80" y="40" width="10" height="10" fill="#121E4C" opacity="0.741176" />
<rect x="90" y="40" width="10" height="10" fill="#121E4C" opacity="0.741176" />
<rect x="100" y="40" width="10" height="10" fill="#121E4C" opacity="0.741176" />
<rect x="110" y="40" width="10" height="10" fill="#74E7FF" />
<rect x="120" y="40" width="10" height="10" fill="#FFFFFF" />
<rect x="130" y="40" width="10" height="10" fill="#74E7FF" />
<rect x="140" y="40" width="10" height="10" fill="#121E4C" opacity="0.741176" />
<rect x="150" y="40" width="10" height="10" fill="#121E4C" opacity="0.741176" />
<rect x="160" y="40" width="10" height="10" fill="#121E4C" opacity="0.741176" />
<rect x="170" y="40" width="10" height="10" fill="#74E7FF" />
<rect x="180" y="40" width="10" height="10" fill="#FFFFFF" />
<rect x="190" y="40" width="10" height="10" fill="#FFFFFF" />
<rect x="200" y="40" width="10" height="10" fill="#121E4C" opacity="0.741176" />
<rect x="210" y="40" width="10" height="10" fill="#121E4C" opacity="0.741176" />
<rect x="220" y="40" width="10" height="10" fill="#121E4C" opacity="0.741176" />
<rect x="230" y="40" width="10" height="10" fill="#121E4C" opacity="0.741176" />
<rect x="240" y="40" width="10" height="10" fill="#121E4C" opacity="0.741176" />
<rect x="250" y="40" width="10" height="10" fill="#121E4C" opacity="0.741176" />
<rect x="260" y="40" width="10" height="10" fill="#121E4C" opacity="0.741176" />
<rect x="0" y="50" width="10" height="10" fill="#121E4C" opacity="0.741176" />
<rect x="10" y="50" width="10" height="10" fill="#121E4C" opacity="0.741176" />
<rect x="20" y="50" width="10" height="10" fill="#121E4C" opacity="0.741176" />
<rect x="30" y="50" width="10" height="10" fill="#121E4C" opacity="0.741176" />
<rect x="40" y="50" width="10" height="10" fill="#121E4C" opacity="0.741176" />
<rect x="50" y="50" width="10" height="10" fill="#121E4C" opacity="0.741176" />
<rect x="60" y="50" width="10" height="10" fill="#FFFFFF" />
<rect x="70" y="50" width="10" height="10" fill="#74E7FF" />
<rect x="80" y="50" width="10" height="10" fill="#121E4C" opacity="0.741176" />
<rect x="90" y="50" width="10" height="10" fill="#121E4C" opacity="0.741176" />
<rect x="100" y="50" width="10" height="10" fill="#121E4C" opacity="0.741176" />
<rect x="110" y="50" width="10" height="10" fill="#74E7FF" />
<rect x="120" y="50" width="10" height="10" fill="#FFFFFF" />
<rect x="130" y="50" width="10" height="10" fill="#74E7FF" />
<rect x="140" y="50" width="10" height="10" fill="#121E4C" opacity="0.741176" />
<rect x="150" y="50" width="10" height="10" fill="#121E4C" opacity="0.741176" />
<rect x="160" y="50" width="10" height="10" fill="#121E4C" opacity="0.741176" />
<rect x="170" y="50" width="10" height="10" fill="#74E7FF" />
<rect x="180" y="50" width="10" height="10" fill="#FFFFFF" />
<rect x="190" y="50" width="10" height="10" fill="#121E4C" opacity="0.741176" />
<rect x="200" y="50" width="10" height="10" fill="#121E4C" opacity="0.741176" />
<rect x="210" y="50" width="10" height="10" fill="#121E4C" opacity="0.741176" />
<rect x="220" y="50" width="10" height="10" fill="#121E4C" opacity="0.741176" />
<rect x="230" y="50" width="10" height="10" fill="#121E4C" opacity="0.741176" />
<rect x="240" y="50" width="10" height="10" fill="#121E4C" opacity="0.741176" />
<rect x="250" y="50" width="10" height="10" fill="#121E4C" opacity="0.741176" />
<rect x="260" y="50" width="10" height="10" fill="#121E4C" opacity="0.741176" />
<rect x="270" y="50" width="10" height="10" fill="#121E4C" opacity="0.741176" />
<rect x="0" y="60" width="10" height="10" fill="#121E4C" opacity="0.741176" />
<rect x="10" y="60" width="10" height="10" fill="#121E4C" opacity="0.741176" />
<rect x="20" y="60" width="10" height="10" fill="#121E4C" opacity="0.741176" />
<rect x="30" y="60" width="10" height="10" fill="#121E4C" opacity="0.741176" />
<rect x="40" y="60" width="10" height="10" fill="#121E4C" opacity="0.741176" />
<rect x="50" y="60" width="10" height="10" fill="#121E4C" opacity="0.741176" />
<rect x="60" y="60" width="10" height="10" fill="#FFFFFF" />
<rect x="70" y="60" width="10" height="10" fill="#74E7FF" />
<rect x="80" y="60" width="10" height="10" fill="#121E4C" opacity="0.741176" />
<rect x="90" y="60" width="10" height="10" fill="#121E4C" opacity="0.741176" />
<rect x="100" y="60" width="10" height="10" fill="#121E4C" opacity="0.741176" />
<rect x="110" y="60" width="10" height="10" fill="#74E7FF" />
<rect x="120" y="60" width="10" height="10" fill="#FFFFFF" />
<rect x="130" y="60" width="10" height="10" fill="#74E7FF" />
<rect x="140" y="60" width="10" height="10" fill="#121E4C" opacity="0.741176" />
<rect x="150" y="60" width="10" height="10" fill="#121E4C" opacity="0.741176" />
<rect x="160" y="60" width="10" height="10" fill="#121E4C" opacity="0.741176" />
<rect x="170" y="60" width="10" height="10" fill="#74E7FF" />
<rect x="180" y="60" width="10" height="10" fill="#FFFFFF" />
<rect x="190" y="60" width="10" height="10" fill="#121E4C" opacity="0.741176" />
<rect x="200" y="60" width="10" height="10" fill="#121E4C" opacity="0.741176" />
<rect x="210" y="60" width="10" height="10" fill="#121E4C" opacity="0.741176" />
<rect x="220" y="60" width="10" height="10" fill="#121E4C" opacity="0.741176" />
<rect x="230" y="60" width="10" height="10" fill="#121E4C" opacity="0.741176" />
<rect x="240" y="60" width="10" height="10" fill="#121E4C" opacity="0.741176" />
<rect x="250" y="60" width="10" height="10" fill="#121E4C" opacity="0.741176" />
<rect x="260" y="60" width="10" height="10" fill="#121E4C" opacity="0.741176" />
<rect x="270" y="60" width="10" height="10" fill="#121E4C" opacity="0.741176" />
<rect x="10" y="70" width="10" height="10" fill="#121E4C" opacity="0.741176" />
<rect x="20" y="70" width="10" height="10" fill="#121E4C" opacity="0.741176" />
<rect x="30" y="70" width="10" height="10" fill="#121E4C" opacity="0.741176" />
<rect x="40" y="70" width="10" height="10" fill="#121E4C" opacity="0.741176" />
<rect x="50" y="70" width="10" height="10" fill="#121E4C" opacity="0.741176" />
<rect x="60" y="70" width="10" height="10" fill="#FFFFFF" />
<rect x="70" y="70" width="10" height="10" fill="#FFFFFF" />
<rect x="80" y="70" width="10" height="10" fill="#74E7FF" />
<rect x="90" y="70" width="10" height="10" fill="#74E7FF" />
<rect x="100" y="70" width="10" height="10" fill="#74E7FF" />
<rect x="110" y="70" width="10" height="10" fill="#74E7FF" />
<rect x="120" y="70" width="10" height="10" fill="#FFFFFF" />
<rect x="130" y="70" width="10" height="10" fill="#74E7FF" />
<rect x="140" y="70" width="10" height="10" fill="#74E7FF" />
<rect x="150" y="70" width="10" height="10" fill="#74E7FF" />
<rect x="160" y="70" width="10" height="10" fill="#74E7FF" />
<rect x="170" y="70" width="10" height="10" fill="#FFFFFF" />
<rect x="180" y="70" width="10" height="10" fill="#FFFFFF" />
<rect x="190" y="70" width="10" height="10" fill="#121E4C" opacity="0.741176" />
<rect x="200" y="70" width="10" height="10" fill="#121E4C" opacity="0.741176" />
<rect x="210" y="70" width="10" height="10" fill="#121E4C" opacity="0.741176" />
<rect x="220" y="70" width="10" height="10" fill="#121E4C" opacity="0.741176" />
<rect x="230" y="70" width="10" height="10" fill="#121E4C" opacity="0.741176" />
<rect x="240" y="70" width="10" height="10" fill="#121E4C" opacity="0.741176" />
<rect x="250" y="70" width="10" height="10" fill="#121E4C" opacity="0.741176" />
<rect x="260" y="70" width="10" height="10" fill="#121E4C" opacity="0.741176" />
<rect x="20" y="80" width="10" height="10" fill="#121E4C" opacity="0.741176" />
<rect x="30" y="80" width="10" height="10" fill="#121E4C" opacity="0.741176" />
<rect x="40" y="80" width="10" height="10" fill="#121E4C" opacity="0.741176" />
<rect x="50" y="80" width="10" height="10" fill="#121E4C" opacity="0.741176" />
<rect x="60" y="80" width="10" height="10" fill="#121E4C" opacity="0.741176" />
<rect x="70" y="80" width="10" height="10" fill="#FFFFFF" />
<rect x="80" y="80" width="10" height="10" fill="#FFFFFF" />
<rect x="90" y="80" width="10" height="10" fill="#FFFFFF" />
<rect x="100" y="80" width="10" height="10" fill="#FFFFFF" />
<rect x="110" y="80" width="10" height="10" fill="#FFFFFF" />
<rect x="120" y="80" width="10" height="10" fill="#FFFFFF" />
<rect x="130" y="80" width="10" height="10" fill="#FFFFFF" />
<rect x="140" y="80" width="10" height="10" fill="#FFFFFF" />
<rect x="150" y="80" width="10" height="10" fill="#FFFFFF" />
<rect x="160" y="80" width="10" height="10" fill="#FFFFFF" />
<rect x="170" y="80" width="10" height="10" fill="#FFFFFF" />
<rect x="180" y="80" width="10" height="10" fill="#121E4C" opacity="0.741176" />
<rect x="190" y="80" width="10" height="10" fill="#121E4C" opacity="0.741176" />
<rect x="200" y="80" width="10" height="10" fill="#121E4C" opacity="0.741176" />
<rect x="210" y="80" width="10" height="10" fill="#121E4C" opacity="0.741176" />
<rect x="220" y="80" width="10" height="10" fill="#121E4C" opacity="0.741176" />
<rect x="230" y="80" width="10" height="10" fill="#121E4C" opacity="0.741176" />
<rect x="240" y="80" width="10" height="10" fill="#121E4C" opacity="0.741176" />
<rect x="250" y="80" width="10" height="10" fill="#121E4C" opacity="0.741176" />
<rect x="50" y="90" width="10" height="10" fill="#121E4C" opacity="0.741176" />
<rect x="60" y="90" width="10" height="10" fill="#121E4C" opacity="0.741176" />
<rect x="70" y="90" width="10" height="10" fill="#121E4C" opacity="0.741176" />
<rect x="80" y="90" width="10" height="10" fill="#121E4C" opacity="0.741176" />
<rect x="90" y="90" width="10" height="10" fill="#121E4C" opacity="0.741176" />
<rect x="100" y="90" width="10" height="10" fill="#121E4C" opacity="0.741176" />
<rect x="110" y="90" width="10" height="10" fill="#121E4C" opacity="0.741176" />
<rect x="120" y="90" width="10" height="10" fill="#121E4C" opacity="0.741176" />
<rect x="130" y="90" width="10" height="10" fill="#121E4C" opacity="0.741176" />
<rect x="140" y="90" width="10" height="10" fill="#121E4C" opacity="0.741176" />
<rect x="150" y="90" width="10" height="10" fill="#121E4C" opacity="0.741176" />
<rect x="160" y="90" width="10" height="10" fill="#121E4C" opacity="0.741176" />
<rect x="170" y="90" width="10" height="10" fill="#121E4C" opacity="0.741176" />
<rect x="180" y="90" width="10" height="10" fill="#121E4C" opacity="0.741176" />
<rect x="190" y="90" width="10" height="10" fill="#121E4C" opacity="0.741176" />
<rect x="200" y="90" width="10" height="10" fill="#121E4C" opacity="0.741176" />
<rect x="210" y="90" width="10" height="10" fill="#121E4C" opacity="0.741176" />
<rect x="220" y="90" width="10" height="10" fill="#121E4C" opacity="0.741176" />
<rect x="90" y="100" width="10" height="10" fill="#121E4C" opacity="0.741176" />
<rect x="100" y="100" width="10" height="10" fill="#121E4C" opacity="0.741176" />
<rect x="110" y="100" width="10" height="10" fill="#121E4C" opacity="0.741176" />
<rect x="120" y="100" width="10" height="10" fill="#121E4C" opacity="0.741176" />
<rect x="130" y="100" width="10" height="10" fill="#121E4C" opacity="0.741176" />
<rect x="140" y="100" width="10" height="10" fill="#121E4C" opacity="0.741176" />
<rect x="150" y="100" width="10" height="10" fill="#121E4C" opacity="0.741176" />
<rect x="160" y="100" width="10" height="10" fill="#121E4C" opacity="0.741176" />
<rect x="170" y="100" width="10" height="10" fill="#121E4C" opacity="0.741176" />
<rect x="180" y="100" width="10" height="10" fill="#121E4C" opacity="0.741176" />
</svg>