<?xml version="1.0" encoding="UTF-8" ?>
<svg version="1.1" width="170" height="70" xmlns="http://www.w3.org/2000/svg" shape-rendering="crispEdges">
<rect x="40" y="0" width="10" height="10" fill="#74E7FF" />
<rect x="50" y="0" width="10" height="10" fill="#74E7FF" />
<rect x="60" y="0" width="10" height="10" fill="#74E7FF" />
<rect x="70" y="0" width="10" height="10" fill="#74E7FF" />
<rect x="130" y="0" width="10" height="10" fill="#74E7FF" />
<rect x="140" y="0" width="10" height="10" fill="#74E7FF" />
<rect x="150" y="0" width="10" height="10" fill="#74E7FF" />
<rect x="160" y="0" width="10" height="10" fill="#74E7FF" />
<rect x="20" y="10" width="10" height="10" fill="#74E7FF" />
<rect x="30" y="10" width="10" height="10" fill="#74E7FF" />
<rect x="40" y="10" width="10" height="10" fill="#74E7FF" />
<rect x="70" y="10" width="10" height="10" fill="#74E7FF" />
<rect x="110" y="10" width="10" height="10" fill="#74E7FF" />
<rect x="120" y="10" width="10" height="10" fill="#74E7FF" />
<rect x="130" y="10" width="10" height="10" fill="#74E7FF" />
<rect x="160" y="10" width="10" height="10" fill="#74E7FF" />
<rect x="0" y="20" width="10" height="10" fill="#74E7FF" />
<rect x="10" y="20" width="10" height="10" fill="#74E7FF" />
<rect x="20" y="20" width="10" height="10" fill="#74E7FF" />
<rect x="30" y="20" width="10" height="10" fill="#74E7FF" />
<rect x="40" y="20" width="10" height="10" fill="#74E7FF" />
<rect x="50" y="20" width="10" height="10" fill="#74E7FF" />
<rect x="60" y="20" width="10" height="10" fill="#74E7FF" />
<rect x="70" y="20" width="10" height="10" fill="#74E7FF" />
<rect x="80" y="20" width="10" height="10" fill="#74E7FF" />
<rect x="90" y="20" width="10" height="10" fill="#74E7FF" />
<rect x="100" y="20" width="10" height="10" fill="#74E7FF" />
<rect x="110" y="20" width="10" height="10" fill="#74E7FF" />
<rect x="0" y="30" width="10" height="10" fill="#74E7FF" />
<rect x="40" y="30" width="10" height="10" fill="#74E7FF" />
<rect x="60" y="30" width="10" height="10" fill="#74E7FF" />
<rect x="100" y="30" width="10" height="10" fill="#74E7FF" />
<rect x="0" y="40" width="10" height="10" fill="#74E7FF" />
<rect x="40" y="40" width="10" height="10" fill="#74E7FF" />
<rect x="60" y="40" width="10" height="10" fill="#74E7FF" />
<rect x="100" y="40" width="10" height="10" fill="#74E7FF" />
<rect x="0" y="50" width="10" height="10" fill="#74E7FF" />
<rect x="40" y="50" width="10" height="10" fill="#74E7FF" />
<rect x="60" y="50" width="10" height="10" fill="#74E7FF" />
<rect x="100" y="50" width="10" height="10" fill="#74E7FF" />
<rect x="10" y="60" width="10" height="10" fill="#74E7FF" />
<rect x="20" y="60" width="10" height="10" fill="#74E7FF" />
<rect x="30" y="60" width="10" height="10" fill="#74E7FF" />
<rect x="40" y="60" width="10" height="10" fill="#74E7FF" />
<rect x="60" y="60" width="10" height="10" fill="#74E7FF" />
<rect x="70" y="60" width="10" height="10" fill="#74E7FF" />
<rect x="80" y="60" width="10" height="10" fill="#74E7FF" />
<rect x="90" y="60" width="10" height="10" fill="#74E7FF" />
</svg>