<?xml version="1.0" encoding="UTF-8" ?>
<svg version="1.1" width="290" height="70" xmlns="http://www.w3.org/2000/svg" shape-rendering="crispEdges">
<rect x="0" y="0" width="10" height="10" fill="#5B6EE1" />
<rect x="10" y="0" width="10" height="10" fill="#5B6EE1" />
<rect x="20" y="0" width="10" height="10" fill="#5B6EE1" />
<rect x="30" y="0" width="10" height="10" fill="#5B6EE1" />
<rect x="40" y="0" width="10" height="10" fill="#354279" />
<rect x="50" y="0" width="10" height="10" fill="#354279" />
<rect x="60" y="0" width="10" height="10" fill="#354279" />
<rect x="70" y="0" width="10" height="10" fill="#354279" />
<rect x="80" y="0" width="10" height="10" fill="#354279" />
<rect x="90" y="0" width="10" height="10" fill="#354279" />
<rect x="100" y="0" width="10" height="10" fill="#354279" />
<rect x="110" y="0" width="10" height="10" fill="#354279" />
<rect x="120" y="0" width="10" height="10" fill="#354279" />
<rect x="130" y="0" width="10" height="10" fill="#354279" />
<rect x="140" y="0" width="10" height="10" fill="#354279" />
<rect x="150" y="0" width="10" height="10" fill="#354279" />
<rect x="160" y="0" width="10" height="10" fill="#354279" />
<rect x="170" y="0" width="10" height="10" fill="#354279" />
<rect x="180" y="0" width="10" height="10" fill="#354279" />
<rect x="190" y="0" width="10" height="10" fill="#354279" />
<rect x="200" y="0" width="10" height="10" fill="#354279" />
<rect x="210" y="0" width="10" height="10" fill="#354279" />
<rect x="220" y="0" width="10" height="10" fill="#354279" />
<rect x="230" y="0" width="10" height="10" fill="#354279" />
<rect x="240" y="0" width="10" height="10" fill="#354279" />
<rect x="250" y="0" width="10" height="10" fill="#354279" />
<rect x="260" y="0" width="10" height="10" fill="#354279" />
<rect x="270" y="0" width="10" height="10" fill="#354279" />
<rect x="280" y="0" width="10" height="10" fill="#354279" />
<rect x="0" y="10" width="10" height="10" fill="#5B6EE1" />
<rect x="10" y="10" width="10" height="10" fill="#121E4C" />
<rect x="20" y="10" width="10" height="10" fill="#121E4C" />
<rect x="30" y="10" width="10" height="10" fill="#121E4C" />
<rect x="40" y="10" width="10" height="10" fill="#121E4C" />
<rect x="50" y="10" width="10" height="10" fill="#121E4C" />
<rect x="60" y="10" width="10" height="10" fill="#121E4C" />
<rect x="70" y="10" width="10" height="10" fill="#121E4C" />
<rect x="80" y="10" width="10" height="10" fill="#121E4C" />
<rect x="90" y="10" width="10" height="10" fill="#121E4C" />
<rect x="100" y="10" width="10" height="10" fill="#121E4C" />
<rect x="110" y="10" width="10" height="10" fill="#121E4C" />
<rect x="120" y="10" width="10" height="10" fill="#121E4C" />
<rect x="130" y="10" width="10" height="10" fill="#121E4C" />
<rect x="140" y="10" width="10" height="10" fill="#121E4C" />
<rect x="150" y="10" width="10" height="10" fill="#121E4C" />
<rect x="160" y="10" width="10" height="10" fill="#121E4C" />
<rect x="170" y="10" width="10" height="10" fill="#121E4C" />
<rect x="180" y="10" width="10" height="10" fill="#121E4C" />
<rect x="190" y="10" width="10" height="10" fill="#121E4C" />
<rect x="200" y="10" width="10" height="10" fill="#121E4C" />
<rect x="210" y="10" width="10" height="10" fill="#121E4C" />
<rect x="220" y="10" width="10" height="10" fill="#121E4C" />
<rect x="230" y="10" width="10" height="10" fill="#121E4C" />
<rect x="240" y="10" width="10" height="10" fill="#121E4C" />
<rect x="250" y="10" width="10" height="10" fill="#121E4C" />
<rect x="260" y="10" width="10" height="10" fill="#121E4C" />
<rect x="270" y="10" width="10" height="10" fill="#121E4C" />
<rect x="280" y="10" width="10" height="10" fill="#121E4C" />
<rect x="0" y="20" width="10" height="10" fill="#5B6EE1" />
<rect x="10" y="20" width="10" height="10" fill="#121E4C" />
<rect x="20" y="20" width="10" height="10" fill="#8A4100" />
<rect x="30" y="20" width="10" height="10" fill="#8A4100" />
<rect x="40" y="20" width="10" height="10" fill="#9E4A00" />
<rect x="50" y="20" width="10" height="10" fill="#9E4A00" />
<rect x="60" y="20" width="10" height="10" fill="#B85600" />
<rect x="70" y="20" width="10" height="10" fill="#B85600" />
<rect x="80" y="20" width="10" height="10" fill="#D66400" />
<rect x="90" y="20" width="10" height="10" fill="#D66400" />
<rect x="100" y="20" width="10" height="10" fill="#F6883C" />
<rect x="110" y="20" width="10" height="10" fill="#FFB27C" />
<rect x="120" y="20" width="10" height="10" fill="#FCD7BE" />
<rect x="130" y="20" width="10" height="10" fill="#FFFFFF" />
<rect x="140" y="20" width="10" height="10" fill="#FFFFFF" />
<rect x="150" y="20" width="10" height="10" fill="#FFFFFF" />
<rect x="160" y="20" width="10" height="10" fill="#FCD7BE" />
<rect x="170" y="20" width="10" height="10" fill="#FFB27C" />
<rect x="180" y="20" width="10" height="10" fill="#F6883C" />
<rect x="190" y="20" width="10" height="10" fill="#D66400" />
<rect x="200" y="20" width="10" height="10" fill="#D66400" />
<rect x="210" y="20" width="10" height="10" fill="#B85600" />
<rect x="220" y="20" width="10" height="10" fill="#B85600" />
<rect x="230" y="20" width="10" height="10" fill="#9E4A00" />
<rect x="240" y="20" width="10" height="10" fill="#9E4A00" />
<rect x="250" y="20" width="10" height="10" fill="#8A4100" />
<rect x="260" y="20" width="10" height="10" fill="#8A4100" />
<rect x="270" y="20" width="10" height="10" fill="#354279" />
<rect x="280" y="20" width="10" height="10" fill="#121E4C" />
<rect x="0" y="30" width="10" height="10" fill="#5B6EE1" />
<rect x="10" y="30" width="10" height="10" fill="#121E4C" />
<rect x="20" y="30" width="10" height="10" fill="#8A4100" />
<rect x="30" y="30" width="10" height="10" fill="#8A4100" />
<rect x="40" y="30" width="10" height="10" fill="#9E4A00" />
<rect x="50" y="30" width="10" height="10" fill="#9E4A00" />
<rect x="60" y="30" width="10" height="10" fill="#B85600" />
<rect x="70" y="30" width="10" height="10" fill="#B85600" />
<rect x="80" y="30" width="10" height="10" fill="#D66400" />
<rect x="90" y="30" width="10" height="10" fill="#D66400" />
<rect x="100" y="30" width="10" height="10" fill="#F6883C" />
<rect x="110" y="30" width="10" height="10" fill="#FFB27C" />
<rect x="120" y="30" width="10" height="10" fill="#FCD7BE" />
<rect x="130" y="30" width="10" height="10" fill="#FFFFFF" />
<rect x="140" y="30" width="10" height="10" fill="#FFFFFF" />
<rect x="150" y="30" width="10" height="10" fill="#FFFFFF" />
<rect x="160" y="30" width="10" height="10" fill="#FCD7BE" />
<rect x="170" y="30" width="10" height="10" fill="#FFB27C" />
<rect x="180" y="30" width="10" height="10" fill="#F6883C" />
<rect x="190" y="30" width="10" height="10" fill="#D66400" />
<rect x="200" y="30" width="10" height="10" fill="#D66400" />
<rect x="210" y="30" width="10" height="10" fill="#B85600" />
<rect x="220" y="30" width="10" height="10" fill="#B85600" />
<rect x="230" y="30" width="10" height="10" fill="#9E4A00" />
<rect x="240" y="30" width="10" height="10" fill="#9E4A00" />
<rect x="250" y="30" width="10" height="10" fill="#8A4100" />
<rect x="260" y="30" width="10" height="10" fill="#8A4100" />
<rect x="270" y="30" width="10" height="10" fill="#5B6EE1" />
<rect x="280" y="30" width="10" height="10" fill="#121E4C" />
<rect x="0" y="40" width="10" height="10" fill="#354279" />
<rect x="10" y="40" width="10" height="10" fill="#121E4C" />
<rect x="20" y="40" width="10" height="10" fill="#8A4100" />
<rect x="30" y="40" width="10" height="10" fill="#8A4100" />
<rect x="40" y="40" width="10" height="10" fill="#9E4A00" />
<rect x="50" y="40" width="10" height="10" fill="#9E4A00" />
<rect x="60" y="40" width="10" height="10" fill="#B85600" />
<rect x="70" y="40" width="10" height="10" fill="#B85600" />
<rect x="80" y="40" width="10" height="10" fill="#D66400" />
<rect x="90" y="40" width="10" height="10" fill="#D66400" />
<rect x="100" y="40" width="10" height="10" fill="#F6883C" />
<rect x="110" y="40" width="10" height="10" fill="#FFB27C" />
<rect x="120" y="40" width="10" height="10" fill="#FCD7BE" />
<rect x="130" y="40" width="10" height="10" fill="#FFFFFF" />
<rect x="140" y="40" width="10" height="10" fill="#FFFFFF" />
<rect x="150" y="40" width="10" height="10" fill="#FFFFFF" />
<rect x="160" y="40" width="10" height="10" fill="#FCD7BE" />
<rect x="170" y="40" width="10" height="10" fill="#FFB27C" />
<rect x="180" y="40" width="10" height="10" fill="#F6883C" />
<rect x="190" y="40" width="10" height="10" fill="#D66400" />
<rect x="200" y="40" width="10" height="10" fill="#D66400" />
<rect x="210" y="40" width="10" height="10" fill="#B85600" />
<rect x="220" y="40" width="10" height="10" fill="#B85600" />
<rect x="230" y="40" width="10" height="10" fill="#9E4A00" />
<rect x="240" y="40" width="10" height="10" fill="#9E4A00" />
<rect x="250" y="40" width="10" height="10" fill="#8A4100" />
<rect x="260" y="40" width="10" height="10" fill="#8A4100" />
<rect x="270" y="40" width="10" height="10" fill="#5B6EE1" />
<rect x="280" y="40" width="10" height="10" fill="#121E4C" />
<rect x="0" y="50" width="10" height="10" fill="#5B6EE1" />
<rect x="10" y="50" width="10" height="10" fill="#121E4C" />
<rect x="20" y="50" width="10" height="10" fill="#354279" />
<rect x="30" y="50" width="10" height="10" fill="#354279" />
<rect x="40" y="50" width="10" height="10" fill="#354279" />
<rect x="50" y="50" width="10" height="10" fill="#354279" />
<rect x="60" y="50" width="10" height="10" fill="#354279" />
<rect x="70" y="50" width="10" height="10" fill="#354279" />
<rect x="80" y="50" width="10" height="10" fill="#354279" />
<rect x="90" y="50" width="10" height="10" fill="#354279" />
<rect x="100" y="50" width="10" height="10" fill="#354279" />
<rect x="110" y="50" width="10" height="10" fill="#354279" />
<rect x="120" y="50" width="10" height="10" fill="#354279" />
<rect x="130" y="50" width="10" height="10" fill="#354279" />
<rect x="140" y="50" width="10" height="10" fill="#354279" />
<rect x="150" y="50" width="10" height="10" fill="#354279" />
<rect x="160" y="50" width="10" height="10" fill="#354279" />
<rect x="170" y="50" width="10" height="10" fill="#354279" />
<rect x="180" y="50" width="10" height="10" fill="#5B6EE1" />
<rect x="190" y="50" width="10" height="10" fill="#5B6EE1" />
<rect x="200" y="50" width="10" height="10" fill="#5B6EE1" />
<rect x="210" y="50" width="10" height="10" fill="#354279" />
<rect x="220" y="50" width="10" height="10" fill="#354279" />
<rect x="230" y="50" width="10" height="10" fill="#5B6EE1" />
<rect x="240" y="50" width="10" height="10" fill="#5B6EE1" />
<rect x="250" y="50" width="10" height="10" fill="#5B6EE1" />
<rect x="260" y="50" width="10" height="10" fill="#5B6EE1" />
<rect x="270" y="50" width="10" height="10" fill="#5B6EE1" />
<rect x="280" y="50" width="10" height="10" fill="#121E4C" />
<rect x="0" y="60" width="10" height="10" fill="#5B6EE1" />
<rect x="10" y="60" width="10" height="10" fill="#121E4C" />
<rect x="20" y="60" width="10" height="10" fill="#121E4C" />
<rect x="30" y="60" width="10" height="10" fill="#121E4C" />
<rect x="40" y="60" width="10" height="10" fill="#121E4C" />
<rect x="50" y="60" width="10" height="10" fill="#121E4C" />
<rect x="60" y="60" width="10" height="10" fill="#121E4C" />
<rect x="70" y="60" width="10" height="10" fill="#121E4C" />
<rect x="80" y="60" width="10" height="10" fill="#121E4C" />
<rect x="90" y="60" width="10" height="10" fill="#121E4C" />
<rect x="100" y="60" width="10" height="10" fill="#121E4C" />
<rect x="110" y="60" width="10" height="10" fill="#121E4C" />
<rect x="120" y="60" width="10" height="10" fill="#121E4C" />
<rect x="130" y="60" width="10" height="10" fill="#121E4C" />
<rect x="140" y="60" width="10" height="10" fill="#121E4C" />
<rect x="150" y="60" width="10" height="10" fill="#121E4C" />
<rect x="160" y="60" width="10" height="10" fill="#121E4C" />
<rect x="170" y="60" width="10" height="10" fill="#121E4C" />
<rect x="180" y="60" width="10" height="10" fill="#121E4C" />
<rect x="190" y="60" width="10" height="10" fill="#121E4C" />
<rect x="200" y="60" width="10" height="10" fill="#121E4C" />
<rect x="210" y="60" width="10" height="10" fill="#121E4C" />
<rect x="220" y="60" width="10" height="10" fill="#121E4C" />
<rect x="230" y="60" width="10" height="10" fill="#121E4C" />
<rect x="240" y="60" width="10" height="10" fill="#121E4C" />
<rect x="250" y="60" width="10" height="10" fill="#121E4C" />
<rect x="260" y="60" width="10" height="10" fill="#121E4C" />
<rect x="270" y="60" width="10" height="10" fill="#121E4C" />
<rect x="280" y="60" width="10" height="10" fill="#121E4C" />
</svg>