<?xml version="1.0" encoding="UTF-8" ?>
<svg version="1.1" width="400" height="160" xmlns="http://www.w3.org/2000/svg" shape-rendering="crispEdges">
<rect x="310" y="0" width="10" height="10" fill="#FFFFFF" />
<rect x="310" y="10" width="10" height="10" fill="#FFFFFF" />
<rect x="0" y="20" width="10" height="10" fill="#FFFFFF" />
<rect x="50" y="20" width="10" height="10" fill="#FFFFFF" />
<rect x="310" y="20" width="10" height="10" fill="#FFFFFF" />
<rect x="0" y="30" width="10" height="10" fill="#FFFFFF" />
<rect x="50" y="30" width="10" height="10" fill="#FFFFFF" />
<rect x="310" y="30" width="10" height="10" fill="#FFFFFF" />
<rect x="0" y="40" width="10" height="10" fill="#FFFFFF" />
<rect x="50" y="40" width="10" height="10" fill="#FFFFFF" />
<rect x="300" y="40" width="10" height="10" fill="#FFFFFF" />
<rect x="0" y="50" width="10" height="10" fill="#FFFFFF" />
<rect x="50" y="50" width="10" height="10" fill="#FFFFFF" />
<rect x="300" y="50" width="10" height="10" fill="#FFFFFF" />
<rect x="0" y="60" width="10" height="10" fill="#FFFFFF" />
<rect x="50" y="60" width="10" height="10" fill="#FFFFFF" />
<rect x="300" y="60" width="10" height="10" fill="#FFFFFF" />
<rect x="350" y="60" width="10" height="10" fill="#FFFFFF" />
<rect x="360" y="60" width="10" height="10" fill="#FFFFFF" />
<rect x="370" y="60" width="10" height="10" fill="#FFFFFF" />
<rect x="0" y="70" width="10" height="10" fill="#FFFFFF" />
<rect x="50" y="70" width="10" height="10" fill="#FFFFFF" />
<rect x="110" y="70" width="10" height="10" fill="#FFFFFF" />
<rect x="120" y="70" width="10" height="10" fill="#FFFFFF" />
<rect x="130" y="70" width="10" height="10" fill="#FFFFFF" />
<rect x="160" y="70" width="10" height="10" fill="#FFFFFF" />
<rect x="300" y="70" width="10" height="10" fill="#FFFFFF" />
<rect x="350" y="70" width="10" height="10" fill="#FFFFFF" />
<rect x="370" y="70" width="10" height="10" fill="#FFFFFF" />
<rect x="380" y="70" width="10" height="10" fill="#FFFFFF" />
<rect x="0" y="80" width="10" height="10" fill="#FFFFFF" />
<rect x="30" y="80" width="10" height="10" fill="#FFFFFF" />
<rect x="40" y="80" width="10" height="10" fill="#FFFFFF" />
<rect x="50" y="80" width="10" height="10" fill="#FFFFFF" />
<rect x="100" y="80" width="10" height="10" fill="#FFFFFF" />
<rect x="110" y="80" width="10" height="10" fill="#FFFFFF" />
<rect x="130" y="80" width="10" height="10" fill="#FFFFFF" />
<rect x="140" y="80" width="10" height="10" fill="#FFFFFF" />
<rect x="170" y="80" width="10" height="10" fill="#FFFFFF" />
<rect x="210" y="80" width="10" height="10" fill="#FFFFFF" />
<rect x="220" y="80" width="10" height="10" fill="#FFFFFF" />
<rect x="280" y="80" width="10" height="10" fill="#FFFFFF" />
<rect x="300" y="80" width="10" height="10" fill="#FFFFFF" />
<rect x="320" y="80" width="10" height="10" fill="#FFFFFF" />
<rect x="330" y="80" width="10" height="10" fill="#FFFFFF" />
<rect x="340" y="80" width="10" height="10" fill="#FFFFFF" />
<rect x="380" y="80" width="10" height="10" fill="#FFFFFF" />
<rect x="390" y="80" width="10" height="10" fill="#FFFFFF" />
<rect x="0" y="90" width="10" height="10" fill="#FFFFFF" />
<rect x="10" y="90" width="10" height="10" fill="#FFFFFF" />
<rect x="20" y="90" width="10" height="10" fill="#FFFFFF" />
<rect x="30" y="90" width="10" height="10" fill="#FFFFFF" />
<rect x="50" y="90" width="10" height="10" fill="#FFFFFF" />
<rect x="90" y="90" width="10" height="10" fill="#FFFFFF" />
<rect x="140" y="90" width="10" height="10" fill="#FFFFFF" />
<rect x="170" y="90" width="10" height="10" fill="#FFFFFF" />
<rect x="190" y="90" width="10" height="10" fill="#FFFFFF" />
<rect x="210" y="90" width="10" height="10" fill="#FFFFFF" />
<rect x="290" y="90" width="10" height="10" fill="#FFFFFF" />
<rect x="300" y="90" width="10" height="10" fill="#FFFFFF" />
<rect x="310" y="90" width="10" height="10" fill="#FFFFFF" />
<rect x="320" y="90" width="10" height="10" fill="#FFFFFF" />
<rect x="340" y="90" width="10" height="10" fill="#FFFFFF" />
<rect x="350" y="90" width="10" height="10" fill="#FFFFFF" />
<rect x="390" y="90" width="10" height="10" fill="#FFFFFF" />
<rect x="0" y="100" width="10" height="10" fill="#FFFFFF" />
<rect x="50" y="100" width="10" height="10" fill="#FFFFFF" />
<rect x="90" y="100" width="10" height="10" fill="#FFFFFF" />
<rect x="140" y="100" width="10" height="10" fill="#FFFFFF" />
<rect x="170" y="100" width="10" height="10" fill="#FFFFFF" />
<rect x="190" y="100" width="10" height="10" fill="#FFFFFF" />
<rect x="210" y="100" width="10" height="10" fill="#FFFFFF" />
<rect x="300" y="100" width="10" height="10" fill="#FFFFFF" />
<rect x="330" y="100" width="10" height="10" fill="#FFFFFF" />
<rect x="350" y="100" width="10" height="10" fill="#FFFFFF" />
<rect x="390" y="100" width="10" height="10" fill="#FFFFFF" />
<rect x="0" y="110" width="10" height="10" fill="#FFFFFF" />
<rect x="50" y="110" width="10" height="10" fill="#FFFFFF" />
<rect x="90" y="110" width="10" height="10" fill="#FFFFFF" />
<rect x="130" y="110" width="10" height="10" fill="#FFFFFF" />
<rect x="140" y="110" width="10" height="10" fill="#FFFFFF" />
<rect x="170" y="110" width="10" height="10" fill="#FFFFFF" />
<rect x="180" y="110" width="10" height="10" fill="#FFFFFF" />
<rect x="190" y="110" width="10" height="10" fill="#FFFFFF" />
<rect x="210" y="110" width="10" height="10" fill="#FFFFFF" />
<rect x="300" y="110" width="10" height="10" fill="#FFFFFF" />
<rect x="310" y="110" width="10" height="10" fill="#FFFFFF" />
<rect x="330" y="110" width="10" height="10" fill="#FFFFFF" />
<rect x="350" y="110" width="10" height="10" fill="#FFFFFF" />
<rect x="360" y="110" width="10" height="10" fill="#FFFFFF" />
<rect x="380" y="110" width="10" height="10" fill="#FFFFFF" />
<rect x="390" y="110" width="10" height="10" fill="#FFFFFF" />
<rect x="0" y="120" width="10" height="10" fill="#FFFFFF" />
<rect x="50" y="120" width="10" height="10" fill="#FFFFFF" />
<rect x="90" y="120" width="10" height="10" fill="#FFFFFF" />
<rect x="130" y="120" width="10" height="10" fill="#FFFFFF" />
<rect x="170" y="120" width="10" height="10" fill="#FFFFFF" />
<rect x="180" y="120" width="10" height="10" fill="#FFFFFF" />
<rect x="190" y="120" width="10" height="10" fill="#FFFFFF" />
<rect x="200" y="120" width="10" height="10" fill="#FFFFFF" />
<rect x="210" y="120" width="10" height="10" fill="#FFFFFF" />
<rect x="310" y="120" width="10" height="10" fill="#FFFFFF" />
<rect x="330" y="120" width="10" height="10" fill="#FFFFFF" />
<rect x="360" y="120" width="10" height="10" fill="#FFFFFF" />
<rect x="370" y="120" width="10" height="10" fill="#FFFFFF" />
<rect x="380" y="120" width="10" height="10" fill="#FFFFFF" />
<rect x="0" y="130" width="10" height="10" fill="#FFFFFF" />
<rect x="50" y="130" width="10" height="10" fill="#FFFFFF" />
<rect x="100" y="130" width="10" height="10" fill="#FFFFFF" />
<rect x="110" y="130" width="10" height="10" fill="#FFFFFF" />
<rect x="120" y="130" width="10" height="10" fill="#FFFFFF" />
<rect x="130" y="130" width="10" height="10" fill="#FFFFFF" />
<rect x="180" y="130" width="10" height="10" fill="#FFFFFF" />
<rect x="200" y="130" width="10" height="10" fill="#FFFFFF" />
<rect x="310" y="130" width="10" height="10" fill="#FFFFFF" />
<rect x="320" y="130" width="10" height="10" fill="#FFFFFF" />
<rect x="0" y="140" width="10" height="10" fill="#FFFFFF" />
<rect x="0" y="150" width="10" height="10" fill="#FFFFFF" />
</svg>