<?xml version="1.0" encoding="UTF-8" ?>
<svg version="1.1" width="720" height="210" xmlns="http://www.w3.org/2000/svg" shape-rendering="crispEdges">
<rect x="360" y="0" width="10" height="10" fill="#FFFFFF" />
<rect x="580" y="0" width="10" height="10" fill="#FFFFFF" />
<rect x="590" y="0" width="10" height="10" fill="#FFFFFF" />
<rect x="600" y="0" width="10" height="10" fill="#FFFFFF" />
<rect x="610" y="0" width="10" height="10" fill="#FFFFFF" />
<rect x="360" y="10" width="10" height="10" fill="#FFFFFF" />
<rect x="570" y="10" width="10" height="10" fill="#FFFFFF" />
<rect x="610" y="10" width="10" height="10" fill="#FFFFFF" />
<rect x="620" y="10" width="10" height="10" fill="#FFFFFF" />
<rect x="50" y="20" width="10" height="10" fill="#FFFFFF" />
<rect x="100" y="20" width="10" height="10" fill="#FFFFFF" />
<rect x="360" y="20" width="10" height="10" fill="#FFFFFF" />
<rect x="620" y="20" width="10" height="10" fill="#FFFFFF" />
<rect x="680" y="20" width="10" height="10" fill="#FFFFFF" />
<rect x="690" y="20" width="10" height="10" fill="#FFFFFF" />
<rect x="700" y="20" width="10" height="10" fill="#FFFFFF" />
<rect x="710" y="20" width="10" height="10" fill="#FFFFFF" />
<rect x="50" y="30" width="10" height="10" fill="#FFFFFF" />
<rect x="100" y="30" width="10" height="10" fill="#FFFFFF" />
<rect x="360" y="30" width="10" height="10" fill="#FFFFFF" />
<rect x="610" y="30" width="10" height="10" fill="#FFFFFF" />
<rect x="620" y="30" width="10" height="10" fill="#FFFFFF" />
<rect x="670" y="30" width="10" height="10" fill="#FFFFFF" />
<rect x="710" y="30" width="10" height="10" fill="#FFFFFF" />
<rect x="50" y="40" width="10" height="10" fill="#FFFFFF" />
<rect x="100" y="40" width="10" height="10" fill="#FFFFFF" />
<rect x="350" y="40" width="10" height="10" fill="#FFFFFF" />
<rect x="600" y="40" width="10" height="10" fill="#FFFFFF" />
<rect x="610" y="40" width="10" height="10" fill="#FFFFFF" />
<rect x="670" y="40" width="10" height="10" fill="#FFFFFF" />
<rect x="710" y="40" width="10" height="10" fill="#FFFFFF" />
<rect x="50" y="50" width="10" height="10" fill="#FFFFFF" />
<rect x="100" y="50" width="10" height="10" fill="#FFFFFF" />
<rect x="350" y="50" width="10" height="10" fill="#FFFFFF" />
<rect x="600" y="50" width="10" height="10" fill="#FFFFFF" />
<rect x="700" y="50" width="10" height="10" fill="#FFFFFF" />
<rect x="710" y="50" width="10" height="10" fill="#FFFFFF" />
<rect x="50" y="60" width="10" height="10" fill="#FFFFFF" />
<rect x="100" y="60" width="10" height="10" fill="#FFFFFF" />
<rect x="350" y="60" width="10" height="10" fill="#FFFFFF" />
<rect x="400" y="60" width="10" height="10" fill="#FFFFFF" />
<rect x="410" y="60" width="10" height="10" fill="#FFFFFF" />
<rect x="420" y="60" width="10" height="10" fill="#FFFFFF" />
<rect x="680" y="60" width="10" height="10" fill="#FFFFFF" />
<rect x="690" y="60" width="10" height="10" fill="#FFFFFF" />
<rect x="700" y="60" width="10" height="10" fill="#FFFFFF" />
<rect x="50" y="70" width="10" height="10" fill="#FFFFFF" />
<rect x="100" y="70" width="10" height="10" fill="#FFFFFF" />
<rect x="160" y="70" width="10" height="10" fill="#FFFFFF" />
<rect x="170" y="70" width="10" height="10" fill="#FFFFFF" />
<rect x="180" y="70" width="10" height="10" fill="#FFFFFF" />
<rect x="210" y="70" width="10" height="10" fill="#FFFFFF" />
<rect x="350" y="70" width="10" height="10" fill="#FFFFFF" />
<rect x="400" y="70" width="10" height="10" fill="#FFFFFF" />
<rect x="420" y="70" width="10" height="10" fill="#FFFFFF" />
<rect x="430" y="70" width="10" height="10" fill="#FFFFFF" />
<rect x="50" y="80" width="10" height="10" fill="#FFFFFF" />
<rect x="80" y="80" width="10" height="10" fill="#FFFFFF" />
<rect x="90" y="80" width="10" height="10" fill="#FFFFFF" />
<rect x="100" y="80" width="10" height="10" fill="#FFFFFF" />
<rect x="150" y="80" width="10" height="10" fill="#FFFFFF" />
<rect x="160" y="80" width="10" height="10" fill="#FFFFFF" />
<rect x="180" y="80" width="10" height="10" fill="#FFFFFF" />
<rect x="190" y="80" width="10" height="10" fill="#FFFFFF" />
<rect x="220" y="80" width="10" height="10" fill="#FFFFFF" />
<rect x="260" y="80" width="10" height="10" fill="#FFFFFF" />
<rect x="270" y="80" width="10" height="10" fill="#FFFFFF" />
<rect x="330" y="80" width="10" height="10" fill="#FFFFFF" />
<rect x="350" y="80" width="10" height="10" fill="#FFFFFF" />
<rect x="370" y="80" width="10" height="10" fill="#FFFFFF" />
<rect x="380" y="80" width="10" height="10" fill="#FFFFFF" />
<rect x="390" y="80" width="10" height="10" fill="#FFFFFF" />
<rect x="430" y="80" width="10" height="10" fill="#FFFFFF" />
<rect x="440" y="80" width="10" height="10" fill="#FFFFFF" />
<rect x="490" y="80" width="10" height="10" fill="#FFFFFF" />
<rect x="500" y="80" width="10" height="10" fill="#FFFFFF" />
<rect x="510" y="80" width="10" height="10" fill="#FFFFFF" />
<rect x="520" y="80" width="10" height="10" fill="#FFFFFF" />
<rect x="530" y="80" width="10" height="10" fill="#FFFFFF" />
<rect x="540" y="80" width="10" height="10" fill="#FFFFFF" />
<rect x="50" y="90" width="10" height="10" fill="#FFFFFF" />
<rect x="60" y="90" width="10" height="10" fill="#FFFFFF" />
<rect x="70" y="90" width="10" height="10" fill="#FFFFFF" />
<rect x="80" y="90" width="10" height="10" fill="#FFFFFF" />
<rect x="100" y="90" width="10" height="10" fill="#FFFFFF" />
<rect x="140" y="90" width="10" height="10" fill="#FFFFFF" />
<rect x="190" y="90" width="10" height="10" fill="#FFFFFF" />
<rect x="220" y="90" width="10" height="10" fill="#FFFFFF" />
<rect x="240" y="90" width="10" height="10" fill="#FFFFFF" />
<rect x="260" y="90" width="10" height="10" fill="#FFFFFF" />
<rect x="340" y="90" width="10" height="10" fill="#FFFFFF" />
<rect x="350" y="90" width="10" height="10" fill="#FFFFFF" />
<rect x="360" y="90" width="10" height="10" fill="#FFFFFF" />
<rect x="370" y="90" width="10" height="10" fill="#FFFFFF" />
<rect x="390" y="90" width="10" height="10" fill="#FFFFFF" />
<rect x="400" y="90" width="10" height="10" fill="#FFFFFF" />
<rect x="440" y="90" width="10" height="10" fill="#FFFFFF" />
<rect x="550" y="90" width="10" height="10" fill="#FFFFFF" />
<rect x="610" y="90" width="10" height="10" fill="#FFFFFF" />
<rect x="680" y="90" width="10" height="10" fill="#FFFFFF" />
<rect x="50" y="100" width="10" height="10" fill="#FFFFFF" />
<rect x="100" y="100" width="10" height="10" fill="#FFFFFF" />
<rect x="140" y="100" width="10" height="10" fill="#FFFFFF" />
<rect x="190" y="100" width="10" height="10" fill="#FFFFFF" />
<rect x="220" y="100" width="10" height="10" fill="#FFFFFF" />
<rect x="240" y="100" width="10" height="10" fill="#FFFFFF" />
<rect x="260" y="100" width="10" height="10" fill="#FFFFFF" />
<rect x="350" y="100" width="10" height="10" fill="#FFFFFF" />
<rect x="380" y="100" width="10" height="10" fill="#FFFFFF" />
<rect x="400" y="100" width="10" height="10" fill="#FFFFFF" />
<rect x="440" y="100" width="10" height="10" fill="#FFFFFF" />
<rect x="560" y="100" width="10" height="10" fill="#FFFFFF" />
<rect x="50" y="110" width="10" height="10" fill="#FFFFFF" />
<rect x="100" y="110" width="10" height="10" fill="#FFFFFF" />
<rect x="140" y="110" width="10" height="10" fill="#FFFFFF" />
<rect x="180" y="110" width="10" height="10" fill="#FFFFFF" />
<rect x="190" y="110" width="10" height="10" fill="#FFFFFF" />
<rect x="220" y="110" width="10" height="10" fill="#FFFFFF" />
<rect x="230" y="110" width="10" height="10" fill="#FFFFFF" />
<rect x="240" y="110" width="10" height="10" fill="#FFFFFF" />
<rect x="260" y="110" width="10" height="10" fill="#FFFFFF" />
<rect x="350" y="110" width="10" height="10" fill="#FFFFFF" />
<rect x="360" y="110" width="10" height="10" fill="#FFFFFF" />
<rect x="380" y="110" width="10" height="10" fill="#FFFFFF" />
<rect x="400" y="110" width="10" height="10" fill="#FFFFFF" />
<rect x="410" y="110" width="10" height="10" fill="#FFFFFF" />
<rect x="430" y="110" width="10" height="10" fill="#FFFFFF" />
<rect x="440" y="110" width="10" height="10" fill="#FFFFFF" />
<rect x="560" y="110" width="10" height="10" fill="#FFFFFF" />
<rect x="50" y="120" width="10" height="10" fill="#FFFFFF" />
<rect x="100" y="120" width="10" height="10" fill="#FFFFFF" />
<rect x="140" y="120" width="10" height="10" fill="#FFFFFF" />
<rect x="180" y="120" width="10" height="10" fill="#FFFFFF" />
<rect x="220" y="120" width="10" height="10" fill="#FFFFFF" />
<rect x="230" y="120" width="10" height="10" fill="#FFFFFF" />
<rect x="240" y="120" width="10" height="10" fill="#FFFFFF" />
<rect x="250" y="120" width="10" height="10" fill="#FFFFFF" />
<rect x="260" y="120" width="10" height="10" fill="#FFFFFF" />
<rect x="360" y="120" width="10" height="10" fill="#FFFFFF" />
<rect x="380" y="120" width="10" height="10" fill="#FFFFFF" />
<rect x="410" y="120" width="10" height="10" fill="#FFFFFF" />
<rect x="420" y="120" width="10" height="10" fill="#FFFFFF" />
<rect x="430" y="120" width="10" height="10" fill="#FFFFFF" />
<rect x="560" y="120" width="10" height="10" fill="#FFFFFF" />
<rect x="570" y="120" width="10" height="10" fill="#FFFFFF" />
<rect x="50" y="130" width="10" height="10" fill="#FFFFFF" />
<rect x="100" y="130" width="10" height="10" fill="#FFFFFF" />
<rect x="150" y="130" width="10" height="10" fill="#FFFFFF" />
<rect x="160" y="130" width="10" height="10" fill="#FFFFFF" />
<rect x="170" y="130" width="10" height="10" fill="#FFFFFF" />
<rect x="180" y="130" width="10" height="10" fill="#FFFFFF" />
<rect x="230" y="130" width="10" height="10" fill="#FFFFFF" />
<rect x="250" y="130" width="10" height="10" fill="#FFFFFF" />
<rect x="360" y="130" width="10" height="10" fill="#FFFFFF" />
<rect x="370" y="130" width="10" height="10" fill="#FFFFFF" />
<rect x="570" y="130" width="10" height="10" fill="#FFFFFF" />
<rect x="610" y="130" width="10" height="10" fill="#FFFFFF" />
<rect x="50" y="140" width="10" height="10" fill="#FFFFFF" />
<rect x="300" y="140" width="10" height="10" fill="#FFFFFF" />
<rect x="310" y="140" width="10" height="10" fill="#FFFFFF" />
<rect x="320" y="140" width="10" height="10" fill="#FFFFFF" />
<rect x="330" y="140" width="10" height="10" fill="#FFFFFF" />
<rect x="340" y="140" width="10" height="10" fill="#FFFFFF" />
<rect x="350" y="140" width="10" height="10" fill="#FFFFFF" />
<rect x="360" y="140" width="10" height="10" fill="#FFFFFF" />
<rect x="370" y="140" width="10" height="10" fill="#FFFFFF" />
<rect x="380" y="140" width="10" height="10" fill="#FFFFFF" />
<rect x="390" y="140" width="10" height="10" fill="#FFFFFF" />
<rect x="400" y="140" width="10" height="10" fill="#FFFFFF" />
<rect x="410" y="140" width="10" height="10" fill="#FFFFFF" />
<rect x="420" y="140" width="10" height="10" fill="#FFFFFF" />
<rect x="430" y="140" width="10" height="10" fill="#FFFFFF" />
<rect x="440" y="140" width="10" height="10" fill="#FFFFFF" />
<rect x="450" y="140" width="10" height="10" fill="#FFFFFF" />
<rect x="460" y="140" width="10" height="10" fill="#FFFFFF" />
<rect x="470" y="140" width="10" height="10" fill="#FFFFFF" />
<rect x="480" y="140" width="10" height="10" fill="#FFFFFF" />
<rect x="570" y="140" width="10" height="10" fill="#FFFFFF" />
<rect x="600" y="140" width="10" height="10" fill="#FFFFFF" />
<rect x="610" y="140" width="10" height="10" fill="#FFFFFF" />
<rect x="50" y="150" width="10" height="10" fill="#FFFFFF" />
<rect x="180" y="150" width="10" height="10" fill="#FFFFFF" />
<rect x="190" y="150" width="10" height="10" fill="#FFFFFF" />
<rect x="200" y="150" width="10" height="10" fill="#FFFFFF" />
<rect x="210" y="150" width="10" height="10" fill="#FFFFFF" />
<rect x="220" y="150" width="10" height="10" fill="#FFFFFF" />
<rect x="230" y="150" width="10" height="10" fill="#FFFFFF" />
<rect x="240" y="150" width="10" height="10" fill="#FFFFFF" />
<rect x="250" y="150" width="10" height="10" fill="#FFFFFF" />
<rect x="260" y="150" width="10" height="10" fill="#FFFFFF" />
<rect x="270" y="150" width="10" height="10" fill="#FFFFFF" />
<rect x="280" y="150" width="10" height="10" fill="#FFFFFF" />
<rect x="290" y="150" width="10" height="10" fill="#FFFFFF" />
<rect x="370" y="150" width="10" height="10" fill="#FFFFFF" />
<rect x="380" y="150" width="10" height="10" fill="#FFFFFF" />
<rect x="390" y="150" width="10" height="10" fill="#FFFFFF" />
<rect x="400" y="150" width="10" height="10" fill="#FFFFFF" />
<rect x="410" y="150" width="10" height="10" fill="#FFFFFF" />
<rect x="530" y="150" width="10" height="10" fill="#FFFFFF" />
<rect x="570" y="150" width="10" height="10" fill="#FFFFFF" />
<rect x="590" y="150" width="10" height="10" fill="#FFFFFF" />
<rect x="600" y="150" width="10" height="10" fill="#FFFFFF" />
<rect x="90" y="160" width="10" height="10" fill="#FFFFFF" />
<rect x="100" y="160" width="10" height="10" fill="#FFFFFF" />
<rect x="110" y="160" width="10" height="10" fill="#FFFFFF" />
<rect x="120" y="160" width="10" height="10" fill="#FFFFFF" />
<rect x="130" y="160" width="10" height="10" fill="#FFFFFF" />
<rect x="140" y="160" width="10" height="10" fill="#FFFFFF" />
<rect x="150" y="160" width="10" height="10" fill="#FFFFFF" />
<rect x="160" y="160" width="10" height="10" fill="#FFFFFF" />
<rect x="170" y="160" width="10" height="10" fill="#FFFFFF" />
<rect x="330" y="160" width="10" height="10" fill="#FFFFFF" />
<rect x="340" y="160" width="10" height="10" fill="#FFFFFF" />
<rect x="350" y="160" width="10" height="10" fill="#FFFFFF" />
<rect x="360" y="160" width="10" height="10" fill="#FFFFFF" />
<rect x="540" y="160" width="10" height="10" fill="#FFFFFF" />
<rect x="550" y="160" width="10" height="10" fill="#FFFFFF" />
<rect x="560" y="160" width="10" height="10" fill="#FFFFFF" />
<rect x="570" y="160" width="10" height="10" fill="#FFFFFF" />
<rect x="590" y="160" width="10" height="10" fill="#FFFFFF" />
<rect x="0" y="170" width="10" height="10" fill="#FFFFFF" />
<rect x="10" y="170" width="10" height="10" fill="#FFFFFF" />
<rect x="20" y="170" width="10" height="10" fill="#FFFFFF" />
<rect x="30" y="170" width="10" height="10" fill="#FFFFFF" />
<rect x="40" y="170" width="10" height="10" fill="#FFFFFF" />
<rect x="50" y="170" width="10" height="10" fill="#FFFFFF" />
<rect x="60" y="170" width="10" height="10" fill="#FFFFFF" />
<rect x="70" y="170" width="10" height="10" fill="#FFFFFF" />
<rect x="80" y="170" width="10" height="10" fill="#FFFFFF" />
<rect x="280" y="170" width="10" height="10" fill="#FFFFFF" />
<rect x="290" y="170" width="10" height="10" fill="#FFFFFF" />
<rect x="300" y="170" width="10" height="10" fill="#FFFFFF" />
<rect x="310" y="170" width="10" height="10" fill="#FFFFFF" />
<rect x="320" y="170" width="10" height="10" fill="#FFFFFF" />
<rect x="560" y="170" width="10" height="10" fill="#FFFFFF" />
<rect x="570" y="170" width="10" height="10" fill="#FFFFFF" />
<rect x="580" y="170" width="10" height="10" fill="#FFFFFF" />
<rect x="220" y="180" width="10" height="10" fill="#FFFFFF" />
<rect x="230" y="180" width="10" height="10" fill="#FFFFFF" />
<rect x="240" y="180" width="10" height="10" fill="#FFFFFF" />
<rect x="250" y="180" width="10" height="10" fill="#FFFFFF" />
<rect x="260" y="180" width="10" height="10" fill="#FFFFFF" />
<rect x="270" y="180" width="10" height="10" fill="#FFFFFF" />
<rect x="570" y="180" width="10" height="10" fill="#FFFFFF" />
<rect x="580" y="180" width="10" height="10" fill="#FFFFFF" />
<rect x="160" y="190" width="10" height="10" fill="#FFFFFF" />
<rect x="170" y="190" width="10" height="10" fill="#FFFFFF" />
<rect x="180" y="190" width="10" height="10" fill="#FFFFFF" />
<rect x="190" y="190" width="10" height="10" fill="#FFFFFF" />
<rect x="200" y="190" width="10" height="10" fill="#FFFFFF" />
<rect x="210" y="190" width="10" height="10" fill="#FFFFFF" />
<rect x="130" y="200" width="10" height="10" fill="#FFFFFF" />
<rect x="140" y="200" width="10" height="10" fill="#FFFFFF" />
<rect x="150" y="200" width="10" height="10" fill="#FFFFFF" />
</svg>