<?xml version="1.0" encoding="UTF-8" ?>
<svg version="1.1" width="770" height="380" xmlns="http://www.w3.org/2000/svg" shape-rendering="crispEdges">
<rect x="290" y="0" width="10" height="10" fill="#FFFFFF" />
<rect x="300" y="0" width="10" height="10" fill="#FFFFFF" />
<rect x="290" y="10" width="10" height="10" fill="#FFFFFF" />
<rect x="300" y="10" width="10" height="10" fill="#FFFFFF" />
<rect x="760" y="10" width="10" height="10" fill="#FFFFFF" />
<rect x="290" y="20" width="10" height="10" fill="#FFFFFF" />
<rect x="300" y="20" width="10" height="10" fill="#FFFFFF" />
<rect x="760" y="20" width="10" height="10" fill="#FFFFFF" />
<rect x="290" y="30" width="10" height="10" fill="#FFFFFF" />
<rect x="300" y="30" width="10" height="10" fill="#FFFFFF" />
<rect x="760" y="30" width="10" height="10" fill="#FFFFFF" />
<rect x="290" y="40" width="10" height="10" fill="#FFFFFF" />
<rect x="300" y="40" width="10" height="10" fill="#FFFFFF" />
<rect x="750" y="40" width="10" height="10" fill="#FFFFFF" />
<rect x="120" y="50" width="10" height="10" fill="#FFFFFF" />
<rect x="130" y="50" width="10" height="10" fill="#FFFFFF" />
<rect x="140" y="50" width="10" height="10" fill="#FFFFFF" />
<rect x="150" y="50" width="10" height="10" fill="#FFFFFF" />
<rect x="280" y="50" width="10" height="10" fill="#FFFFFF" />
<rect x="300" y="50" width="10" height="10" fill="#FFFFFF" />
<rect x="750" y="50" width="10" height="10" fill="#FFFFFF" />
<rect x="60" y="60" width="10" height="10" fill="#FFFFFF" />
<rect x="110" y="60" width="10" height="10" fill="#FFFFFF" />
<rect x="160" y="60" width="10" height="10" fill="#FFFFFF" />
<rect x="280" y="60" width="10" height="10" fill="#FFFFFF" />
<rect x="300" y="60" width="10" height="10" fill="#FFFFFF" />
<rect x="750" y="60" width="10" height="10" fill="#FFFFFF" />
<rect x="70" y="70" width="10" height="10" fill="#FFFFFF" />
<rect x="100" y="70" width="10" height="10" fill="#FFFFFF" />
<rect x="170" y="70" width="10" height="10" fill="#FFFFFF" />
<rect x="280" y="70" width="10" height="10" fill="#FFFFFF" />
<rect x="300" y="70" width="10" height="10" fill="#FFFFFF" />
<rect x="740" y="70" width="10" height="10" fill="#FFFFFF" />
<rect x="70" y="80" width="10" height="10" fill="#FFFFFF" />
<rect x="80" y="80" width="10" height="10" fill="#FFFFFF" />
<rect x="90" y="80" width="10" height="10" fill="#FFFFFF" />
<rect x="180" y="80" width="10" height="10" fill="#FFFFFF" />
<rect x="280" y="80" width="10" height="10" fill="#FFFFFF" />
<rect x="300" y="80" width="10" height="10" fill="#FFFFFF" />
<rect x="740" y="80" width="10" height="10" fill="#FFFFFF" />
<rect x="70" y="90" width="10" height="10" fill="#FFFFFF" />
<rect x="180" y="90" width="10" height="10" fill="#FFFFFF" />
<rect x="270" y="90" width="10" height="10" fill="#FFFFFF" />
<rect x="300" y="90" width="10" height="10" fill="#FFFFFF" />
<rect x="740" y="90" width="10" height="10" fill="#FFFFFF" />
<rect x="70" y="100" width="10" height="10" fill="#FFFFFF" />
<rect x="190" y="100" width="10" height="10" fill="#FFFFFF" />
<rect x="270" y="100" width="10" height="10" fill="#FFFFFF" />
<rect x="290" y="100" width="10" height="10" fill="#FFFFFF" />
<rect x="730" y="100" width="10" height="10" fill="#FFFFFF" />
<rect x="60" y="110" width="10" height="10" fill="#FFFFFF" />
<rect x="70" y="110" width="10" height="10" fill="#FFFFFF" />
<rect x="190" y="110" width="10" height="10" fill="#FFFFFF" />
<rect x="270" y="110" width="10" height="10" fill="#FFFFFF" />
<rect x="290" y="110" width="10" height="10" fill="#FFFFFF" />
<rect x="730" y="110" width="10" height="10" fill="#FFFFFF" />
<rect x="50" y="120" width="10" height="10" fill="#FFFFFF" />
<rect x="80" y="120" width="10" height="10" fill="#FFFFFF" />
<rect x="190" y="120" width="10" height="10" fill="#FFFFFF" />
<rect x="270" y="120" width="10" height="10" fill="#FFFFFF" />
<rect x="290" y="120" width="10" height="10" fill="#FFFFFF" />
<rect x="730" y="120" width="10" height="10" fill="#FFFFFF" />
<rect x="40" y="130" width="10" height="10" fill="#FFFFFF" />
<rect x="80" y="130" width="10" height="10" fill="#FFFFFF" />
<rect x="190" y="130" width="10" height="10" fill="#FFFFFF" />
<rect x="270" y="130" width="10" height="10" fill="#FFFFFF" />
<rect x="290" y="130" width="10" height="10" fill="#FFFFFF" />
<rect x="720" y="130" width="10" height="10" fill="#FFFFFF" />
<rect x="40" y="140" width="10" height="10" fill="#FFFFFF" />
<rect x="80" y="140" width="10" height="10" fill="#FFFFFF" />
<rect x="190" y="140" width="10" height="10" fill="#FFFFFF" />
<rect x="270" y="140" width="10" height="10" fill="#FFFFFF" />
<rect x="280" y="140" width="10" height="10" fill="#FFFFFF" />
<rect x="720" y="140" width="10" height="10" fill="#FFFFFF" />
<rect x="30" y="150" width="10" height="10" fill="#FFFFFF" />
<rect x="80" y="150" width="10" height="10" fill="#FFFFFF" />
<rect x="190" y="150" width="10" height="10" fill="#FFFFFF" />
<rect x="270" y="150" width="10" height="10" fill="#FFFFFF" />
<rect x="280" y="150" width="10" height="10" fill="#FFFFFF" />
<rect x="720" y="150" width="10" height="10" fill="#FFFFFF" />
<rect x="20" y="160" width="10" height="10" fill="#FFFFFF" />
<rect x="80" y="160" width="10" height="10" fill="#FFFFFF" />
<rect x="190" y="160" width="10" height="10" fill="#FFFFFF" />
<rect x="270" y="160" width="10" height="10" fill="#FFFFFF" />
<rect x="720" y="160" width="10" height="10" fill="#FFFFFF" />
<rect x="10" y="170" width="10" height="10" fill="#FFFFFF" />
<rect x="90" y="170" width="10" height="10" fill="#FFFFFF" />
<rect x="190" y="170" width="10" height="10" fill="#FFFFFF" />
<rect x="270" y="170" width="10" height="10" fill="#FFFFFF" />
<rect x="610" y="170" width="10" height="10" fill="#FFFFFF" />
<rect x="620" y="170" width="10" height="10" fill="#FFFFFF" />
<rect x="710" y="170" width="10" height="10" fill="#FFFFFF" />
<rect x="10" y="180" width="10" height="10" fill="#FFFFFF" />
<rect x="90" y="180" width="10" height="10" fill="#FFFFFF" />
<rect x="180" y="180" width="10" height="10" fill="#FFFFFF" />
<rect x="260" y="180" width="10" height="10" fill="#FFFFFF" />
<rect x="270" y="180" width="10" height="10" fill="#FFFFFF" />
<rect x="610" y="180" width="10" height="10" fill="#FFFFFF" />
<rect x="620" y="180" width="10" height="10" fill="#FFFFFF" />
<rect x="710" y="180" width="10" height="10" fill="#FFFFFF" />
<rect x="10" y="190" width="10" height="10" fill="#FFFFFF" />
<rect x="90" y="190" width="10" height="10" fill="#FFFFFF" />
<rect x="170" y="190" width="10" height="10" fill="#FFFFFF" />
<rect x="260" y="190" width="10" height="10" fill="#FFFFFF" />
<rect x="270" y="190" width="10" height="10" fill="#FFFFFF" />
<rect x="380" y="190" width="10" height="10" fill="#FFFFFF" />
<rect x="390" y="190" width="10" height="10" fill="#FFFFFF" />
<rect x="400" y="190" width="10" height="10" fill="#FFFFFF" />
<rect x="440" y="190" width="10" height="10" fill="#FFFFFF" />
<rect x="530" y="190" width="10" height="10" fill="#FFFFFF" />
<rect x="610" y="190" width="10" height="10" fill="#FFFFFF" />
<rect x="620" y="190" width="10" height="10" fill="#FFFFFF" />
<rect x="710" y="190" width="10" height="10" fill="#FFFFFF" />
<rect x="0" y="200" width="10" height="10" fill="#FFFFFF" />
<rect x="90" y="200" width="10" height="10" fill="#FFFFFF" />
<rect x="160" y="200" width="10" height="10" fill="#FFFFFF" />
<rect x="260" y="200" width="10" height="10" fill="#FFFFFF" />
<rect x="370" y="200" width="10" height="10" fill="#FFFFFF" />
<rect x="380" y="200" width="10" height="10" fill="#FFFFFF" />
<rect x="410" y="200" width="10" height="10" fill="#FFFFFF" />
<rect x="440" y="200" width="10" height="10" fill="#FFFFFF" />
<rect x="530" y="200" width="10" height="10" fill="#FFFFFF" />
<rect x="610" y="200" width="10" height="10" fill="#FFFFFF" />
<rect x="620" y="200" width="10" height="10" fill="#FFFFFF" />
<rect x="710" y="200" width="10" height="10" fill="#FFFFFF" />
<rect x="0" y="210" width="10" height="10" fill="#FFFFFF" />
<rect x="100" y="210" width="10" height="10" fill="#FFFFFF" />
<rect x="150" y="210" width="10" height="10" fill="#FFFFFF" />
<rect x="260" y="210" width="10" height="10" fill="#FFFFFF" />
<rect x="360" y="210" width="10" height="10" fill="#FFFFFF" />
<rect x="410" y="210" width="10" height="10" fill="#FFFFFF" />
<rect x="440" y="210" width="10" height="10" fill="#FFFFFF" />
<rect x="530" y="210" width="10" height="10" fill="#FFFFFF" />
<rect x="610" y="210" width="10" height="10" fill="#FFFFFF" />
<rect x="620" y="210" width="10" height="10" fill="#FFFFFF" />
<rect x="700" y="210" width="10" height="10" fill="#FFFFFF" />
<rect x="0" y="220" width="10" height="10" fill="#FFFFFF" />
<rect x="100" y="220" width="10" height="10" fill="#FFFFFF" />
<rect x="140" y="220" width="10" height="10" fill="#FFFFFF" />
<rect x="260" y="220" width="10" height="10" fill="#FFFFFF" />
<rect x="360" y="220" width="10" height="10" fill="#FFFFFF" />
<rect x="420" y="220" width="10" height="10" fill="#FFFFFF" />
<rect x="440" y="220" width="10" height="10" fill="#FFFFFF" />
<rect x="530" y="220" width="10" height="10" fill="#FFFFFF" />
<rect x="610" y="220" width="10" height="10" fill="#FFFFFF" />
<rect x="620" y="220" width="10" height="10" fill="#FFFFFF" />
<rect x="700" y="220" width="10" height="10" fill="#FFFFFF" />
<rect x="0" y="230" width="10" height="10" fill="#FFFFFF" />
<rect x="100" y="230" width="10" height="10" fill="#FFFFFF" />
<rect x="120" y="230" width="10" height="10" fill="#FFFFFF" />
<rect x="130" y="230" width="10" height="10" fill="#FFFFFF" />
<rect x="250" y="230" width="10" height="10" fill="#FFFFFF" />
<rect x="260" y="230" width="10" height="10" fill="#FFFFFF" />
<rect x="350" y="230" width="10" height="10" fill="#FFFFFF" />
<rect x="440" y="230" width="10" height="10" fill="#FFFFFF" />
<rect x="530" y="230" width="10" height="10" fill="#FFFFFF" />
<rect x="600" y="230" width="10" height="10" fill="#FFFFFF" />
<rect x="620" y="230" width="10" height="10" fill="#FFFFFF" />
<rect x="700" y="230" width="10" height="10" fill="#FFFFFF" />
<rect x="10" y="240" width="10" height="10" fill="#FFFFFF" />
<rect x="60" y="240" width="10" height="10" fill="#FFFFFF" />
<rect x="100" y="240" width="10" height="10" fill="#FFFFFF" />
<rect x="110" y="240" width="10" height="10" fill="#FFFFFF" />
<rect x="250" y="240" width="10" height="10" fill="#FFFFFF" />
<rect x="260" y="240" width="10" height="10" fill="#FFFFFF" />
<rect x="350" y="240" width="10" height="10" fill="#FFFFFF" />
<rect x="430" y="240" width="10" height="10" fill="#FFFFFF" />
<rect x="440" y="240" width="10" height="10" fill="#FFFFFF" />
<rect x="530" y="240" width="10" height="10" fill="#FFFFFF" />
<rect x="590" y="240" width="10" height="10" fill="#FFFFFF" />
<rect x="600" y="240" width="10" height="10" fill="#FFFFFF" />
<rect x="620" y="240" width="10" height="10" fill="#FFFFFF" />
<rect x="60" y="250" width="10" height="10" fill="#FFFFFF" />
<rect x="70" y="250" width="10" height="10" fill="#FFFFFF" />
<rect x="80" y="250" width="10" height="10" fill="#FFFFFF" />
<rect x="90" y="250" width="10" height="10" fill="#FFFFFF" />
<rect x="100" y="250" width="10" height="10" fill="#FFFFFF" />
<rect x="250" y="250" width="10" height="10" fill="#FFFFFF" />
<rect x="340" y="250" width="10" height="10" fill="#FFFFFF" />
<rect x="430" y="250" width="10" height="10" fill="#FFFFFF" />
<rect x="440" y="250" width="10" height="10" fill="#FFFFFF" />
<rect x="530" y="250" width="10" height="10" fill="#FFFFFF" />
<rect x="540" y="250" width="10" height="10" fill="#FFFFFF" />
<rect x="580" y="250" width="10" height="10" fill="#FFFFFF" />
<rect x="590" y="250" width="10" height="10" fill="#FFFFFF" />
<rect x="620" y="250" width="10" height="10" fill="#FFFFFF" />
<rect x="110" y="260" width="10" height="10" fill="#FFFFFF" />
<rect x="240" y="260" width="10" height="10" fill="#FFFFFF" />
<rect x="250" y="260" width="10" height="10" fill="#FFFFFF" />
<rect x="340" y="260" width="10" height="10" fill="#FFFFFF" />
<rect x="420" y="260" width="10" height="10" fill="#FFFFFF" />
<rect x="440" y="260" width="10" height="10" fill="#FFFFFF" />
<rect x="540" y="260" width="10" height="10" fill="#FFFFFF" />
<rect x="550" y="260" width="10" height="10" fill="#FFFFFF" />
<rect x="560" y="260" width="10" height="10" fill="#FFFFFF" />
<rect x="570" y="260" width="10" height="10" fill="#FFFFFF" />
<rect x="580" y="260" width="10" height="10" fill="#FFFFFF" />
<rect x="620" y="260" width="10" height="10" fill="#FFFFFF" />
<rect x="110" y="270" width="10" height="10" fill="#FFFFFF" />
<rect x="240" y="270" width="10" height="10" fill="#FFFFFF" />
<rect x="250" y="270" width="10" height="10" fill="#FFFFFF" />
<rect x="340" y="270" width="10" height="10" fill="#FFFFFF" />
<rect x="420" y="270" width="10" height="10" fill="#FFFFFF" />
<rect x="440" y="270" width="10" height="10" fill="#FFFFFF" />
<rect x="610" y="270" width="10" height="10" fill="#FFFFFF" />
<rect x="110" y="280" width="10" height="10" fill="#FFFFFF" />
<rect x="240" y="280" width="10" height="10" fill="#FFFFFF" />
<rect x="250" y="280" width="10" height="10" fill="#FFFFFF" />
<rect x="340" y="280" width="10" height="10" fill="#FFFFFF" />
<rect x="410" y="280" width="10" height="10" fill="#FFFFFF" />
<rect x="440" y="280" width="10" height="10" fill="#FFFFFF" />
<rect x="610" y="280" width="10" height="10" fill="#FFFFFF" />
<rect x="110" y="290" width="10" height="10" fill="#FFFFFF" />
<rect x="250" y="290" width="10" height="10" fill="#FFFFFF" />
<rect x="340" y="290" width="10" height="10" fill="#FFFFFF" />
<rect x="400" y="290" width="10" height="10" fill="#FFFFFF" />
<rect x="440" y="290" width="10" height="10" fill="#FFFFFF" />
<rect x="600" y="290" width="10" height="10" fill="#FFFFFF" />
<rect x="680" y="290" width="10" height="10" fill="#FFFFFF" />
<rect x="110" y="300" width="10" height="10" fill="#FFFFFF" />
<rect x="250" y="300" width="10" height="10" fill="#FFFFFF" />
<rect x="340" y="300" width="10" height="10" fill="#FFFFFF" />
<rect x="390" y="300" width="10" height="10" fill="#FFFFFF" />
<rect x="440" y="300" width="10" height="10" fill="#FFFFFF" />
<rect x="510" y="300" width="10" height="10" fill="#FFFFFF" />
<rect x="590" y="300" width="10" height="10" fill="#FFFFFF" />
<rect x="600" y="300" width="10" height="10" fill="#FFFFFF" />
<rect x="680" y="300" width="10" height="10" fill="#FFFFFF" />
<rect x="110" y="310" width="10" height="10" fill="#FFFFFF" />
<rect x="250" y="310" width="10" height="10" fill="#FFFFFF" />
<rect x="340" y="310" width="10" height="10" fill="#FFFFFF" />
<rect x="390" y="310" width="10" height="10" fill="#FFFFFF" />
<rect x="440" y="310" width="10" height="10" fill="#FFFFFF" />
<rect x="510" y="310" width="10" height="10" fill="#FFFFFF" />
<rect x="590" y="310" width="10" height="10" fill="#FFFFFF" />
<rect x="110" y="320" width="10" height="10" fill="#FFFFFF" />
<rect x="250" y="320" width="10" height="10" fill="#FFFFFF" />
<rect x="350" y="320" width="10" height="10" fill="#FFFFFF" />
<rect x="360" y="320" width="10" height="10" fill="#FFFFFF" />
<rect x="370" y="320" width="10" height="10" fill="#FFFFFF" />
<rect x="380" y="320" width="10" height="10" fill="#FFFFFF" />
<rect x="440" y="320" width="10" height="10" fill="#FFFFFF" />
<rect x="520" y="320" width="10" height="10" fill="#FFFFFF" />
<rect x="570" y="320" width="10" height="10" fill="#FFFFFF" />
<rect x="580" y="320" width="10" height="10" fill="#FFFFFF" />
<rect x="120" y="330" width="10" height="10" fill="#FFFFFF" />
<rect x="250" y="330" width="10" height="10" fill="#FFFFFF" />
<rect x="280" y="330" width="10" height="10" fill="#FFFFFF" />
<rect x="440" y="330" width="10" height="10" fill="#FFFFFF" />
<rect x="450" y="330" width="10" height="10" fill="#FFFFFF" />
<rect x="530" y="330" width="10" height="10" fill="#FFFFFF" />
<rect x="540" y="330" width="10" height="10" fill="#FFFFFF" />
<rect x="550" y="330" width="10" height="10" fill="#FFFFFF" />
<rect x="560" y="330" width="10" height="10" fill="#FFFFFF" />
<rect x="120" y="340" width="10" height="10" fill="#FFFFFF" />
<rect x="250" y="340" width="10" height="10" fill="#FFFFFF" />
<rect x="260" y="340" width="10" height="10" fill="#FFFFFF" />
<rect x="270" y="340" width="10" height="10" fill="#FFFFFF" />
<rect x="280" y="340" width="10" height="10" fill="#FFFFFF" />
<rect x="120" y="350" width="10" height="10" fill="#FFFFFF" />
<rect x="120" y="360" width="10" height="10" fill="#FFFFFF" />
<rect x="120" y="370" width="10" height="10" fill="#FFFFFF" />
</svg>