<?xml version="1.0" encoding="UTF-8" ?>
<svg version="1.1" width="1510" height="800" xmlns="http://www.w3.org/2000/svg" shape-rendering="crispEdges">
<rect x="1090" y="0" width="10" height="10" fill="#FFFFFF" />
<rect x="1080" y="10" width="10" height="10" fill="#FFFFFF" />
<rect x="1060" y="20" width="10" height="10" fill="#FFFFFF" />
<rect x="1070" y="20" width="10" height="10" fill="#FFFFFF" />
<rect x="1050" y="30" width="10" height="10" fill="#FFFFFF" />
<rect x="1060" y="30" width="10" height="10" fill="#FFFFFF" />
<rect x="1490" y="30" width="10" height="10" fill="#FFFFFF" />
<rect x="1030" y="40" width="10" height="10" fill="#FFFFFF" />
<rect x="1040" y="40" width="10" height="10" fill="#FFFFFF" />
<rect x="1470" y="40" width="10" height="10" fill="#FFFFFF" />
<rect x="1480" y="40" width="10" height="10" fill="#FFFFFF" />
<rect x="1490" y="40" width="10" height="10" fill="#FFFFFF" />
<rect x="820" y="50" width="10" height="10" fill="#FFFFFF" />
<rect x="1020" y="50" width="10" height="10" fill="#FFFFFF" />
<rect x="1030" y="50" width="10" height="10" fill="#FFFFFF" />
<rect x="1430" y="50" width="10" height="10" fill="#FFFFFF" />
<rect x="1440" y="50" width="10" height="10" fill="#FFFFFF" />
<rect x="1450" y="50" width="10" height="10" fill="#FFFFFF" />
<rect x="1460" y="50" width="10" height="10" fill="#FFFFFF" />
<rect x="1470" y="50" width="10" height="10" fill="#FFFFFF" />
<rect x="810" y="60" width="10" height="10" fill="#FFFFFF" />
<rect x="1010" y="60" width="10" height="10" fill="#FFFFFF" />
<rect x="1400" y="60" width="10" height="10" fill="#FFFFFF" />
<rect x="1410" y="60" width="10" height="10" fill="#FFFFFF" />
<rect x="1420" y="60" width="10" height="10" fill="#FFFFFF" />
<rect x="1430" y="60" width="10" height="10" fill="#FFFFFF" />
<rect x="810" y="70" width="10" height="10" fill="#FFFFFF" />
<rect x="1010" y="70" width="10" height="10" fill="#FFFFFF" />
<rect x="1020" y="70" width="10" height="10" fill="#FFFFFF" />
<rect x="1030" y="70" width="10" height="10" fill="#FFFFFF" />
<rect x="1040" y="70" width="10" height="10" fill="#FFFFFF" />
<rect x="1050" y="70" width="10" height="10" fill="#FFFFFF" />
<rect x="1060" y="70" width="10" height="10" fill="#FFFFFF" />
<rect x="800" y="80" width="10" height="10" fill="#FFFFFF" />
<rect x="810" y="80" width="10" height="10" fill="#FFFFFF" />
<rect x="1030" y="80" width="10" height="10" fill="#FFFFFF" />
<rect x="1040" y="80" width="10" height="10" fill="#FFFFFF" />
<rect x="1050" y="80" width="10" height="10" fill="#FFFFFF" />
<rect x="1390" y="80" width="10" height="10" fill="#FFFFFF" />
<rect x="800" y="90" width="10" height="10" fill="#FFFFFF" />
<rect x="1030" y="90" width="10" height="10" fill="#FFFFFF" />
<rect x="1390" y="90" width="10" height="10" fill="#FFFFFF" />
<rect x="800" y="100" width="10" height="10" fill="#FFFFFF" />
<rect x="1020" y="100" width="10" height="10" fill="#FFFFFF" />
<rect x="1380" y="100" width="10" height="10" fill="#FFFFFF" />
<rect x="800" y="110" width="10" height="10" fill="#FFFFFF" />
<rect x="1010" y="110" width="10" height="10" fill="#FFFFFF" />
<rect x="1020" y="110" width="10" height="10" fill="#FFFFFF" />
<rect x="1360" y="110" width="10" height="10" fill="#FFFFFF" />
<rect x="790" y="120" width="10" height="10" fill="#FFFFFF" />
<rect x="800" y="120" width="10" height="10" fill="#FFFFFF" />
<rect x="1000" y="120" width="10" height="10" fill="#FFFFFF" />
<rect x="1010" y="120" width="10" height="10" fill="#FFFFFF" />
<rect x="1340" y="120" width="10" height="10" fill="#FFFFFF" />
<rect x="1350" y="120" width="10" height="10" fill="#FFFFFF" />
<rect x="1460" y="120" width="10" height="10" fill="#FFFFFF" />
<rect x="1500" y="120" width="10" height="10" fill="#FFFFFF" />
<rect x="790" y="130" width="10" height="10" fill="#FFFFFF" />
<rect x="850" y="130" width="10" height="10" fill="#FFFFFF" />
<rect x="860" y="130" width="10" height="10" fill="#FFFFFF" />
<rect x="980" y="130" width="10" height="10" fill="#FFFFFF" />
<rect x="1000" y="130" width="10" height="10" fill="#FFFFFF" />
<rect x="1320" y="130" width="10" height="10" fill="#FFFFFF" />
<rect x="1330" y="130" width="10" height="10" fill="#FFFFFF" />
<rect x="1340" y="130" width="10" height="10" fill="#FFFFFF" />
<rect x="1460" y="130" width="10" height="10" fill="#FFFFFF" />
<rect x="1470" y="130" width="10" height="10" fill="#FFFFFF" />
<rect x="1490" y="130" width="10" height="10" fill="#FFFFFF" />
<rect x="1500" y="130" width="10" height="10" fill="#FFFFFF" />
<rect x="790" y="140" width="10" height="10" fill="#FFFFFF" />
<rect x="800" y="140" width="10" height="10" fill="#FFFFFF" />
<rect x="810" y="140" width="10" height="10" fill="#FFFFFF" />
<rect x="820" y="140" width="10" height="10" fill="#FFFFFF" />
<rect x="830" y="140" width="10" height="10" fill="#FFFFFF" />
<rect x="840" y="140" width="10" height="10" fill="#FFFFFF" />
<rect x="850" y="140" width="10" height="10" fill="#FFFFFF" />
<rect x="860" y="140" width="10" height="10" fill="#FFFFFF" />
<rect x="980" y="140" width="10" height="10" fill="#FFFFFF" />
<rect x="990" y="140" width="10" height="10" fill="#FFFFFF" />
<rect x="1000" y="140" width="10" height="10" fill="#FFFFFF" />
<rect x="1020" y="140" width="10" height="10" fill="#FFFFFF" />
<rect x="1030" y="140" width="10" height="10" fill="#FFFFFF" />
<rect x="1300" y="140" width="10" height="10" fill="#FFFFFF" />
<rect x="1310" y="140" width="10" height="10" fill="#FFFFFF" />
<rect x="1470" y="140" width="10" height="10" fill="#FFFFFF" />
<rect x="1490" y="140" width="10" height="10" fill="#FFFFFF" />
<rect x="840" y="150" width="10" height="10" fill="#FFFFFF" />
<rect x="850" y="150" width="10" height="10" fill="#FFFFFF" />
<rect x="980" y="150" width="10" height="10" fill="#FFFFFF" />
<rect x="1010" y="150" width="10" height="10" fill="#FFFFFF" />
<rect x="1020" y="150" width="10" height="10" fill="#FFFFFF" />
<rect x="1280" y="150" width="10" height="10" fill="#FFFFFF" />
<rect x="1290" y="150" width="10" height="10" fill="#FFFFFF" />
<rect x="1370" y="150" width="10" height="10" fill="#FFFFFF" />
<rect x="1380" y="150" width="10" height="10" fill="#FFFFFF" />
<rect x="1390" y="150" width="10" height="10" fill="#FFFFFF" />
<rect x="1470" y="150" width="10" height="10" fill="#FFFFFF" />
<rect x="1480" y="150" width="10" height="10" fill="#FFFFFF" />
<rect x="840" y="160" width="10" height="10" fill="#FFFFFF" />
<rect x="980" y="160" width="10" height="10" fill="#FFFFFF" />
<rect x="1000" y="160" width="10" height="10" fill="#FFFFFF" />
<rect x="1010" y="160" width="10" height="10" fill="#FFFFFF" />
<rect x="1270" y="160" width="10" height="10" fill="#FFFFFF" />
<rect x="1280" y="160" width="10" height="10" fill="#FFFFFF" />
<rect x="1350" y="160" width="10" height="10" fill="#FFFFFF" />
<rect x="1360" y="160" width="10" height="10" fill="#FFFFFF" />
<rect x="1370" y="160" width="10" height="10" fill="#FFFFFF" />
<rect x="1390" y="160" width="10" height="10" fill="#FFFFFF" />
<rect x="1470" y="160" width="10" height="10" fill="#FFFFFF" />
<rect x="840" y="170" width="10" height="10" fill="#FFFFFF" />
<rect x="980" y="170" width="10" height="10" fill="#FFFFFF" />
<rect x="990" y="170" width="10" height="10" fill="#FFFFFF" />
<rect x="1260" y="170" width="10" height="10" fill="#FFFFFF" />
<rect x="1270" y="170" width="10" height="10" fill="#FFFFFF" />
<rect x="1340" y="170" width="10" height="10" fill="#FFFFFF" />
<rect x="1350" y="170" width="10" height="10" fill="#FFFFFF" />
<rect x="1390" y="170" width="10" height="10" fill="#FFFFFF" />
<rect x="1400" y="170" width="10" height="10" fill="#FFFFFF" />
<rect x="1450" y="170" width="10" height="10" fill="#FFFFFF" />
<rect x="1460" y="170" width="10" height="10" fill="#FFFFFF" />
<rect x="650" y="180" width="10" height="10" fill="#FFFFFF" />
<rect x="660" y="180" width="10" height="10" fill="#FFFFFF" />
<rect x="830" y="180" width="10" height="10" fill="#FFFFFF" />
<rect x="840" y="180" width="10" height="10" fill="#FFFFFF" />
<rect x="860" y="180" width="10" height="10" fill="#FFFFFF" />
<rect x="870" y="180" width="10" height="10" fill="#FFFFFF" />
<rect x="980" y="180" width="10" height="10" fill="#FFFFFF" />
<rect x="1240" y="180" width="10" height="10" fill="#FFFFFF" />
<rect x="1250" y="180" width="10" height="10" fill="#FFFFFF" />
<rect x="1320" y="180" width="10" height="10" fill="#FFFFFF" />
<rect x="1330" y="180" width="10" height="10" fill="#FFFFFF" />
<rect x="1400" y="180" width="10" height="10" fill="#FFFFFF" />
<rect x="1410" y="180" width="10" height="10" fill="#FFFFFF" />
<rect x="1420" y="180" width="10" height="10" fill="#FFFFFF" />
<rect x="1440" y="180" width="10" height="10" fill="#FFFFFF" />
<rect x="1450" y="180" width="10" height="10" fill="#FFFFFF" />
<rect x="650" y="190" width="10" height="10" fill="#FFFFFF" />
<rect x="660" y="190" width="10" height="10" fill="#FFFFFF" />
<rect x="830" y="190" width="10" height="10" fill="#FFFFFF" />
<rect x="850" y="190" width="10" height="10" fill="#FFFFFF" />
<rect x="860" y="190" width="10" height="10" fill="#FFFFFF" />
<rect x="1120" y="190" width="10" height="10" fill="#FFFFFF" />
<rect x="1240" y="190" width="10" height="10" fill="#FFFFFF" />
<rect x="1310" y="190" width="10" height="10" fill="#FFFFFF" />
<rect x="1420" y="190" width="10" height="10" fill="#FFFFFF" />
<rect x="1430" y="190" width="10" height="10" fill="#FFFFFF" />
<rect x="1440" y="190" width="10" height="10" fill="#FFFFFF" />
<rect x="650" y="200" width="10" height="10" fill="#FFFFFF" />
<rect x="660" y="200" width="10" height="10" fill="#FFFFFF" />
<rect x="830" y="200" width="10" height="10" fill="#FFFFFF" />
<rect x="840" y="200" width="10" height="10" fill="#FFFFFF" />
<rect x="850" y="200" width="10" height="10" fill="#FFFFFF" />
<rect x="1120" y="200" width="10" height="10" fill="#FFFFFF" />
<rect x="1240" y="200" width="10" height="10" fill="#FFFFFF" />
<rect x="1250" y="200" width="10" height="10" fill="#FFFFFF" />
<rect x="1290" y="200" width="10" height="10" fill="#FFFFFF" />
<rect x="1300" y="200" width="10" height="10" fill="#FFFFFF" />
<rect x="650" y="210" width="10" height="10" fill="#FFFFFF" />
<rect x="660" y="210" width="10" height="10" fill="#FFFFFF" />
<rect x="800" y="210" width="10" height="10" fill="#FFFFFF" />
<rect x="840" y="210" width="10" height="10" fill="#FFFFFF" />
<rect x="1120" y="210" width="10" height="10" fill="#FFFFFF" />
<rect x="1250" y="210" width="10" height="10" fill="#FFFFFF" />
<rect x="1270" y="210" width="10" height="10" fill="#FFFFFF" />
<rect x="1280" y="210" width="10" height="10" fill="#FFFFFF" />
<rect x="650" y="220" width="10" height="10" fill="#FFFFFF" />
<rect x="660" y="220" width="10" height="10" fill="#FFFFFF" />
<rect x="810" y="220" width="10" height="10" fill="#FFFFFF" />
<rect x="820" y="220" width="10" height="10" fill="#FFFFFF" />
<rect x="830" y="220" width="10" height="10" fill="#FFFFFF" />
<rect x="1110" y="220" width="10" height="10" fill="#FFFFFF" />
<rect x="1250" y="220" width="10" height="10" fill="#FFFFFF" />
<rect x="1260" y="220" width="10" height="10" fill="#FFFFFF" />
<rect x="480" y="230" width="10" height="10" fill="#FFFFFF" />
<rect x="490" y="230" width="10" height="10" fill="#FFFFFF" />
<rect x="500" y="230" width="10" height="10" fill="#FFFFFF" />
<rect x="510" y="230" width="10" height="10" fill="#FFFFFF" />
<rect x="640" y="230" width="10" height="10" fill="#FFFFFF" />
<rect x="660" y="230" width="10" height="10" fill="#FFFFFF" />
<rect x="830" y="230" width="10" height="10" fill="#FFFFFF" />
<rect x="1110" y="230" width="10" height="10" fill="#FFFFFF" />
<rect x="420" y="240" width="10" height="10" fill="#FFFFFF" />
<rect x="470" y="240" width="10" height="10" fill="#FFFFFF" />
<rect x="520" y="240" width="10" height="10" fill="#FFFFFF" />
<rect x="640" y="240" width="10" height="10" fill="#FFFFFF" />
<rect x="660" y="240" width="10" height="10" fill="#FFFFFF" />
<rect x="1110" y="240" width="10" height="10" fill="#FFFFFF" />
<rect x="430" y="250" width="10" height="10" fill="#FFFFFF" />
<rect x="460" y="250" width="10" height="10" fill="#FFFFFF" />
<rect x="530" y="250" width="10" height="10" fill="#FFFFFF" />
<rect x="640" y="250" width="10" height="10" fill="#FFFFFF" />
<rect x="660" y="250" width="10" height="10" fill="#FFFFFF" />
<rect x="1100" y="250" width="10" height="10" fill="#FFFFFF" />
<rect x="430" y="260" width="10" height="10" fill="#FFFFFF" />
<rect x="440" y="260" width="10" height="10" fill="#FFFFFF" />
<rect x="450" y="260" width="10" height="10" fill="#FFFFFF" />
<rect x="540" y="260" width="10" height="10" fill="#FFFFFF" />
<rect x="640" y="260" width="10" height="10" fill="#FFFFFF" />
<rect x="660" y="260" width="10" height="10" fill="#FFFFFF" />
<rect x="1100" y="260" width="10" height="10" fill="#FFFFFF" />
<rect x="430" y="270" width="10" height="10" fill="#FFFFFF" />
<rect x="540" y="270" width="10" height="10" fill="#FFFFFF" />
<rect x="630" y="270" width="10" height="10" fill="#FFFFFF" />
<rect x="660" y="270" width="10" height="10" fill="#FFFFFF" />
<rect x="1100" y="270" width="10" height="10" fill="#FFFFFF" />
<rect x="430" y="280" width="10" height="10" fill="#FFFFFF" />
<rect x="550" y="280" width="10" height="10" fill="#FFFFFF" />
<rect x="630" y="280" width="10" height="10" fill="#FFFFFF" />
<rect x="650" y="280" width="10" height="10" fill="#FFFFFF" />
<rect x="1090" y="280" width="10" height="10" fill="#FFFFFF" />
<rect x="420" y="290" width="10" height="10" fill="#FFFFFF" />
<rect x="430" y="290" width="10" height="10" fill="#FFFFFF" />
<rect x="550" y="290" width="10" height="10" fill="#FFFFFF" />
<rect x="630" y="290" width="10" height="10" fill="#FFFFFF" />
<rect x="650" y="290" width="10" height="10" fill="#FFFFFF" />
<rect x="1090" y="290" width="10" height="10" fill="#FFFFFF" />
<rect x="410" y="300" width="10" height="10" fill="#FFFFFF" />
<rect x="440" y="300" width="10" height="10" fill="#FFFFFF" />
<rect x="550" y="300" width="10" height="10" fill="#FFFFFF" />
<rect x="630" y="300" width="10" height="10" fill="#FFFFFF" />
<rect x="650" y="300" width="10" height="10" fill="#FFFFFF" />
<rect x="1090" y="300" width="10" height="10" fill="#FFFFFF" />
<rect x="400" y="310" width="10" height="10" fill="#FFFFFF" />
<rect x="440" y="310" width="10" height="10" fill="#FFFFFF" />
<rect x="550" y="310" width="10" height="10" fill="#FFFFFF" />
<rect x="630" y="310" width="10" height="10" fill="#FFFFFF" />
<rect x="650" y="310" width="10" height="10" fill="#FFFFFF" />
<rect x="1080" y="310" width="10" height="10" fill="#FFFFFF" />
<rect x="400" y="320" width="10" height="10" fill="#FFFFFF" />
<rect x="440" y="320" width="10" height="10" fill="#FFFFFF" />
<rect x="550" y="320" width="10" height="10" fill="#FFFFFF" />
<rect x="630" y="320" width="10" height="10" fill="#FFFFFF" />
<rect x="640" y="320" width="10" height="10" fill="#FFFFFF" />
<rect x="1080" y="320" width="10" height="10" fill="#FFFFFF" />
<rect x="390" y="330" width="10" height="10" fill="#FFFFFF" />
<rect x="440" y="330" width="10" height="10" fill="#FFFFFF" />
<rect x="550" y="330" width="10" height="10" fill="#FFFFFF" />
<rect x="630" y="330" width="10" height="10" fill="#FFFFFF" />
<rect x="640" y="330" width="10" height="10" fill="#FFFFFF" />
<rect x="1080" y="330" width="10" height="10" fill="#FFFFFF" />
<rect x="380" y="340" width="10" height="10" fill="#FFFFFF" />
<rect x="440" y="340" width="10" height="10" fill="#FFFFFF" />
<rect x="550" y="340" width="10" height="10" fill="#FFFFFF" />
<rect x="630" y="340" width="10" height="10" fill="#FFFFFF" />
<rect x="1080" y="340" width="10" height="10" fill="#FFFFFF" />
<rect x="370" y="350" width="10" height="10" fill="#FFFFFF" />
<rect x="450" y="350" width="10" height="10" fill="#FFFFFF" />
<rect x="550" y="350" width="10" height="10" fill="#FFFFFF" />
<rect x="630" y="350" width="10" height="10" fill="#FFFFFF" />
<rect x="970" y="350" width="10" height="10" fill="#FFFFFF" />
<rect x="980" y="350" width="10" height="10" fill="#FFFFFF" />
<rect x="1070" y="350" width="10" height="10" fill="#FFFFFF" />
<rect x="370" y="360" width="10" height="10" fill="#FFFFFF" />
<rect x="450" y="360" width="10" height="10" fill="#FFFFFF" />
<rect x="540" y="360" width="10" height="10" fill="#FFFFFF" />
<rect x="620" y="360" width="10" height="10" fill="#FFFFFF" />
<rect x="630" y="360" width="10" height="10" fill="#FFFFFF" />
<rect x="970" y="360" width="10" height="10" fill="#FFFFFF" />
<rect x="980" y="360" width="10" height="10" fill="#FFFFFF" />
<rect x="1070" y="360" width="10" height="10" fill="#FFFFFF" />
<rect x="370" y="370" width="10" height="10" fill="#FFFFFF" />
<rect x="450" y="370" width="10" height="10" fill="#FFFFFF" />
<rect x="530" y="370" width="10" height="10" fill="#FFFFFF" />
<rect x="620" y="370" width="10" height="10" fill="#FFFFFF" />
<rect x="630" y="370" width="10" height="10" fill="#FFFFFF" />
<rect x="740" y="370" width="10" height="10" fill="#FFFFFF" />
<rect x="750" y="370" width="10" height="10" fill="#FFFFFF" />
<rect x="760" y="370" width="10" height="10" fill="#FFFFFF" />
<rect x="800" y="370" width="10" height="10" fill="#FFFFFF" />
<rect x="890" y="370" width="10" height="10" fill="#FFFFFF" />
<rect x="970" y="370" width="10" height="10" fill="#FFFFFF" />
<rect x="980" y="370" width="10" height="10" fill="#FFFFFF" />
<rect x="1070" y="370" width="10" height="10" fill="#FFFFFF" />
<rect x="1250" y="370" width="10" height="10" fill="#FFFFFF" />
<rect x="1260" y="370" width="10" height="10" fill="#FFFFFF" />
<rect x="1270" y="370" width="10" height="10" fill="#FFFFFF" />
<rect x="1280" y="370" width="10" height="10" fill="#FFFFFF" />
<rect x="360" y="380" width="10" height="10" fill="#FFFFFF" />
<rect x="450" y="380" width="10" height="10" fill="#FFFFFF" />
<rect x="520" y="380" width="10" height="10" fill="#FFFFFF" />
<rect x="620" y="380" width="10" height="10" fill="#FFFFFF" />
<rect x="730" y="380" width="10" height="10" fill="#FFFFFF" />
<rect x="740" y="380" width="10" height="10" fill="#FFFFFF" />
<rect x="770" y="380" width="10" height="10" fill="#FFFFFF" />
<rect x="800" y="380" width="10" height="10" fill="#FFFFFF" />
<rect x="890" y="380" width="10" height="10" fill="#FFFFFF" />
<rect x="970" y="380" width="10" height="10" fill="#FFFFFF" />
<rect x="980" y="380" width="10" height="10" fill="#FFFFFF" />
<rect x="1070" y="380" width="10" height="10" fill="#FFFFFF" />
<rect x="1220" y="380" width="10" height="10" fill="#FFFFFF" />
<rect x="1230" y="380" width="10" height="10" fill="#FFFFFF" />
<rect x="1240" y="380" width="10" height="10" fill="#FFFFFF" />
<rect x="360" y="390" width="10" height="10" fill="#FFFFFF" />
<rect x="460" y="390" width="10" height="10" fill="#FFFFFF" />
<rect x="510" y="390" width="10" height="10" fill="#FFFFFF" />
<rect x="620" y="390" width="10" height="10" fill="#FFFFFF" />
<rect x="720" y="390" width="10" height="10" fill="#FFFFFF" />
<rect x="770" y="390" width="10" height="10" fill="#FFFFFF" />
<rect x="800" y="390" width="10" height="10" fill="#FFFFFF" />
<rect x="890" y="390" width="10" height="10" fill="#FFFFFF" />
<rect x="970" y="390" width="10" height="10" fill="#FFFFFF" />
<rect x="980" y="390" width="10" height="10" fill="#FFFFFF" />
<rect x="1060" y="390" width="10" height="10" fill="#FFFFFF" />
<rect x="1210" y="390" width="10" height="10" fill="#FFFFFF" />
<rect x="1220" y="390" width="10" height="10" fill="#FFFFFF" />
<rect x="1240" y="390" width="10" height="10" fill="#FFFFFF" />
<rect x="1250" y="390" width="10" height="10" fill="#FFFFFF" />
<rect x="1260" y="390" width="10" height="10" fill="#FFFFFF" />
<rect x="360" y="400" width="10" height="10" fill="#FFFFFF" />
<rect x="460" y="400" width="10" height="10" fill="#FFFFFF" />
<rect x="500" y="400" width="10" height="10" fill="#FFFFFF" />
<rect x="620" y="400" width="10" height="10" fill="#FFFFFF" />
<rect x="720" y="400" width="10" height="10" fill="#FFFFFF" />
<rect x="780" y="400" width="10" height="10" fill="#FFFFFF" />
<rect x="800" y="400" width="10" height="10" fill="#FFFFFF" />
<rect x="890" y="400" width="10" height="10" fill="#FFFFFF" />
<rect x="970" y="400" width="10" height="10" fill="#FFFFFF" />
<rect x="980" y="400" width="10" height="10" fill="#FFFFFF" />
<rect x="1060" y="400" width="10" height="10" fill="#FFFFFF" />
<rect x="1230" y="400" width="10" height="10" fill="#FFFFFF" />
<rect x="1240" y="400" width="10" height="10" fill="#FFFFFF" />
<rect x="1260" y="400" width="10" height="10" fill="#FFFFFF" />
<rect x="1270" y="400" width="10" height="10" fill="#FFFFFF" />
<rect x="1280" y="400" width="10" height="10" fill="#FFFFFF" />
<rect x="1290" y="400" width="10" height="10" fill="#FFFFFF" />
<rect x="360" y="410" width="10" height="10" fill="#FFFFFF" />
<rect x="460" y="410" width="10" height="10" fill="#FFFFFF" />
<rect x="480" y="410" width="10" height="10" fill="#FFFFFF" />
<rect x="490" y="410" width="10" height="10" fill="#FFFFFF" />
<rect x="610" y="410" width="10" height="10" fill="#FFFFFF" />
<rect x="620" y="410" width="10" height="10" fill="#FFFFFF" />
<rect x="710" y="410" width="10" height="10" fill="#FFFFFF" />
<rect x="800" y="410" width="10" height="10" fill="#FFFFFF" />
<rect x="890" y="410" width="10" height="10" fill="#FFFFFF" />
<rect x="960" y="410" width="10" height="10" fill="#FFFFFF" />
<rect x="980" y="410" width="10" height="10" fill="#FFFFFF" />
<rect x="1060" y="410" width="10" height="10" fill="#FFFFFF" />
<rect x="1240" y="410" width="10" height="10" fill="#FFFFFF" />
<rect x="1250" y="410" width="10" height="10" fill="#FFFFFF" />
<rect x="1290" y="410" width="10" height="10" fill="#FFFFFF" />
<rect x="1300" y="410" width="10" height="10" fill="#FFFFFF" />
<rect x="370" y="420" width="10" height="10" fill="#FFFFFF" />
<rect x="420" y="420" width="10" height="10" fill="#FFFFFF" />
<rect x="460" y="420" width="10" height="10" fill="#FFFFFF" />
<rect x="470" y="420" width="10" height="10" fill="#FFFFFF" />
<rect x="610" y="420" width="10" height="10" fill="#FFFFFF" />
<rect x="620" y="420" width="10" height="10" fill="#FFFFFF" />
<rect x="710" y="420" width="10" height="10" fill="#FFFFFF" />
<rect x="790" y="420" width="10" height="10" fill="#FFFFFF" />
<rect x="800" y="420" width="10" height="10" fill="#FFFFFF" />
<rect x="890" y="420" width="10" height="10" fill="#FFFFFF" />
<rect x="950" y="420" width="10" height="10" fill="#FFFFFF" />
<rect x="960" y="420" width="10" height="10" fill="#FFFFFF" />
<rect x="980" y="420" width="10" height="10" fill="#FFFFFF" />
<rect x="1250" y="420" width="10" height="10" fill="#FFFFFF" />
<rect x="1260" y="420" width="10" height="10" fill="#FFFFFF" />
<rect x="1310" y="420" width="10" height="10" fill="#FFFFFF" />
<rect x="1320" y="420" width="10" height="10" fill="#FFFFFF" />
<rect x="420" y="430" width="10" height="10" fill="#FFFFFF" />
<rect x="430" y="430" width="10" height="10" fill="#FFFFFF" />
<rect x="440" y="430" width="10" height="10" fill="#FFFFFF" />
<rect x="450" y="430" width="10" height="10" fill="#FFFFFF" />
<rect x="460" y="430" width="10" height="10" fill="#FFFFFF" />
<rect x="610" y="430" width="10" height="10" fill="#FFFFFF" />
<rect x="700" y="430" width="10" height="10" fill="#FFFFFF" />
<rect x="790" y="430" width="10" height="10" fill="#FFFFFF" />
<rect x="800" y="430" width="10" height="10" fill="#FFFFFF" />
<rect x="890" y="430" width="10" height="10" fill="#FFFFFF" />
<rect x="900" y="430" width="10" height="10" fill="#FFFFFF" />
<rect x="940" y="430" width="10" height="10" fill="#FFFFFF" />
<rect x="950" y="430" width="10" height="10" fill="#FFFFFF" />
<rect x="980" y="430" width="10" height="10" fill="#FFFFFF" />
<rect x="1270" y="430" width="10" height="10" fill="#FFFFFF" />
<rect x="1320" y="430" width="10" height="10" fill="#FFFFFF" />
<rect x="1330" y="430" width="10" height="10" fill="#FFFFFF" />
<rect x="470" y="440" width="10" height="10" fill="#FFFFFF" />
<rect x="600" y="440" width="10" height="10" fill="#FFFFFF" />
<rect x="610" y="440" width="10" height="10" fill="#FFFFFF" />
<rect x="700" y="440" width="10" height="10" fill="#FFFFFF" />
<rect x="780" y="440" width="10" height="10" fill="#FFFFFF" />
<rect x="800" y="440" width="10" height="10" fill="#FFFFFF" />
<rect x="900" y="440" width="10" height="10" fill="#FFFFFF" />
<rect x="910" y="440" width="10" height="10" fill="#FFFFFF" />
<rect x="920" y="440" width="10" height="10" fill="#FFFFFF" />
<rect x="930" y="440" width="10" height="10" fill="#FFFFFF" />
<rect x="940" y="440" width="10" height="10" fill="#FFFFFF" />
<rect x="980" y="440" width="10" height="10" fill="#FFFFFF" />
<rect x="1340" y="440" width="10" height="10" fill="#FFFFFF" />
<rect x="1350" y="440" width="10" height="10" fill="#FFFFFF" />
<rect x="470" y="450" width="10" height="10" fill="#FFFFFF" />
<rect x="600" y="450" width="10" height="10" fill="#FFFFFF" />
<rect x="610" y="450" width="10" height="10" fill="#FFFFFF" />
<rect x="700" y="450" width="10" height="10" fill="#FFFFFF" />
<rect x="780" y="450" width="10" height="10" fill="#FFFFFF" />
<rect x="800" y="450" width="10" height="10" fill="#FFFFFF" />
<rect x="970" y="450" width="10" height="10" fill="#FFFFFF" />
<rect x="1360" y="450" width="10" height="10" fill="#FFFFFF" />
<rect x="470" y="460" width="10" height="10" fill="#FFFFFF" />
<rect x="600" y="460" width="10" height="10" fill="#FFFFFF" />
<rect x="610" y="460" width="10" height="10" fill="#FFFFFF" />
<rect x="700" y="460" width="10" height="10" fill="#FFFFFF" />
<rect x="770" y="460" width="10" height="10" fill="#FFFFFF" />
<rect x="800" y="460" width="10" height="10" fill="#FFFFFF" />
<rect x="970" y="460" width="10" height="10" fill="#FFFFFF" />
<rect x="1370" y="460" width="10" height="10" fill="#FFFFFF" />
<rect x="1380" y="460" width="10" height="10" fill="#FFFFFF" />
<rect x="470" y="470" width="10" height="10" fill="#FFFFFF" />
<rect x="610" y="470" width="10" height="10" fill="#FFFFFF" />
<rect x="700" y="470" width="10" height="10" fill="#FFFFFF" />
<rect x="760" y="470" width="10" height="10" fill="#FFFFFF" />
<rect x="800" y="470" width="10" height="10" fill="#FFFFFF" />
<rect x="960" y="470" width="10" height="10" fill="#FFFFFF" />
<rect x="1040" y="470" width="10" height="10" fill="#FFFFFF" />
<rect x="1380" y="470" width="10" height="10" fill="#FFFFFF" />
<rect x="300" y="480" width="10" height="10" fill="#FFFFFF" />
<rect x="470" y="480" width="10" height="10" fill="#FFFFFF" />
<rect x="610" y="480" width="10" height="10" fill="#FFFFFF" />
<rect x="700" y="480" width="10" height="10" fill="#FFFFFF" />
<rect x="750" y="480" width="10" height="10" fill="#FFFFFF" />
<rect x="800" y="480" width="10" height="10" fill="#FFFFFF" />
<rect x="870" y="480" width="10" height="10" fill="#FFFFFF" />
<rect x="950" y="480" width="10" height="10" fill="#FFFFFF" />
<rect x="960" y="480" width="10" height="10" fill="#FFFFFF" />
<rect x="1040" y="480" width="10" height="10" fill="#FFFFFF" />
<rect x="300" y="490" width="10" height="10" fill="#FFFFFF" />
<rect x="310" y="490" width="10" height="10" fill="#FFFFFF" />
<rect x="320" y="490" width="10" height="10" fill="#FFFFFF" />
<rect x="360" y="490" width="10" height="10" fill="#FFFFFF" />
<rect x="370" y="490" width="10" height="10" fill="#FFFFFF" />
<rect x="380" y="490" width="10" height="10" fill="#FFFFFF" />
<rect x="470" y="490" width="10" height="10" fill="#FFFFFF" />
<rect x="610" y="490" width="10" height="10" fill="#FFFFFF" />
<rect x="700" y="490" width="10" height="10" fill="#FFFFFF" />
<rect x="750" y="490" width="10" height="10" fill="#FFFFFF" />
<rect x="800" y="490" width="10" height="10" fill="#FFFFFF" />
<rect x="870" y="490" width="10" height="10" fill="#FFFFFF" />
<rect x="950" y="490" width="10" height="10" fill="#FFFFFF" />
<rect x="320" y="500" width="10" height="10" fill="#FFFFFF" />
<rect x="330" y="500" width="10" height="10" fill="#FFFFFF" />
<rect x="340" y="500" width="10" height="10" fill="#FFFFFF" />
<rect x="350" y="500" width="10" height="10" fill="#FFFFFF" />
<rect x="360" y="500" width="10" height="10" fill="#FFFFFF" />
<rect x="370" y="500" width="10" height="10" fill="#FFFFFF" />
<rect x="470" y="500" width="10" height="10" fill="#FFFFFF" />
<rect x="610" y="500" width="10" height="10" fill="#FFFFFF" />
<rect x="710" y="500" width="10" height="10" fill="#FFFFFF" />
<rect x="720" y="500" width="10" height="10" fill="#FFFFFF" />
<rect x="730" y="500" width="10" height="10" fill="#FFFFFF" />
<rect x="740" y="500" width="10" height="10" fill="#FFFFFF" />
<rect x="800" y="500" width="10" height="10" fill="#FFFFFF" />
<rect x="880" y="500" width="10" height="10" fill="#FFFFFF" />
<rect x="930" y="500" width="10" height="10" fill="#FFFFFF" />
<rect x="940" y="500" width="10" height="10" fill="#FFFFFF" />
<rect x="280" y="510" width="10" height="10" fill="#FFFFFF" />
<rect x="290" y="510" width="10" height="10" fill="#FFFFFF" />
<rect x="300" y="510" width="10" height="10" fill="#FFFFFF" />
<rect x="310" y="510" width="10" height="10" fill="#FFFFFF" />
<rect x="320" y="510" width="10" height="10" fill="#FFFFFF" />
<rect x="330" y="510" width="10" height="10" fill="#FFFFFF" />
<rect x="360" y="510" width="10" height="10" fill="#FFFFFF" />
<rect x="480" y="510" width="10" height="10" fill="#FFFFFF" />
<rect x="610" y="510" width="10" height="10" fill="#FFFFFF" />
<rect x="640" y="510" width="10" height="10" fill="#FFFFFF" />
<rect x="800" y="510" width="10" height="10" fill="#FFFFFF" />
<rect x="810" y="510" width="10" height="10" fill="#FFFFFF" />
<rect x="890" y="510" width="10" height="10" fill="#FFFFFF" />
<rect x="900" y="510" width="10" height="10" fill="#FFFFFF" />
<rect x="910" y="510" width="10" height="10" fill="#FFFFFF" />
<rect x="920" y="510" width="10" height="10" fill="#FFFFFF" />
<rect x="340" y="520" width="10" height="10" fill="#FFFFFF" />
<rect x="350" y="520" width="10" height="10" fill="#FFFFFF" />
<rect x="480" y="520" width="10" height="10" fill="#FFFFFF" />
<rect x="610" y="520" width="10" height="10" fill="#FFFFFF" />
<rect x="620" y="520" width="10" height="10" fill="#FFFFFF" />
<rect x="630" y="520" width="10" height="10" fill="#FFFFFF" />
<rect x="640" y="520" width="10" height="10" fill="#FFFFFF" />
<rect x="980" y="520" width="10" height="10" fill="#FFFFFF" />
<rect x="990" y="520" width="10" height="10" fill="#FFFFFF" />
<rect x="1000" y="520" width="10" height="10" fill="#FFFFFF" />
<rect x="1010" y="520" width="10" height="10" fill="#FFFFFF" />
<rect x="1020" y="520" width="10" height="10" fill="#FFFFFF" />
<rect x="1030" y="520" width="10" height="10" fill="#FFFFFF" />
<rect x="1040" y="520" width="10" height="10" fill="#FFFFFF" />
<rect x="1050" y="520" width="10" height="10" fill="#FFFFFF" />
<rect x="1060" y="520" width="10" height="10" fill="#FFFFFF" />
<rect x="1070" y="520" width="10" height="10" fill="#FFFFFF" />
<rect x="210" y="530" width="10" height="10" fill="#FFFFFF" />
<rect x="220" y="530" width="10" height="10" fill="#FFFFFF" />
<rect x="320" y="530" width="10" height="10" fill="#FFFFFF" />
<rect x="330" y="530" width="10" height="10" fill="#FFFFFF" />
<rect x="480" y="530" width="10" height="10" fill="#FFFFFF" />
<rect x="790" y="530" width="10" height="10" fill="#FFFFFF" />
<rect x="800" y="530" width="10" height="10" fill="#FFFFFF" />
<rect x="810" y="530" width="10" height="10" fill="#FFFFFF" />
<rect x="820" y="530" width="10" height="10" fill="#FFFFFF" />
<rect x="830" y="530" width="10" height="10" fill="#FFFFFF" />
<rect x="840" y="530" width="10" height="10" fill="#FFFFFF" />
<rect x="850" y="530" width="10" height="10" fill="#FFFFFF" />
<rect x="860" y="530" width="10" height="10" fill="#FFFFFF" />
<rect x="870" y="530" width="10" height="10" fill="#FFFFFF" />
<rect x="880" y="530" width="10" height="10" fill="#FFFFFF" />
<rect x="890" y="530" width="10" height="10" fill="#FFFFFF" />
<rect x="900" y="530" width="10" height="10" fill="#FFFFFF" />
<rect x="910" y="530" width="10" height="10" fill="#FFFFFF" />
<rect x="920" y="530" width="10" height="10" fill="#FFFFFF" />
<rect x="930" y="530" width="10" height="10" fill="#FFFFFF" />
<rect x="940" y="530" width="10" height="10" fill="#FFFFFF" />
<rect x="950" y="530" width="10" height="10" fill="#FFFFFF" />
<rect x="960" y="530" width="10" height="10" fill="#FFFFFF" />
<rect x="970" y="530" width="10" height="10" fill="#FFFFFF" />
<rect x="980" y="530" width="10" height="10" fill="#FFFFFF" />
<rect x="990" y="530" width="10" height="10" fill="#FFFFFF" />
<rect x="1000" y="530" width="10" height="10" fill="#FFFFFF" />
<rect x="1010" y="530" width="10" height="10" fill="#FFFFFF" />
<rect x="1020" y="530" width="10" height="10" fill="#FFFFFF" />
<rect x="1030" y="530" width="10" height="10" fill="#FFFFFF" />
<rect x="1040" y="530" width="10" height="10" fill="#FFFFFF" />
<rect x="210" y="540" width="10" height="10" fill="#FFFFFF" />
<rect x="310" y="540" width="10" height="10" fill="#FFFFFF" />
<rect x="320" y="540" width="10" height="10" fill="#FFFFFF" />
<rect x="480" y="540" width="10" height="10" fill="#FFFFFF" />
<rect x="690" y="540" width="10" height="10" fill="#FFFFFF" />
<rect x="700" y="540" width="10" height="10" fill="#FFFFFF" />
<rect x="710" y="540" width="10" height="10" fill="#FFFFFF" />
<rect x="720" y="540" width="10" height="10" fill="#FFFFFF" />
<rect x="730" y="540" width="10" height="10" fill="#FFFFFF" />
<rect x="740" y="540" width="10" height="10" fill="#FFFFFF" />
<rect x="750" y="540" width="10" height="10" fill="#FFFFFF" />
<rect x="760" y="540" width="10" height="10" fill="#FFFFFF" />
<rect x="770" y="540" width="10" height="10" fill="#FFFFFF" />
<rect x="780" y="540" width="10" height="10" fill="#FFFFFF" />
<rect x="810" y="540" width="10" height="10" fill="#FFFFFF" />
<rect x="820" y="540" width="10" height="10" fill="#FFFFFF" />
<rect x="830" y="540" width="10" height="10" fill="#FFFFFF" />
<rect x="840" y="540" width="10" height="10" fill="#FFFFFF" />
<rect x="850" y="540" width="10" height="10" fill="#FFFFFF" />
<rect x="860" y="540" width="10" height="10" fill="#FFFFFF" />
<rect x="870" y="540" width="10" height="10" fill="#FFFFFF" />
<rect x="880" y="540" width="10" height="10" fill="#FFFFFF" />
<rect x="890" y="540" width="10" height="10" fill="#FFFFFF" />
<rect x="900" y="540" width="10" height="10" fill="#FFFFFF" />
<rect x="210" y="550" width="10" height="10" fill="#FFFFFF" />
<rect x="480" y="550" width="10" height="10" fill="#FFFFFF" />
<rect x="630" y="550" width="10" height="10" fill="#FFFFFF" />
<rect x="640" y="550" width="10" height="10" fill="#FFFFFF" />
<rect x="650" y="550" width="10" height="10" fill="#FFFFFF" />
<rect x="660" y="550" width="10" height="10" fill="#FFFFFF" />
<rect x="670" y="550" width="10" height="10" fill="#FFFFFF" />
<rect x="680" y="550" width="10" height="10" fill="#FFFFFF" />
<rect x="730" y="550" width="10" height="10" fill="#FFFFFF" />
<rect x="740" y="550" width="10" height="10" fill="#FFFFFF" />
<rect x="750" y="550" width="10" height="10" fill="#FFFFFF" />
<rect x="760" y="550" width="10" height="10" fill="#FFFFFF" />
<rect x="770" y="550" width="10" height="10" fill="#FFFFFF" />
<rect x="780" y="550" width="10" height="10" fill="#FFFFFF" />
<rect x="790" y="550" width="10" height="10" fill="#FFFFFF" />
<rect x="800" y="550" width="10" height="10" fill="#FFFFFF" />
<rect x="210" y="560" width="10" height="10" fill="#FFFFFF" />
<rect x="560" y="560" width="10" height="10" fill="#FFFFFF" />
<rect x="570" y="560" width="10" height="10" fill="#FFFFFF" />
<rect x="580" y="560" width="10" height="10" fill="#FFFFFF" />
<rect x="590" y="560" width="10" height="10" fill="#FFFFFF" />
<rect x="600" y="560" width="10" height="10" fill="#FFFFFF" />
<rect x="610" y="560" width="10" height="10" fill="#FFFFFF" />
<rect x="620" y="560" width="10" height="10" fill="#FFFFFF" />
<rect x="680" y="560" width="10" height="10" fill="#FFFFFF" />
<rect x="690" y="560" width="10" height="10" fill="#FFFFFF" />
<rect x="700" y="560" width="10" height="10" fill="#FFFFFF" />
<rect x="710" y="560" width="10" height="10" fill="#FFFFFF" />
<rect x="720" y="560" width="10" height="10" fill="#FFFFFF" />
<rect x="780" y="560" width="10" height="10" fill="#FFFFFF" />
<rect x="800" y="560" width="10" height="10" fill="#FFFFFF" />
<rect x="210" y="570" width="10" height="10" fill="#FFFFFF" />
<rect x="510" y="570" width="10" height="10" fill="#FFFFFF" />
<rect x="520" y="570" width="10" height="10" fill="#FFFFFF" />
<rect x="530" y="570" width="10" height="10" fill="#FFFFFF" />
<rect x="540" y="570" width="10" height="10" fill="#FFFFFF" />
<rect x="550" y="570" width="10" height="10" fill="#FFFFFF" />
<rect x="620" y="570" width="10" height="10" fill="#FFFFFF" />
<rect x="630" y="570" width="10" height="10" fill="#FFFFFF" />
<rect x="640" y="570" width="10" height="10" fill="#FFFFFF" />
<rect x="650" y="570" width="10" height="10" fill="#FFFFFF" />
<rect x="660" y="570" width="10" height="10" fill="#FFFFFF" />
<rect x="670" y="570" width="10" height="10" fill="#FFFFFF" />
<rect x="770" y="570" width="10" height="10" fill="#FFFFFF" />
<rect x="810" y="570" width="10" height="10" fill="#FFFFFF" />
<rect x="820" y="570" width="10" height="10" fill="#FFFFFF" />
<rect x="830" y="570" width="10" height="10" fill="#FFFFFF" />
<rect x="60" y="580" width="10" height="10" fill="#FFFFFF" />
<rect x="70" y="580" width="10" height="10" fill="#FFFFFF" />
<rect x="80" y="580" width="10" height="10" fill="#FFFFFF" />
<rect x="90" y="580" width="10" height="10" fill="#FFFFFF" />
<rect x="100" y="580" width="10" height="10" fill="#FFFFFF" />
<rect x="110" y="580" width="10" height="10" fill="#FFFFFF" />
<rect x="460" y="580" width="10" height="10" fill="#FFFFFF" />
<rect x="470" y="580" width="10" height="10" fill="#FFFFFF" />
<rect x="480" y="580" width="10" height="10" fill="#FFFFFF" />
<rect x="490" y="580" width="10" height="10" fill="#FFFFFF" />
<rect x="500" y="580" width="10" height="10" fill="#FFFFFF" />
<rect x="570" y="580" width="10" height="10" fill="#FFFFFF" />
<rect x="580" y="580" width="10" height="10" fill="#FFFFFF" />
<rect x="590" y="580" width="10" height="10" fill="#FFFFFF" />
<rect x="600" y="580" width="10" height="10" fill="#FFFFFF" />
<rect x="610" y="580" width="10" height="10" fill="#FFFFFF" />
<rect x="770" y="580" width="10" height="10" fill="#FFFFFF" />
<rect x="840" y="580" width="10" height="10" fill="#FFFFFF" />
<rect x="850" y="580" width="10" height="10" fill="#FFFFFF" />
<rect x="120" y="590" width="10" height="10" fill="#FFFFFF" />
<rect x="130" y="590" width="10" height="10" fill="#FFFFFF" />
<rect x="440" y="590" width="10" height="10" fill="#FFFFFF" />
<rect x="450" y="590" width="10" height="10" fill="#FFFFFF" />
<rect x="530" y="590" width="10" height="10" fill="#FFFFFF" />
<rect x="540" y="590" width="10" height="10" fill="#FFFFFF" />
<rect x="550" y="590" width="10" height="10" fill="#FFFFFF" />
<rect x="560" y="590" width="10" height="10" fill="#FFFFFF" />
<rect x="570" y="590" width="10" height="10" fill="#FFFFFF" />
<rect x="580" y="590" width="10" height="10" fill="#FFFFFF" />
<rect x="770" y="590" width="10" height="10" fill="#FFFFFF" />
<rect x="860" y="590" width="10" height="10" fill="#FFFFFF" />
<rect x="870" y="590" width="10" height="10" fill="#FFFFFF" />
<rect x="400" y="600" width="10" height="10" fill="#FFFFFF" />
<rect x="410" y="600" width="10" height="10" fill="#FFFFFF" />
<rect x="420" y="600" width="10" height="10" fill="#FFFFFF" />
<rect x="430" y="600" width="10" height="10" fill="#FFFFFF" />
<rect x="760" y="600" width="10" height="10" fill="#FFFFFF" />
<rect x="880" y="600" width="10" height="10" fill="#FFFFFF" />
<rect x="890" y="600" width="10" height="10" fill="#FFFFFF" />
<rect x="900" y="600" width="10" height="10" fill="#FFFFFF" />
<rect x="0" y="610" width="10" height="10" fill="#FFFFFF" />
<rect x="390" y="610" width="10" height="10" fill="#FFFFFF" />
<rect x="760" y="610" width="10" height="10" fill="#FFFFFF" />
<rect x="840" y="610" width="10" height="10" fill="#FFFFFF" />
<rect x="900" y="610" width="10" height="10" fill="#FFFFFF" />
<rect x="910" y="610" width="10" height="10" fill="#FFFFFF" />
<rect x="920" y="610" width="10" height="10" fill="#FFFFFF" />
<rect x="0" y="620" width="10" height="10" fill="#FFFFFF" />
<rect x="760" y="620" width="10" height="10" fill="#FFFFFF" />
<rect x="840" y="620" width="10" height="10" fill="#FFFFFF" />
<rect x="850" y="620" width="10" height="10" fill="#FFFFFF" />
<rect x="860" y="620" width="10" height="10" fill="#FFFFFF" />
<rect x="870" y="620" width="10" height="10" fill="#FFFFFF" />
<rect x="880" y="620" width="10" height="10" fill="#FFFFFF" />
<rect x="890" y="620" width="10" height="10" fill="#FFFFFF" />
<rect x="920" y="620" width="10" height="10" fill="#FFFFFF" />
<rect x="0" y="630" width="10" height="10" fill="#FFFFFF" />
<rect x="230" y="630" width="10" height="10" fill="#FFFFFF" />
<rect x="240" y="630" width="10" height="10" fill="#FFFFFF" />
<rect x="750" y="630" width="10" height="10" fill="#FFFFFF" />
<rect x="840" y="630" width="10" height="10" fill="#FFFFFF" />
<rect x="890" y="630" width="10" height="10" fill="#FFFFFF" />
<rect x="900" y="630" width="10" height="10" fill="#FFFFFF" />
<rect x="910" y="630" width="10" height="10" fill="#FFFFFF" />
<rect x="0" y="640" width="10" height="10" fill="#FFFFFF" />
<rect x="240" y="640" width="10" height="10" fill="#FFFFFF" />
<rect x="750" y="640" width="10" height="10" fill="#FFFFFF" />
<rect x="780" y="640" width="10" height="10" fill="#FFFFFF" />
<rect x="800" y="640" width="10" height="10" fill="#FFFFFF" />
<rect x="850" y="640" width="10" height="10" fill="#FFFFFF" />
<rect x="0" y="650" width="10" height="10" fill="#FFFFFF" />
<rect x="10" y="650" width="10" height="10" fill="#FFFFFF" />
<rect x="250" y="650" width="10" height="10" fill="#FFFFFF" />
<rect x="740" y="650" width="10" height="10" fill="#FFFFFF" />
<rect x="750" y="650" width="10" height="10" fill="#FFFFFF" />
<rect x="770" y="650" width="10" height="10" fill="#FFFFFF" />
<rect x="780" y="650" width="10" height="10" fill="#FFFFFF" />
<rect x="800" y="650" width="10" height="10" fill="#FFFFFF" />
<rect x="850" y="650" width="10" height="10" fill="#FFFFFF" />
<rect x="150" y="660" width="10" height="10" fill="#FFFFFF" />
<rect x="250" y="660" width="10" height="10" fill="#FFFFFF" />
<rect x="740" y="660" width="10" height="10" fill="#FFFFFF" />
<rect x="760" y="660" width="10" height="10" fill="#FFFFFF" />
<rect x="770" y="660" width="10" height="10" fill="#FFFFFF" />
<rect x="800" y="660" width="10" height="10" fill="#FFFFFF" />
<rect x="850" y="660" width="10" height="10" fill="#FFFFFF" />
<rect x="150" y="670" width="10" height="10" fill="#FFFFFF" />
<rect x="730" y="670" width="10" height="10" fill="#FFFFFF" />
<rect x="750" y="670" width="10" height="10" fill="#FFFFFF" />
<rect x="760" y="670" width="10" height="10" fill="#FFFFFF" />
<rect x="800" y="670" width="10" height="10" fill="#FFFFFF" />
<rect x="860" y="670" width="10" height="10" fill="#FFFFFF" />
<rect x="60" y="680" width="10" height="10" fill="#FFFFFF" />
<rect x="150" y="680" width="10" height="10" fill="#FFFFFF" />
<rect x="730" y="680" width="10" height="10" fill="#FFFFFF" />
<rect x="740" y="680" width="10" height="10" fill="#FFFFFF" />
<rect x="750" y="680" width="10" height="10" fill="#FFFFFF" />
<rect x="800" y="680" width="10" height="10" fill="#FFFFFF" />
<rect x="860" y="680" width="10" height="10" fill="#FFFFFF" />
<rect x="60" y="690" width="10" height="10" fill="#FFFFFF" />
<rect x="70" y="690" width="10" height="10" fill="#FFFFFF" />
<rect x="150" y="690" width="10" height="10" fill="#FFFFFF" />
<rect x="730" y="690" width="10" height="10" fill="#FFFFFF" />
<rect x="800" y="690" width="10" height="10" fill="#FFFFFF" />
<rect x="860" y="690" width="10" height="10" fill="#FFFFFF" />
<rect x="70" y="700" width="10" height="10" fill="#FFFFFF" />
<rect x="150" y="700" width="10" height="10" fill="#FFFFFF" />
<rect x="800" y="700" width="10" height="10" fill="#FFFFFF" />
<rect x="870" y="700" width="10" height="10" fill="#FFFFFF" />
<rect x="70" y="710" width="10" height="10" fill="#FFFFFF" />
<rect x="790" y="710" width="10" height="10" fill="#FFFFFF" />
<rect x="870" y="710" width="10" height="10" fill="#FFFFFF" />
<rect x="240" y="720" width="10" height="10" fill="#FFFFFF" />
<rect x="790" y="720" width="10" height="10" fill="#FFFFFF" />
<rect x="870" y="720" width="10" height="10" fill="#FFFFFF" />
<rect x="240" y="730" width="10" height="10" fill="#FFFFFF" />
<rect x="790" y="730" width="10" height="10" fill="#FFFFFF" />
<rect x="870" y="730" width="10" height="10" fill="#FFFFFF" />
<rect x="200" y="740" width="10" height="10" fill="#FFFFFF" />
<rect x="210" y="740" width="10" height="10" fill="#FFFFFF" />
<rect x="220" y="740" width="10" height="10" fill="#FFFFFF" />
<rect x="230" y="740" width="10" height="10" fill="#FFFFFF" />
<rect x="790" y="740" width="10" height="10" fill="#FFFFFF" />
<rect x="870" y="740" width="10" height="10" fill="#FFFFFF" />
<rect x="780" y="750" width="10" height="10" fill="#FFFFFF" />
<rect x="860" y="750" width="10" height="10" fill="#FFFFFF" />
<rect x="870" y="750" width="10" height="10" fill="#FFFFFF" />
<rect x="50" y="760" width="10" height="10" fill="#FFFFFF" />
<rect x="780" y="760" width="10" height="10" fill="#FFFFFF" />
<rect x="830" y="760" width="10" height="10" fill="#FFFFFF" />
<rect x="840" y="760" width="10" height="10" fill="#FFFFFF" />
<rect x="850" y="760" width="10" height="10" fill="#FFFFFF" />
<rect x="40" y="770" width="10" height="10" fill="#FFFFFF" />
<rect x="50" y="770" width="10" height="10" fill="#FFFFFF" />
<rect x="780" y="770" width="10" height="10" fill="#FFFFFF" />
<rect x="790" y="770" width="10" height="10" fill="#FFFFFF" />
<rect x="800" y="770" width="10" height="10" fill="#FFFFFF" />
<rect x="810" y="770" width="10" height="10" fill="#FFFFFF" />
<rect x="820" y="770" width="10" height="10" fill="#FFFFFF" />
<rect x="10" y="780" width="10" height="10" fill="#FFFFFF" />
<rect x="20" y="780" width="10" height="10" fill="#FFFFFF" />
<rect x="30" y="780" width="10" height="10" fill="#FFFFFF" />
<rect x="40" y="780" width="10" height="10" fill="#FFFFFF" />
<rect x="770" y="780" width="10" height="10" fill="#FFFFFF" />
<rect x="780" y="780" width="10" height="10" fill="#FFFFFF" />
<rect x="10" y="790" width="10" height="10" fill="#FFFFFF" />
<rect x="20" y="790" width="10" height="10" fill="#FFFFFF" />
</svg>