<?xml version="1.0" encoding="UTF-8" ?>
<svg version="1.1" width="280" height="140" xmlns="http://www.w3.org/2000/svg" shape-rendering="crispEdges">
<rect x="20" y="0" width="10" height="10" fill="#FFFFFF" />
<rect x="30" y="0" width="10" height="10" fill="#FFFFFF" />
<rect x="40" y="0" width="10" height="10" fill="#FFFFFF" />
<rect x="50" y="0" width="10" height="10" fill="#FFFFFF" />
<rect x="250" y="0" width="10" height="10" fill="#FFFFFF" />
<rect x="10" y="10" width="10" height="10" fill="#FFFFFF" />
<rect x="60" y="10" width="10" height="10" fill="#FFFFFF" />
<rect x="250" y="10" width="10" height="10" fill="#FFFFFF" />
<rect x="10" y="20" width="10" height="10" fill="#FFFFFF" />
<rect x="20" y="20" width="10" height="10" fill="#FFFFFF" />
<rect x="60" y="20" width="10" height="10" fill="#FFFFFF" />
<rect x="250" y="20" width="10" height="10" fill="#FFFFFF" />
<rect x="10" y="30" width="10" height="10" fill="#FFFFFF" />
<rect x="70" y="30" width="10" height="10" fill="#FFFFFF" />
<rect x="250" y="30" width="10" height="10" fill="#FFFFFF" />
<rect x="0" y="40" width="10" height="10" fill="#FFFFFF" />
<rect x="70" y="40" width="10" height="10" fill="#FFFFFF" />
<rect x="250" y="40" width="10" height="10" fill="#FFFFFF" />
<rect x="0" y="50" width="10" height="10" fill="#FFFFFF" />
<rect x="70" y="50" width="10" height="10" fill="#FFFFFF" />
<rect x="250" y="50" width="10" height="10" fill="#FFFFFF" />
<rect x="260" y="50" width="10" height="10" fill="#FFFFFF" />
<rect x="0" y="60" width="10" height="10" fill="#FFFFFF" />
<rect x="70" y="60" width="10" height="10" fill="#FFFFFF" />
<rect x="220" y="60" width="10" height="10" fill="#FFFFFF" />
<rect x="230" y="60" width="10" height="10" fill="#FFFFFF" />
<rect x="240" y="60" width="10" height="10" fill="#FFFFFF" />
<rect x="250" y="60" width="10" height="10" fill="#FFFFFF" />
<rect x="0" y="70" width="10" height="10" fill="#FFFFFF" />
<rect x="70" y="70" width="10" height="10" fill="#FFFFFF" />
<rect x="110" y="70" width="10" height="10" fill="#FFFFFF" />
<rect x="150" y="70" width="10" height="10" fill="#FFFFFF" />
<rect x="250" y="70" width="10" height="10" fill="#FFFFFF" />
<rect x="0" y="80" width="10" height="10" fill="#FFFFFF" />
<rect x="40" y="80" width="10" height="10" fill="#FFFFFF" />
<rect x="60" y="80" width="10" height="10" fill="#FFFFFF" />
<rect x="70" y="80" width="10" height="10" fill="#FFFFFF" />
<rect x="110" y="80" width="10" height="10" fill="#FFFFFF" />
<rect x="150" y="80" width="10" height="10" fill="#FFFFFF" />
<rect x="190" y="80" width="10" height="10" fill="#FFFFFF" />
<rect x="250" y="80" width="10" height="10" fill="#FFFFFF" />
<rect x="0" y="90" width="10" height="10" fill="#FFFFFF" />
<rect x="40" y="90" width="10" height="10" fill="#FFFFFF" />
<rect x="50" y="90" width="10" height="10" fill="#FFFFFF" />
<rect x="60" y="90" width="10" height="10" fill="#FFFFFF" />
<rect x="110" y="90" width="10" height="10" fill="#FFFFFF" />
<rect x="150" y="90" width="10" height="10" fill="#FFFFFF" />
<rect x="250" y="90" width="10" height="10" fill="#FFFFFF" />
<rect x="270" y="90" width="10" height="10" fill="#FFFFFF" />
<rect x="0" y="100" width="10" height="10" fill="#FFFFFF" />
<rect x="10" y="100" width="10" height="10" fill="#FFFFFF" />
<rect x="60" y="100" width="10" height="10" fill="#FFFFFF" />
<rect x="110" y="100" width="10" height="10" fill="#FFFFFF" />
<rect x="140" y="100" width="10" height="10" fill="#FFFFFF" />
<rect x="150" y="100" width="10" height="10" fill="#FFFFFF" />
<rect x="190" y="100" width="10" height="10" fill="#FFFFFF" />
<rect x="250" y="100" width="10" height="10" fill="#FFFFFF" />
<rect x="270" y="100" width="10" height="10" fill="#FFFFFF" />
<rect x="20" y="110" width="10" height="10" fill="#FFFFFF" />
<rect x="30" y="110" width="10" height="10" fill="#FFFFFF" />
<rect x="40" y="110" width="10" height="10" fill="#FFFFFF" />
<rect x="50" y="110" width="10" height="10" fill="#FFFFFF" />
<rect x="60" y="110" width="10" height="10" fill="#FFFFFF" />
<rect x="70" y="110" width="10" height="10" fill="#FFFFFF" />
<rect x="110" y="110" width="10" height="10" fill="#FFFFFF" />
<rect x="120" y="110" width="10" height="10" fill="#FFFFFF" />
<rect x="130" y="110" width="10" height="10" fill="#FFFFFF" />
<rect x="150" y="110" width="10" height="10" fill="#FFFFFF" />
<rect x="190" y="110" width="10" height="10" fill="#FFFFFF" />
<rect x="250" y="110" width="10" height="10" fill="#FFFFFF" />
<rect x="260" y="110" width="10" height="10" fill="#FFFFFF" />
<rect x="70" y="120" width="10" height="10" fill="#FFFFFF" />
<rect x="80" y="120" width="10" height="10" fill="#FFFFFF" />
<rect x="150" y="120" width="10" height="10" fill="#FFFFFF" />
<rect x="190" y="120" width="10" height="10" fill="#FFFFFF" />
<rect x="250" y="120" width="10" height="10" fill="#FFFFFF" />
<rect x="260" y="120" width="10" height="10" fill="#FFFFFF" />
<rect x="260" y="130" width="10" height="10" fill="#FFFFFF" />
</svg>